<svg width="60" height="60" viewBox="0 0 60 60" fill="none" xmlns="http://www.w3.org/2000/svg">
<path d="M30 59.9028C46.5417 59.9028 59.9514 46.4931 59.9514 29.9514C59.9514 13.4097 46.5417 0 30 0C13.4583 0 0.048584 13.4097 0.048584 29.9514C0.048584 46.4931 13.4583 59.9028 30 59.9028Z" fill="#473159"/>
<path d="M30.4931 12.3935V29.5118V29.5944C30.617 31.1855 31.664 32.7911 33.4713 33.2381C33.8076 33.32 34.1526 33.3608 34.4988 33.3597C35.2201 33.365 35.9308 33.186 36.5636 32.8397C36.6607 32.7863 36.7555 32.7304 36.8478 32.6697C37.6166 32.9957 38.4419 33.1674 39.2769 33.1749C39.8535 33.1757 40.4269 33.0889 40.9773 32.9174C42.4409 32.5053 43.6658 31.5005 44.3563 30.1458C44.7528 29.3266 44.9698 28.4321 44.9927 27.5223C46.0112 26.5475 46.6193 25.2208 46.6931 23.813C46.7496 22.9836 46.5915 22.1537 46.234 21.4033C46.1477 21.2202 46.0503 21.0426 45.9425 20.8713L45.9887 20.779C46.5665 19.6713 46.6631 18.3747 46.2559 17.1936C45.9689 16.3549 45.4592 15.6101 44.7814 15.0389C44.5187 14.8169 44.2356 14.6201 43.936 14.451V14.434C43.7845 13.2165 43.1499 12.1109 42.1749 11.366C41.3126 10.6891 40.2493 10.319 39.1531 10.3142C38.9903 10.3142 38.8324 10.3142 38.6794 10.3361C37.8319 9.27765 36.5761 8.62726 35.2227 8.54578C35.0284 8.5312 34.834 8.52148 34.6494 8.52148C32.6672 8.52148 31.6421 9.41055 31.132 10.1587C30.7753 10.6883 30.5603 11.3005 30.5077 11.9369C30.5028 12.0875 30.4931 12.2381 30.4931 12.3935ZM32.6624 27.9401C32.9838 27.8845 33.3107 28.0027 33.5223 28.251C33.751 28.5833 34.1454 28.761 34.5458 28.7122C34.9463 28.6634 35.2864 28.3961 35.4286 28.0186C35.5707 27.6411 35.4914 27.2159 35.2227 26.915C34.6021 26.1402 33.6464 25.7116 32.6551 25.7636V16.2438C33.447 16.5207 34.3118 16.5207 35.0575 16.5207C35.6565 16.5207 36.1421 16.0351 36.1421 15.4361C36.1421 14.837 35.6565 14.3514 35.0575 14.3514C34.1004 14.3514 33.3401 14.3223 32.9854 13.9676C32.8049 13.7545 32.6894 13.494 32.6526 13.217V12.3935C32.6526 11.9733 32.7012 10.6931 34.6494 10.6931C34.7757 10.6931 34.9093 10.6931 35.0502 10.7101C35.5331 10.7408 35.9993 10.8992 36.4008 11.1693C36.0889 11.4721 35.992 11.9339 36.1559 12.3366C36.3199 12.7392 36.7118 13.0021 37.1466 13.0008C37.2982 13.0013 37.4487 12.975 37.5911 12.9231L37.6397 12.894C37.699 12.8693 37.7559 12.8392 37.8097 12.8041C38.2216 12.6003 38.6742 12.4924 39.1336 12.4883C39.7522 12.4912 40.3516 12.7036 40.834 13.0907C41.1295 13.3088 41.3706 13.5923 41.5385 13.9191C40.9203 13.943 40.316 14.1093 39.7725 14.4049C38.6382 15.0354 37.9296 16.2262 37.9166 17.5239C37.9055 17.8113 38.009 18.0913 38.2045 18.3023C38.4 18.5133 38.6713 18.6379 38.9587 18.6486H39C39.5835 18.649 40.0625 18.1872 40.0834 17.6041C40.0698 17.0701 40.3494 16.5714 40.8122 16.3045C41.4263 16.0167 42.135 16.0087 42.7555 16.2826C43.4325 16.6175 43.9545 17.2004 44.213 17.9101C44.3703 18.3614 44.3831 18.8505 44.2494 19.3093C43.7583 19.1019 43.2303 18.9961 42.6972 18.9984C42.0982 18.9984 41.6126 19.484 41.6126 20.083C41.6126 20.682 42.0982 21.1676 42.6972 21.1676C42.9913 21.1636 43.2819 21.2329 43.5425 21.3693C44.2217 21.9386 44.5889 22.7975 44.5312 23.6818C44.5032 24.1916 44.3639 24.6891 44.1231 25.1393C43.5107 24.2576 42.6982 23.5334 41.7522 23.0259C40.7793 22.489 39.681 22.2207 38.5701 22.2486C38.289 20.3441 36.6349 18.9461 34.7101 18.9863C34.1111 18.9863 33.6255 19.4719 33.6255 20.0709C33.6255 20.6699 34.1111 21.1555 34.7101 21.1555C35.609 21.1309 36.3689 21.816 36.4373 22.7126C35.923 22.9143 35.4338 23.1752 34.9798 23.4899C34.4881 23.832 34.3668 24.5079 34.7089 24.9996C35.051 25.4913 35.7269 25.6126 36.2186 25.2705C38.162 23.9272 39.8624 24.4931 40.7029 24.9498C42 25.6518 42.7798 26.8494 42.7579 27.5587C42.7555 27.6519 42.7653 27.745 42.7871 27.8357C42.6316 29.247 41.9271 30.3523 40.3312 30.8502C39.9914 30.9557 39.6376 31.0089 39.2818 31.0081C38.9858 31.0076 38.6907 30.9734 38.4024 30.9061C38.7508 30.2317 38.9182 29.4784 38.8883 28.7199C38.8641 28.1215 38.3595 27.656 37.7612 27.6802C37.1628 27.7043 36.6973 28.209 36.7215 28.8073C36.7395 29.7098 36.2495 30.5461 35.4535 30.9717C35.1585 31.1153 34.8342 31.1884 34.5061 31.1855C32.8057 31.1855 32.6624 29.4219 32.6624 29.4219V27.9401Z" fill="white"/>
<path d="M29.4826 11.9369C29.4298 11.3006 29.2148 10.6884 28.8583 10.1587C28.3457 9.41298 27.3206 8.52148 25.3409 8.52148C25.1563 8.52148 24.9644 8.52148 24.7676 8.54578C23.4174 8.6343 22.1674 9.28887 21.3255 10.3482C21.1725 10.3336 21.0146 10.3263 20.8518 10.3263C19.7556 10.3311 18.6922 10.7013 17.83 11.3782C16.857 12.1213 16.2233 13.2241 16.0713 14.4389V14.4656C15.7717 14.6347 15.4887 14.8315 15.2259 15.0535C14.5482 15.6248 14.0385 16.3695 13.7514 17.2081C13.3442 18.3892 13.4408 19.6859 14.0186 20.7935L14.0478 20.8543C13.9579 21.051 13.8607 21.2284 13.7733 21.4154C13.4157 22.1658 13.2576 22.9958 13.3142 23.8251C13.388 25.233 13.9962 26.5596 15.0146 27.5344C15.0356 28.4411 15.2493 29.3329 15.6413 30.1506C16.3317 31.5054 17.5567 32.5101 19.0202 32.9223C19.5707 33.0937 20.1441 33.1805 20.7206 33.1798C21.5557 33.1722 22.381 33.0006 23.1498 32.6745C23.2397 32.7353 23.3368 32.7887 23.434 32.8446C24.07 33.1879 24.7834 33.3627 25.5061 33.3523C25.8522 33.3535 26.1973 33.3127 26.5336 33.2308C28.3433 32.7838 29.3903 31.1782 29.5117 29.5871V29.5045V12.3935C29.5069 12.2381 29.4972 12.0875 29.4826 11.9369ZM27.3377 29.4267C27.3377 29.4267 27.2016 31.1904 25.4939 31.1904C25.1659 31.1933 24.8416 31.1201 24.5466 30.9765C23.7505 30.551 23.2605 29.7147 23.2785 28.8122C23.3027 28.2138 22.8372 27.7092 22.2389 27.685C21.6405 27.6609 21.1359 28.1264 21.1117 28.7247C21.082 29.4832 21.2494 30.2364 21.5976 30.911C21.3101 30.978 21.0159 31.0123 20.7206 31.013C20.3649 31.0138 20.011 30.9605 19.6713 30.8551C18.0753 30.3693 17.3709 29.2519 17.2154 27.8405C17.2371 27.7499 17.2469 27.6568 17.2445 27.5636C17.2251 26.8543 18.0049 25.6543 19.2996 24.9547C20.1449 24.498 21.8526 23.9296 23.7862 25.2753C24.2779 25.6174 24.9538 25.4962 25.296 25.0045C25.6381 24.5128 25.5168 23.8369 25.0251 23.4948C24.571 23.18 24.0819 22.9192 23.5676 22.7174C23.6446 21.8257 24.405 21.1495 25.2996 21.1774C25.8986 21.1774 26.3842 20.6918 26.3842 20.0927C26.3842 19.4937 25.8986 19.0081 25.2996 19.0081C23.3748 18.9679 21.7208 20.3659 21.4397 22.2705C20.3288 22.2425 19.2304 22.5108 18.2575 23.0478C17.3115 23.5553 16.4991 24.2795 15.8866 25.1612C15.646 24.7109 15.5067 24.2134 15.4785 23.7037C15.4215 22.8189 15.7896 21.96 16.4696 21.3911C16.7303 21.2547 17.0208 21.1854 17.315 21.1895C17.914 21.1895 18.3996 20.7039 18.3996 20.1049C18.3996 19.5059 17.914 19.0203 17.315 19.0203C16.7819 19.018 16.2538 19.1237 15.7628 19.3312C15.6291 18.8724 15.6418 18.3833 15.7992 17.932C16.0576 17.2223 16.5796 16.6394 17.2567 16.3045C17.8772 16.0306 18.5858 16.0385 19.2 16.3263C19.6627 16.5933 19.9423 17.0919 19.9287 17.6259C19.9497 18.2091 20.4287 18.6708 21.0121 18.6705H21.0534C21.3413 18.6604 21.6132 18.536 21.8092 18.325C22.0052 18.114 22.1091 17.8336 22.098 17.5458C22.0904 16.2377 21.3757 15.036 20.23 14.4049C19.6865 14.1093 19.0822 13.943 18.464 13.9191C18.6273 13.5909 18.8642 13.3049 19.1563 13.0834C19.6387 12.6963 20.2381 12.4839 20.8567 12.481C21.3161 12.4852 21.7687 12.5931 22.1806 12.7968C22.2344 12.8319 22.2913 12.862 22.3506 12.8867L22.3992 12.9158C22.5416 12.9677 22.6921 12.994 22.8437 12.9935C23.2785 12.9948 23.6704 12.732 23.8344 12.3293C23.9983 11.9266 23.9014 11.4648 23.5895 11.162C23.991 10.892 24.4571 10.7335 24.9401 10.7029C25.081 10.7029 25.2146 10.6859 25.3409 10.6859C27.2842 10.6859 27.3377 11.9684 27.3377 12.3863V13.2097C27.3009 13.4867 27.1854 13.7472 27.0049 13.9604C26.6502 14.315 25.8899 14.3442 24.9328 14.3442C24.3338 14.3442 23.8482 14.8298 23.8482 15.4288C23.8482 16.0278 24.3338 16.5134 24.9328 16.5134C25.6785 16.5134 26.5433 16.5134 27.3352 16.2365V25.7636C26.3463 25.7155 25.3946 26.1457 24.7773 26.9199C24.4064 27.3894 24.4863 28.0708 24.9559 28.4417C25.4254 28.8127 26.1068 28.7327 26.4777 28.2632C26.6911 28.0145 27.0196 27.8964 27.3425 27.9523L27.3377 29.4267Z" fill="white"/>
<path d="M34.6203 46.7126H25.3895C24.9139 46.7126 24.5284 46.327 24.5284 45.8514C24.5284 45.3758 24.9139 44.9903 25.3895 44.9903H34.6203C35.0958 44.9903 35.4814 45.3758 35.4814 45.8514C35.4814 46.327 35.0958 46.7126 34.6203 46.7126Z" fill="white"/>
<path d="M34.6203 44.3344H25.3895C24.9139 44.3344 24.5284 43.9488 24.5284 43.4733C24.5284 42.9977 24.9139 42.6121 25.3895 42.6121H34.6203C35.0958 42.6121 35.4814 42.9977 35.4814 43.4733C35.4814 43.9488 35.0958 44.3344 34.6203 44.3344Z" fill="white"/>
<path d="M34.6203 49.0907H25.3895C24.9139 49.0907 24.5284 48.7051 24.5284 48.2295C24.5284 47.754 24.9139 47.3684 25.3895 47.3684H34.6203C35.0958 47.3684 35.4814 47.754 35.4814 48.2295C35.4814 48.7051 35.0958 49.0907 34.6203 49.0907Z" fill="white"/>
<path d="M32.7619 51.3814H27.2381C26.7625 51.3814 26.3769 50.9958 26.3769 50.5203C26.3769 50.0447 26.7625 49.6591 27.2381 49.6591H32.7619C33.2375 49.6591 33.6231 50.0447 33.6231 50.5203C33.6231 50.9958 33.2375 51.3814 32.7619 51.3814Z" fill="white"/>
<path d="M25.4745 41.9854C25.0001 41.9841 24.6159 41.5999 24.6146 41.1255C24.6146 37.1028 21.8624 35.8251 21.8332 35.8129C21.5525 35.6875 21.3599 35.4219 21.3282 35.116C21.2964 34.8102 21.4302 34.5106 21.6792 34.3302C21.9282 34.1498 22.2545 34.1159 22.5352 34.2413C22.6907 34.3117 26.3344 35.9976 26.3344 41.1255C26.3344 41.6004 25.9494 41.9854 25.4745 41.9854Z" fill="white"/>
<path d="M34.5255 41.9854C34.0506 41.9854 33.6656 41.6004 33.6656 41.1255C33.6656 35.9976 37.3093 34.3093 37.4648 34.2413C37.8981 34.0461 38.4076 34.2391 38.6028 34.6725C38.798 35.1058 38.605 35.6153 38.1717 35.8105C38.0478 35.8688 35.3854 37.1587 35.3854 41.1255C35.3854 41.6004 35.0004 41.9854 34.5255 41.9854Z" fill="white"/>
<path d="M32.5506 34.7126C32.5165 34.5688 32.3874 34.4679 32.2397 34.4697C31.8656 34.4697 31.5717 34.7903 31.336 35.4413C30.4744 35.6746 29.567 35.6796 28.7028 35.4559C28.4721 34.7879 28.1587 34.4599 27.7433 34.4599C27.5941 34.4552 27.4625 34.5571 27.43 34.7029C27.3987 35.0083 27.5015 35.3123 27.7117 35.5361C27.842 35.6763 27.9967 35.7916 28.1684 35.8761C28.3773 36.6365 28.6202 38.1814 28.6202 41.247C28.6346 41.4113 28.7723 41.5374 28.9372 41.5374C29.1022 41.5374 29.2398 41.4113 29.2542 41.247C29.2751 39.725 29.185 38.2036 28.9846 36.6948C28.9506 36.4858 28.9166 36.2891 28.8777 36.1118C29.2422 36.1792 29.6124 36.2109 29.983 36.2065C30.3726 36.2107 30.7616 36.1757 31.1441 36.102C30.7652 37.7539 30.7239 40.2316 30.7239 41.247C30.7383 41.4113 30.8759 41.5374 31.0409 41.5374C31.2059 41.5374 31.3435 41.4113 31.3579 41.247C31.3579 38.9757 31.5376 37.0203 31.8437 35.864C32.0175 35.7857 32.1749 35.6752 32.3077 35.5385C32.5109 35.3149 32.6004 35.0105 32.5506 34.7126Z" fill="white"/>
<path opacity="0.3" d="M30 57.9959C45.4886 57.9959 58.0445 45.44 58.0445 29.9514C58.0445 14.4628 45.4886 1.90686 30 1.90686C14.5114 1.90686 1.95547 14.4628 1.95547 29.9514C1.95547 45.44 14.5114 57.9959 30 57.9959Z" fill="url(#paint0_linear)"/>
<defs>
<linearGradient id="paint0_linear" x1="1.95547" y1="29.9514" x2="58.0445" y2="29.9514" gradientUnits="userSpaceOnUse">
<stop stop-color="white"/>
<stop offset="1" stop-color="white" stop-opacity="0"/>
</linearGradient>
</defs>
</svg>
