<svg width="60" height="60" viewBox="0 0 60 60" fill="none" xmlns="http://www.w3.org/2000/svg">
<path d="M30.0267 59.9028C46.5684 59.9028 59.9782 46.4931 59.9782 29.9514C59.9782 13.4097 46.5684 0 30.0267 0C13.485 0 0.0753174 13.4097 0.0753174 29.9514C0.0753174 46.4931 13.485 59.9028 30.0267 59.9028Z" fill="#473159"/>
<path d="M25.545 51.2308C25.2462 48.1433 24.2915 43.5279 22.0591 43.868C18.1943 43.1393 13.2389 47.0672 14.468 39.102C13.3603 39.102 12.8867 37.9895 13.8146 37.4016C12.8624 37.4016 12.6632 36.4688 13.3093 35.8227C13.3093 34.8874 9.44698 35.7498 11.3126 32.4801C12.0996 31.2656 13.2024 28.5935 13.2073 27.0559C13.4964 5.89796 39.928 3.14816 46.8753 18.119C46.4677 18.358 46.1105 18.674 45.8235 19.0494C42.636 12.915 35.8201 9.57713 29.0197 10.8204C22.2193 12.0636 17.0252 17.5971 16.2143 24.4625C15.4034 31.3279 19.1655 37.9192 25.4891 40.7125C26.6672 42.4129 27.3085 45.4227 27.6753 51.2453L25.545 51.2308Z" fill="white"/>
<path fill-rule="evenodd" clip-rule="evenodd" d="M35.0818 51.2308C35.2276 47.2664 34.8559 45.8332 37.6931 43.7733C39.1215 42.736 40.0543 42.3619 42.2939 41.2737C44.5336 40.1854 44.6697 39.2794 45.0875 37.3433C45.4249 35.6803 45.8762 34.0425 46.4381 32.4413C47.0138 30.804 46.9069 29.8275 46.9409 28.3822C46.9968 25.9846 47.2033 22.953 47.932 20.9296C48.9037 18.2575 46.2146 20.2834 45.4664 22.3336C45.0141 23.6347 44.6752 24.9725 44.4535 26.332C44.0844 27.3666 43.773 28.4208 43.5207 29.4899C42.8648 32.5773 41.0527 33.9717 39.2405 35.7547C38.1231 36.8599 37.5717 36.8939 38.6745 35.2688C39.8388 33.5809 40.7955 31.7589 41.5239 29.8421C42.6243 26.8931 40.9166 26.7741 39.5077 28.8875C38.5846 30.2721 37.2705 32.3879 36.481 33.1336C35.0065 34.5255 33.685 36.6146 31.9749 37.6591C30.7603 38.3879 30.2915 38.9927 29.8348 40.4551C28.7563 43.919 29.8834 47.7717 29.3782 51.2308H35.0818Z" fill="white"/>
<path opacity="0.3" d="M30.0267 57.9959C45.5153 57.9959 58.0713 45.44 58.0713 29.9514C58.0713 14.4628 45.5153 1.90686 30.0267 1.90686C14.5382 1.90686 1.9822 14.4628 1.9822 29.9514C1.9822 45.44 14.5382 57.9959 30.0267 57.9959Z" fill="url(#paint0_linear)"/>
<defs>
<linearGradient id="paint0_linear" x1="1.9822" y1="29.9514" x2="58.0713" y2="29.9514" gradientUnits="userSpaceOnUse">
<stop stop-color="white"/>
<stop offset="1" stop-color="white" stop-opacity="0"/>
</linearGradient>
</defs>
</svg>
