<svg width="60" height="60" viewBox="0 0 60 60" fill="none" xmlns="http://www.w3.org/2000/svg">
<path d="M29.8306 59.6613C46.3057 59.6613 59.6613 46.3057 59.6613 29.8306C59.6613 13.3556 46.3057 0 29.8306 0C13.3556 0 0 13.3556 0 29.8306C0 46.3057 13.3556 59.6613 29.8306 59.6613Z" fill="#473159"/>
<path opacity="0.3" d="M29.8307 57.7621C45.2568 57.7621 57.7621 45.2567 57.7621 29.8306C57.7621 14.4045 45.2568 1.89917 29.8307 1.89917C14.4045 1.89917 1.8992 14.4045 1.8992 29.8306C1.8992 45.2567 14.4045 57.7621 29.8307 57.7621Z" fill="url(#paint0_linear)"/>
<path d="M37.096 43.8871C36.9944 43.6451 36.8855 43.3742 36.7694 43.1105C36.7323 43.2718 36.6952 43.4331 36.6581 43.5943L36.5927 43.8605C36.6105 44.0218 36.629 44.1943 36.6484 44.3782C36.7788 44.1983 36.9289 44.0336 37.096 43.8871Z" fill="white"/>
<path d="M57.8952 28.967C46.6113 28.5557 39.6823 25.1976 45.8637 23.2379C39.6823 25.1976 43.1105 18.7549 51.3532 12.5323C47.7242 15.2783 44.3371 17.0928 42.0121 17.8065L41.5137 18.7452C43.4057 17.9734 45.8371 16.5678 48.421 14.6323C41.3565 19.9549 38.4194 25.4855 43.7177 23.8065C38.4194 25.4855 44.3589 28.3621 54.0266 28.7154C44.3492 28.3621 38.6202 30.8783 44.279 33.0702C43.1516 32.6323 42.3919 32.5331 41.9686 32.7121C42.0266 33.1379 42.0774 33.5734 42.1258 34.0234C42.1597 34.35 42.1839 34.6766 42.2105 34.9912L42.2274 35.2089C43.5145 37.4129 46.5823 40.7734 50.9371 44.3589C47.9274 41.8839 45.1863 40.0379 43.0403 38.9153C43.171 39.317 43.2823 39.7065 43.4056 40.0887C46.0669 41.2041 49.9379 43.6549 54.2927 47.2355C44.1315 38.8839 39.9145 31.4928 46.5194 34.0597C39.9169 31.4904 46.6113 28.5557 57.8952 28.967Z" fill="white"/>
<path d="M29.8814 40.8048C29.0661 40.8048 27.8637 42.2903 26.55 44.9177C26.7113 44.9709 26.8726 45.0201 27.0339 45.0653L27.3992 45.1669C28.2532 43.904 29.0153 43.1855 29.6153 43.0984C29.7193 42.4113 29.8137 41.7121 29.8718 41.0226L29.8814 40.8048Z" fill="white"/>
<path d="M25.546 11.1121C25.2384 9.38594 24.828 7.67967 24.3169 6.00243C24.7936 7.59885 25.359 9.16741 26.0105 10.7008C26.1282 10.6073 26.2492 10.5178 26.3734 10.4323C25.0817 7.88174 24.0288 5.21716 23.2282 2.4726C24.2927 6.01453 24.8903 9.21292 25.0572 11.6274C25.2105 11.4468 25.3737 11.2747 25.546 11.1121Z" fill="white"/>
<path d="M34.8048 11.5669C34.9306 11.7169 35.05 11.8718 35.1629 12.0315C36.0036 10.2267 36.7065 8.36091 37.2653 6.45C36.5838 8.6753 36.1068 10.9582 35.8403 13.2702C36.0486 13.7795 36.1893 14.3139 36.2589 14.8597C36.3117 15.2736 36.3239 15.6917 36.2952 16.1081L36.7645 15.4258C36.2202 13.2726 36.6919 8.52823 38.3395 3C37.275 6.56613 36 9.53952 34.8048 11.5669Z" fill="white"/>
<path d="M37.6282 49.4033L37.5121 49.2702C37.8895 50.9637 38.371 52.7952 38.9637 54.7549C38.1196 51.8747 37.0867 49.0533 35.8718 46.3089C35.8234 46.446 35.7742 46.5815 35.7242 46.7154C35.6742 46.8492 35.6169 46.9936 35.5524 47.1484C37.0669 49.9742 38.7629 54.1815 40.321 59.3686C39.3565 56.2173 38.5794 53.0117 37.9936 49.7686C37.8678 49.6524 37.746 49.5307 37.6282 49.4033Z" fill="white"/>
<path d="M24.2419 50.4653C23.8379 51.6097 23.4363 52.8387 23.0468 54.1451C23.4363 52.8387 23.7726 51.583 24.0677 50.3903L23.804 50.2742C23.2664 53.1019 22.58 55.8994 21.7476 58.6548C22.5455 55.9235 23.4904 53.2373 24.5782 50.608L24.2419 50.4653Z" fill="white"/>
<path d="M17.3202 18.1476C17.3831 18.1476 17.4484 18.1476 17.5137 18.1476C17.7134 18.1474 17.9124 18.171 18.1065 18.2178L18.3266 18.2734C16.7892 16.4987 15.0989 14.8626 13.275 13.3839C19.3428 18.375 24.5589 20.3057 23.9589 17.7581C23.9186 17.642 23.8815 17.5242 23.8476 17.4049C23.661 16.9456 23.4258 16.5076 23.146 16.0984C23.3253 16.3745 23.5199 16.6402 23.729 16.8944C23.6796 16.633 23.6465 16.3688 23.6299 16.1033C23.146 15.9073 22.5605 15.3145 21.8661 14.2549C25.5218 19.8194 18.6121 17.8839 10.3476 11.0855C13.4129 13.6065 15.8226 16.1153 17.3202 18.1476Z" fill="white"/>
<path d="M7.72017 45.479C17.7557 37.9016 25.2581 36.2516 21 42.4984C23.3347 39.0701 24.554 40.1685 24.5105 44.1072L24.6557 44.1677L24.721 44.1943L25.0355 44.3298L25.2121 44.4048C25.8895 38.9492 24.8734 36.6774 22.4081 40.2919C26.0565 34.9379 19.6282 36.3532 11.0371 42.8443C19.6379 36.3508 23.1919 30.2903 17.5694 32.0734C23.1944 30.2927 17.4508 27.3629 7.8363 27.0121C15.1621 27.2782 20.3274 25.9234 20.0299 24.3508L18.1355 23.6637C19.0573 25.5992 12.8855 27.3218 3.98227 26.9951C15.2032 27.404 21.9049 30.825 15.3411 32.9032C21.9049 30.8298 17.7557 37.9016 7.72017 45.479Z" fill="white"/>
<path d="M29.9589 21.0629C32.7426 21.0585 35.0638 18.9323 35.3119 16.1596C35.56 13.3869 33.6532 10.8824 30.9144 10.3838C28.1756 9.88524 25.5085 11.557 24.7635 14.2393C24.0186 16.9215 25.4415 19.7293 28.0452 20.7145C28.6568 20.9451 29.3052 21.0631 29.9589 21.0629Z" fill="white"/>
<path d="M43.3258 10.2968C42.9768 10.054 42.5456 9.95985 42.1272 10.0352C41.7088 10.1105 41.3375 10.3491 41.0952 10.6984C41.0952 10.6984 36.0919 18.3266 34.3742 20.3758C33.0944 21.9 31.8726 22.3258 30.0363 22.0694C29.129 21.9436 17.8815 19.1468 17.8815 19.1468C17.0941 18.9528 16.286 19.3779 15.9998 20.1366C15.7136 20.8953 16.0396 21.7482 16.7589 22.1226C16.8223 22.1557 16.8877 22.1848 16.9548 22.2097L29.1556 26.7C29.5694 27.8504 29.9056 29.0273 30.1621 30.2226C30.3622 31.3029 30.4859 32.3959 30.5323 33.4936C30.5758 34.2629 30.5637 35.0323 30.5565 35.8016C30.538 36.5907 30.6864 37.3747 30.9919 38.1024C30.9653 39.104 30.9145 40.1057 30.8274 41.1024C30.7355 42.196 30.5637 43.2798 30.3847 44.3637C30.1597 45.7307 29.8065 46.2581 29.7823 46.2992C29.3194 46.4275 28.8326 46.4441 28.3621 46.3476C27.8207 46.2712 27.2861 46.1531 26.7629 45.9944C26.3032 45.8589 25.8484 45.704 25.4008 45.5298C25.0452 45.3919 24.6992 45.2371 24.3484 45.0871C24.1862 45.009 24.0168 44.9467 23.8427 44.9008C22.8879 44.6997 21.9303 45.2308 21.5954 46.1474C21.2605 47.064 21.6501 48.0873 22.5097 48.5492C24.0649 49.4385 25.739 50.1017 27.4815 50.5186C28.4315 50.7471 29.4147 50.8036 30.3847 50.6855C31.3911 50.5564 32.3301 50.1097 33.0653 49.4105C33.2414 49.2401 33.4032 49.0556 33.5492 48.8589C33.6266 48.7307 33.7258 48.6169 33.8105 48.4815C33.9532 48.2613 34.0839 48.0363 34.2048 47.804C34.4451 47.34 34.6568 46.8617 34.8387 46.3718C35.2015 45.3882 35.5029 44.383 35.7411 43.3621C35.9024 42.6944 36.0476 42.0226 36.1766 41.3468C36.448 41.3349 36.7181 41.3025 36.9847 41.25C37.4732 42.2358 37.9108 43.246 38.296 44.2766C37.798 44.4703 37.3998 44.8576 37.1924 45.35C36.9849 45.8424 36.9859 46.3979 37.1952 46.8895C37.472 47.5752 37.8603 48.2104 38.3444 48.7694C38.8807 49.3795 39.5798 49.8242 40.3597 50.0516C40.7887 50.1744 41.2389 50.2049 41.6806 50.1411C42.591 49.9985 43.3086 49.2906 43.4637 48.3823C43.8048 46.3742 43.4782 44.3226 43.0185 42.3605C42.7766 41.2984 42.4645 40.246 42.1258 39.2153C41.9032 38.5355 41.6734 37.8557 41.4 37.1927C41.3468 37.0621 41.296 36.929 41.2403 36.7984C41.3027 36.3584 41.3141 35.9127 41.2742 35.4702C41.2379 35.025 41.2065 34.5823 41.1605 34.1371C41.0516 33.0895 40.9065 32.0419 40.7081 31.0065C40.3165 28.8434 39.7003 26.7271 38.8694 24.6919C38.6274 24.1403 38.3855 23.5984 38.1145 23.0686L43.8194 12.3847C44.2017 11.6678 43.9876 10.7782 43.321 10.3137L43.3258 10.2968Z" fill="white"/>
<defs>
<linearGradient id="paint0_linear" x1="1.8992" y1="29.8306" x2="57.7621" y2="29.8306" gradientUnits="userSpaceOnUse">
<stop stop-color="white"/>
<stop offset="1" stop-color="white" stop-opacity="0"/>
</linearGradient>
</defs>
</svg>
