<svg width="60" height="60" viewBox="0 0 60 60" fill="none" xmlns="http://www.w3.org/2000/svg">
<path d="M29.9395 59.7821C46.4479 59.7821 59.8305 46.3994 59.8305 29.891C59.8305 13.3827 46.4479 0 29.9395 0C13.4311 0 0.0484619 13.3827 0.0484619 29.891C0.0484619 46.3994 13.4311 59.7821 29.9395 59.7821Z" fill="#473159"/>
<path d="M41.668 18.0219C41.668 18.0219 29.5128 12.8195 21.9152 19.4401C14.3176 26.0607 15.8788 31.9274 16.097 34.9747C16.3152 38.022 17.6582 46.422 11.4909 47.6851C11.4909 47.6851 15.6534 45.0184 12.6061 35.348C9.55881 25.6777 13.4231 0.116378 45.0911 11.1055L41.668 18.0219Z" fill="white"/>
<path d="M47.2438 40.3202C45.1656 37.0869 43.4224 33.6501 42.0414 30.0632C41.8394 29.5309 41.5688 29.0273 41.2365 28.565C38.224 23.5964 31.7541 22.0107 26.7855 25.0231C21.817 28.0356 20.2312 34.5055 23.2437 39.4741C23.9952 41.782 24.2134 44.7226 22.6328 46.1335L31.5516 43.4669C31.5516 43.4669 36.7541 47.9275 42.7759 50.0826C42.7759 50.0826 40.6959 43.4669 41.3626 36.7784C41.3626 36.7784 34.1528 36.4802 36.6062 34.1117C39.0595 31.7432 42.5529 33.9638 43.222 35.5977C43.8911 37.2317 43.5202 39.7602 43.5202 39.7602L47.2438 40.3202Z" fill="white"/>
<path d="M30.885 22.4243C31.29 22.4241 31.6947 22.4476 32.0971 22.4946C32.2159 21.9855 33.2171 18.3128 37.4304 18.2425C37.4304 18.2425 19.0061 13.1879 17.3625 33.6292C17.3625 33.6292 17.7916 31.0546 20.897 30.1843C22.0616 25.619 26.1734 22.4244 30.885 22.4243Z" fill="white"/>
<path opacity="0.3" d="M29.9395 57.879C45.3968 57.879 57.9275 45.3483 57.9275 29.891C57.9275 14.4337 45.3968 1.90302 29.9395 1.90302C14.4822 1.90302 1.95151 14.4337 1.95151 29.891C1.95151 45.3483 14.4822 57.879 29.9395 57.879Z" fill="url(#paint0_linear)"/>
<defs>
<linearGradient id="paint0_linear" x1="1.95151" y1="29.891" x2="57.9275" y2="29.891" gradientUnits="userSpaceOnUse">
<stop stop-color="white"/>
<stop offset="1" stop-color="white" stop-opacity="0"/>
</linearGradient>
</defs>
</svg>
