<svg xmlns="http://www.w3.org/2000/svg" width="70" height="138" fill="none"><path d="M69.365 54.745c-.108-.188-.265-.345-.453-.452a1.22 1.22 0 0 0-.618-.162H40.061L53.106 1.616a1.27 1.27 0 0 0-.099-.927c-.149-.285-.401-.503-.705-.608-.274-.101-.574-.107-.851-.016a1.3 1.3 0 0 0-.679.515L.658 82.154a1.35 1.35 0 0 0-.158.633c0 .221.054.439.158.633.111.186.268.34.456.447a1.26 1.26 0 0 0 .615.167h28.232L16.955 136.55a1.31 1.31 0 0 0 .122.835c.132.257.344.463.605.586a1.07 1.07 0 0 0 .497 0c.206-.005.408-.059.588-.16a1.26 1.26 0 0 0 .445-.416l50.115-81.498c.107-.172.166-.369.173-.571s-.04-.403-.135-.581z" fill="url(#A)"/><defs><linearGradient id="A" x1="35" y1="69" x2="35" y2="138" gradientUnits="userSpaceOnUse"><stop stop-color="#ed1e79"/><stop offset="1" stop-color="#451287"/></linearGradient></defs></svg>