<svg xmlns="http://www.w3.org/2000/svg" xmlns:xlink="http://www.w3.org/1999/xlink" width="522" height="41" fill="none" xmlns:v="https://vecta.io/nano"><style><![CDATA[.B{fill:#fff}.C{fill-rule:evenodd}]]></style><path d="M251.285 20.143a14.15 14.15 0 0 1-14.143 14.143A14.15 14.15 0 0 1 223 20.143 14.15 14.15 0 0 1 237.142 6a14.15 14.15 0 0 1 14.143 14.143z" fill="#00a8f2"/><path d="M243.605 17.524c-.108 5.528-3.625 9.368-8.975 9.584-2.189.108-3.769-.609-5.239-1.436 1.578.252 3.659-.358 4.738-1.328-1.58-.108-2.549-.969-3.053-2.297.504.108.971 0 1.329 0-1.471-.467-2.442-1.328-2.549-3.231.359.252.863.36 1.328.36-1.076-.609-1.83-2.908-.969-4.344 1.58 1.688 3.518 3.123 6.678 3.375-.861-3.375 3.769-5.169 5.599-2.872.861-.108 1.472-.467 2.081-.719-.251.826-.716 1.328-1.328 1.795.612-.108 1.221-.252 1.688-.467-.108.611-.719 1.113-1.328 1.58z" class="B"/><g class="C"><path d="M292.432 20.215c0 6.747-5.468 12.215-12.215 12.215A12.22 12.22 0 0 1 268 20.215 12.22 12.22 0 0 1 280.217 8c6.747 0 12.215 5.468 12.215 12.215z" fill="#279a4d"/><g fill="#000"><path d="M281.171 16.064l-1.463 1.129c-.508-.765-1.143-1.208-2.003-1.208-.697 0-1.303.319-1.303 1.016 0 .605.461.86 1.223 1.208l1.194.523c1.651.732 2.591 1.575 2.591 3.069 0 1.956-1.59 3.146-3.672 3.146-1.812 0-3.274-.922-4.051-2.319l1.477-1.114c.57.795 1.318 1.525 2.574 1.525.921 0 1.494-.426 1.494-1.158 0-.683-.508-.922-1.335-1.303l-1.131-.511c-1.492-.683-2.541-1.542-2.541-3.017 0-1.814 1.509-2.975 3.48-2.975 1.669 0 2.845.845 3.466 1.988zm7.326 4.767c0-1.335-.904-2.177-2.035-2.177-.985 0-1.986.653-1.986 2.16 0 1.497.984 2.177 1.986 2.177 1.113 0 2.035-.825 2.035-2.16zm2.177-.017c0 2.369-1.589 4.133-3.814 4.133-.969 0-1.796-.349-2.354-.954v3.625h-2.145V16.89h1.973v.984c.538-.745 1.427-1.158 2.526-1.158 2.225 0 3.814 1.732 3.814 4.098zm2.619.017c0 1.241.842 2.128 2.035 2.128 1.159 0 2.033-.904 2.033-2.128 0-1.241-.874-2.162-2.033-2.162-1.193 0-2.035.922-2.035 2.162zm6.263-.017c0 2.339-1.908 4.118-4.245 4.118s-4.198-1.779-4.198-4.118c0-2.317 1.864-4.098 4.215-4.098 2.32 0 4.228 1.781 4.228 4.098zm5.925 3.944a5.91 5.91 0 0 1-1.479.192c-1.939 0-3.147-.939-3.147-2.957v-3.291h-1.238V16.89h1.238v-1.985h2.148v1.986h2.224v1.811h-2.224v3.099c0 .907.475 1.223 1.462 1.223.254 0 .603-.03 1.016-.062v1.796zm.762-.002h2.145v-7.867h-2.145v7.868zm2.446-10.725c0 .747-.617 1.318-1.365 1.318-.765 0-1.385-.57-1.385-1.318 0-.765.62-1.335 1.385-1.335.748 0 1.365.57 1.365 1.335zm3.546 1.763v1.094h1.731v1.814h-1.731v6.056h-2.148v-6.056h-1.111v-1.814h1.111v-1.283c0-2.02 1.208-2.96 3.037-2.96.493 0 .875.082 1.176.177v1.794l-.635-.045c-.954 0-1.43.316-1.43 1.223z"/><path d="M322.149 16.891l-3.767 8.55c-.715 1.622-1.651 2.369-3.131 2.369-.444 0-.969-.08-1.383-.192v-1.796l.922.062c.685 0 1.241-.172 1.639-1.064l.237-.523-3.02-7.407h2.275l1.921 5.165 2.053-5.164h2.254z"/></g><path d="M367.588 6.178a42.94 42.94 0 0 0-1.073.185L354.496 8.79h-.006c-.314.067-.562.18-.747.337-.23.191-.354.466-.404.781a2.54 2.54 0 0 0-.028.404v15.041c0 .354-.028.691-.264.983s-.534.376-.876.449l-.787.157-2.224.562c-.562.219-.977.494-1.314.842-.663.691-.932 1.634-.837 2.516a3.12 3.12 0 0 0 1 1.999 3 3 0 0 0 1.46.747c.601.118 1.236.079 2.168-.112.494-.101.96-.258 1.404-.517.438-.258.814-.601 1.107-1.022s.483-.887.589-1.387c.107-.511.135-.977.135-1.488V16.041c0-.696.197-.882.764-1.022l10.458-2.106c.651-.123.954.062.954.741v8.908c0 .354-.005.708-.241 1s-.534.376-.876.449l-.786.157-2.225.562c-.561.219-.977.494-1.314.843-.663.691-.955 1.634-.859 2.516.078.753.438 1.471 1.022 1.999a3.04 3.04 0 0 0 1.46.741c.601.118 1.236.079 2.168-.112.494-.101.961-.247 1.404-.511a3.5 3.5 0 0 0 1.107-1.022c.292-.421.483-.887.59-1.387.106-.511.112-.977.112-1.488V7.24c-.006-.691-.371-1.118-1.022-1.061z" class="B"/></g><path d="M337.838 18.975c-.118 0-.177.059-.177.177l-.296 2.367.296 2.367c0 .118.059.178.177.178.06 0 .178-.059.178-.178l.355-2.367-.355-2.367c-.059-.118-.118-.177-.178-.177zm1.776-1.302c0-.118-.06-.178-.178-.178s-.177.059-.177.178l-.415 3.846.415 3.787c0 .118.059.177.177.177s.178-.059.178-.177l.473-3.787-.473-3.846zm6.627-3.55c-.178 0-.296.118-.296.296l-.355 7.1.355 4.615c0 .178.177.296.296.296.177 0 .296-.118.355-.296l.355-4.615-.355-7.1c0-.178-.178-.296-.355-.296zm-3.432 2.426c-.119 0-.237.118-.237.237l-.355 4.734.355 4.556c0 .118.118.237.237.237s.236-.118.236-.237l.415-4.556-.415-4.734c0-.118-.118-.237-.236-.237zm6.923 9.881c.236 0 .414-.177.414-.414l.355-4.497-.296-9.467c0-.237-.177-.414-.414-.414s-.414.178-.414.414l-.296 9.467.296 4.497c0 .237.177.414.355.414zm7.159.059a.53.53 0 0 0 .533-.532l.237-4.379-.237-10.947a.53.53 0 1 0-1.065 0l-.237 10.887.178 4.379c.059.296.295.592.591.592zm-3.609-.059c.237 0 .473-.177.473-.473l.296-4.438-.296-9.526a.51.51 0 0 0-.473-.473c-.237 0-.473.178-.473.473l-.237 9.526.237 4.438c0 .296.236.473.473.473zm-8.757-.059c.177 0 .296-.118.296-.296l.414-4.615-.414-4.379c0-.178-.119-.296-.296-.296s-.296.118-.296.296l-.355 4.379.355 4.615c0 .177.118.296.296.296zm-3.432-.237c.118 0 .177-.059.237-.237l.473-4.438-.473-4.556c0-.118-.119-.237-.237-.237s-.178.059-.237.237l-.414 4.556.414 4.438c.059.178.118.237.237.237zm14.023-14.26a.53.53 0 0 0-.532.533l-.237 9.171.237 4.438a.53.53 0 0 0 .532.533c.296 0 .474-.237.533-.533l.236-4.438-.236-9.171c-.059-.355-.237-.533-.533-.533zm-7.1 14.556c.177 0 .355-.177.355-.355l.355-4.556-.355-8.698c0-.178-.178-.355-.355-.355s-.355.178-.355.355l-.296 8.698.296 4.556a.31.31 0 0 0 .355.355zm3.964-.414l.296-4.497-.296-9.763c0-.237-.177-.414-.414-.414s-.414.178-.414.414l-.296 9.763.296 4.497c0 .237.177.414.414.414.177 0 .355-.177.414-.414zm23.077-10.118c-.71 0-1.42.118-2.071.414-.415-4.793-4.438-8.521-9.29-8.521a9.01 9.01 0 0 0-3.373.651c-.414.178-.532.296-.532.651v16.804c0 .296.236.592.591.651h14.675a5.28 5.28 0 0 0 5.266-5.266c0-3.018-2.367-5.385-5.266-5.385zm-16.331-6.864c-.296 0-.592.237-.592.592l-.237 11.893.237 4.319c0 .296.237.592.592.592.295 0 .591-.237.591-.592l.237-4.319-.237-11.893a.64.64 0 0 0-.591-.592zm-17.101 20.769c-.651-.118-.769-.237-.769-.473 0-.177.118-.355.592-.355a1.06 1.06 0 0 1 .887.414l.592-.533c-.355-.414-.828-.592-1.42-.592-.769 0-1.42.414-1.42 1.183s.532 1.006 1.243 1.183c.769.178.887.296.887.533 0 .296-.237.414-.71.414a1.25 1.25 0 0 1-1.006-.473l-.592.532c.296.414.888.71 1.539.71 1.065 0 1.538-.533 1.538-1.243-.059-.888-.769-1.124-1.361-1.302zm3.61-1.538c-1.065 0-1.716.828-1.716 2.012s.651 2.012 1.716 2.012 1.716-.828 1.716-2.012-.651-2.012-1.716-2.012zm0 3.254c-.651 0-.888-.533-.888-1.243s.237-1.243.888-1.243.887.533.887 1.243-.236 1.243-.887 1.243zm4.911-1.006c0 .651-.296 1.006-.828 1.006-.474 0-.829-.414-.829-1.006v-2.189h-.769v2.189c0 1.124.651 1.775 1.598 1.775 1.005 0 1.597-.651 1.597-1.775v-2.189h-.769v2.189zm4.201-.533v.888c-.059-.118-.178-.296-.296-.473l-1.42-2.071h-.769v3.964h.769v-1.716-.888c.059.118.178.296.296.473l1.42 2.13h.71v-3.964h-.769l.059 1.657zm3.018-1.657h-1.243v3.964h1.184c1.005 0 2.011-.592 2.011-1.953 0-1.479-.828-2.012-1.952-2.012zm-.059 3.136h-.415v-2.426h.415c.828 0 1.183.414 1.183 1.183s-.355 1.243-1.183 1.243zm4.437-2.426c.355 0 .592.178.71.414l.71-.355c-.236-.532-.71-.888-1.42-.888-1.006 0-1.775.828-1.775 2.012 0 1.243.71 2.012 1.716 2.012.71 0 1.184-.355 1.479-.888l-.651-.414c-.236.355-.414.473-.769.473-.591 0-.946-.532-.946-1.242 0-.592.355-1.124.946-1.124zm2.959-.71h-.769v3.964h2.366v-.769h-1.597v-3.195zm3.609-.059c-1.065 0-1.716.828-1.716 2.012s.651 2.012 1.716 2.012 1.716-.828 1.716-2.012-.592-2.012-1.716-2.012zm0 3.254c-.651 0-.887-.533-.887-1.243s.236-1.243.887-1.243.888.533.888 1.243c.059.71-.237 1.243-.888 1.243zm4.911-1.006c0 .651-.296 1.006-.828 1.006-.473 0-.828-.414-.828-1.006v-2.189h-.77v2.189c0 1.124.651 1.775 1.598 1.775 1.006 0 1.598-.651 1.598-1.775v-2.189h-.77v2.189zm3.018-2.189h-1.243v3.964h1.184c1.006 0 2.012-.592 2.012-1.953 0-1.479-.829-2.012-1.953-2.012zm-.059 3.195h-.414v-2.426h.414c.828 0 1.183.414 1.183 1.183 0 .71-.355 1.243-1.183 1.243z" fill="url(#J)"/><path d="M426.615 8l2.224 2.139-2.238 2.241-2.093-2.107-2.262 2.25 2.096 2.084-2.212 2.201-2.125-2.128 2.098-2.09-2.238-2.233-2.084 2.095-2.326-2.326L417.664 8h.082l2.192 2.052L422.098 8h.081l2.227 2.163 2.066-2.058c.027-.029.038-.07.059-.105h.084zm-7.459 22.753c.577 0 1.138.055 1.684-.009 1.111-.134 1.914-1.019 2.005-2.128.102-1.252-.476-2.297-1.568-2.595-.668-.184-1.389-.175-2.121-.254v4.985zm-1.825 1.675v-8.166l.284-.029 3.546.085c2.25.233 3.572 1.707 3.627 3.89.053 2.116-1.29 3.736-3.426 4.136-.091.017-.178.055-.266.085h-3.765zm16.677-3.112l-1.191-3.114-1.197 3.114h2.388zm-5.554 3.111l3.175-7.632c.181-.441.391-.636.876-.575.435.055.977-.102 1.293.105.3.198.367.75.531 1.15l2.705 6.561c.053.125.079.26.123.391h-2.093l-.493-1.445c-.029-.076-.187-.149-.286-.149a125.38 125.38 0 0 0-2.954 0c-.096 0-.251.076-.28.155l-.505 1.439h-2.092zM397 24.229h6.666v1.602h-2.317l-.038.339v6.015c0 .082.026.16.041.245h-1.927v-6.611H397v-1.591zm45.092 8.199l.038-.496.003-7.148v-.525h1.877v6.578h3.266v1.591h-5.184zm-32.878 0l.011-7.641v-.528h1.915v8.169h-1.926z" fill="#000" class="C"/><mask id="A" mask-type="alpha" maskUnits="userSpaceOnUse" x="472" y="21" width="4" height="3"><path d="M472.958 21.569h-.002v1.444h2.47v-1.444h-2.468z" class="B"/></mask><g mask="url(#A)" class="C"><path d="M472.958 21.569h-.002v1.444h2.47v-1.444h-2.468z" fill="url(#K)"/></g><mask id="B" mask-type="alpha" maskUnits="userSpaceOnUse" x="464" y="23" width="3" height="3"><path d="M464 23.577h2.472v1.444H464v-1.444z" class="B"/></mask><g mask="url(#B)" class="C"><path d="M464 25.021h2.472v-1.444H464v1.444z" fill="url(#L)"/></g><mask id="C" mask-type="alpha" maskUnits="userSpaceOnUse" x="466" y="23" width="4" height="3"><path d="M466.988 23.578h2.47v1.442h-2.47v-1.442z" class="B"/></mask><g mask="url(#C)" class="C"><path d="M466.988 25.02h2.47v-1.442h-2.47v1.442z" fill="url(#M)"/></g><mask id="D" mask-type="alpha" maskUnits="userSpaceOnUse" x="469" y="23" width="4" height="3"><path d="M469.973 23.578h2.47v1.442h-2.47v-1.442z" class="B"/></mask><g mask="url(#D)" class="C"><path d="M469.973 25.02h2.47v-1.442h-2.47v1.442z" fill="url(#N)"/></g><mask id="E" mask-type="alpha" maskUnits="userSpaceOnUse" x="472" y="23" width="4" height="3"><path d="M472.956 23.578h2.47v1.442h-2.47v-1.442z" class="B"/></mask><g mask="url(#E)" class="C"><path d="M472.956 25.02h2.47v-1.442h-2.47v1.442z" fill="url(#O)"/></g><mask id="F" mask-type="alpha" maskUnits="userSpaceOnUse" x="469" y="21" width="4" height="3"><path d="M469.979 21.569l-.006.002v1.442h2.47v-1.444h-2.464z" class="B"/></mask><g mask="url(#F)" class="C"><path d="M469.979 21.569l-.006.002v1.442h2.47v-1.444h-2.464z" fill="url(#P)"/></g><mask id="G" mask-type="alpha" maskUnits="userSpaceOnUse" x="466" y="21" width="4" height="3"><path d="M466.988 21.569v1.442l.002.002h2.466l.002-.002v-1.44l-.004-.002h-2.466z" class="B"/></mask><g mask="url(#G)" class="C"><path d="M466.988 21.569v1.442l.002.002h2.466l.002-.002v-1.44l-.004-.002h-2.466z" fill="url(#Q)"/></g><mask id="H" mask-type="alpha" maskUnits="userSpaceOnUse" x="466" y="19" width="4" height="3"><path d="M466.988 19.563h2.47v1.44h-2.47v-1.44z" class="B"/></mask><g mask="url(#H)" class="C"><path d="M466.988 21.003h2.47v-1.44h-2.47v1.44z" fill="url(#R)"/></g><g fill="#000" class="C"><path d="M497.062 19.025c.895 0 1.512.489 1.512 1.246l-.015.062h-3.2c.191-.819.884-1.308 1.703-1.308zm.267 4.426c-1.073 0-1.952-.644-1.97-1.779h5.074a4.12 4.12 0 0 0 .101-.913c0-2.049-1.403-3.355-3.466-3.355-2.205 0-3.717 1.717-3.717 3.844 0 2.361 1.638 3.937 3.952 3.937 1.75 0 2.963-.882 3.484-2.332l-1.724-.673c-.238.849-.822 1.271-1.734 1.271zm10.177-4.236v-1.656h-6.508v1.734h3.97l-4.097 4.003v1.73h6.744v-1.81h-4.223l4.114-4.001zm12.151.756a2.74 2.74 0 0 1-.025.374h1.911a3.73 3.73 0 0 0 .066-.738c0-1.277-.802-2.205-2.143-2.205-.864 0-1.479.426-1.794 1.119v-.961h-2.018v7.464h2.018v-4.801c0-.757.409-1.181 1.039-1.181.567 0 .946.378.946.93zm-38.213 3.501c-1.119 0-1.989-.817-1.989-2.141 0-1.339.866-2.189 1.989-2.189 1.086 0 1.985.851 1.985 2.189 0 1.318-.899 2.141-1.985 2.141zm1.908-4.794c-.458-.771-1.308-1.277-2.361-1.277-2.052 0-3.548 1.575-3.548 3.924 0 2.316 1.483 3.861 3.594 3.861 1.055 0 1.906-.457 2.394-1.23v1.07h1.937V14h-2.016v4.679z"/><path d="M511.425 19.025c.895 0 1.512.489 1.512 1.246l-.016.062h-3.199c.191-.819.883-1.308 1.703-1.308zm.268 4.426c-1.072 0-1.954-.644-1.971-1.779h5.076a4.24 4.24 0 0 0 .099-.913c0-2.049-1.403-3.355-3.466-3.355-2.206 0-3.718 1.717-3.718 3.844 0 2.361 1.639 3.937 3.955 3.937 1.748 0 2.96-.882 3.482-2.332l-1.726-.673c-.236.849-.818 1.271-1.731 1.271zm-22.078-4.426c.895 0 1.512.489 1.512 1.246l-.013.062h-3.202c.191-.819.884-1.308 1.703-1.308zm.268 4.426c-1.072 0-1.954-.644-1.971-1.779h5.076c.066-.3.097-.605.095-.913 0-2.049-1.403-3.355-3.466-3.355-2.205 0-3.717 1.717-3.717 3.844 0 2.361 1.638 3.937 3.952 3.937 1.75 0 2.964-.882 3.484-2.332l-1.72-.673c-.238.849-.82 1.271-1.733 1.271z"/></g><path d="M206.286 20.143a14.15 14.15 0 0 1-14.143 14.143A14.15 14.15 0 0 1 178 20.143C178 12.355 184.318 6 192.143 6c7.789 0 14.143 6.355 14.143 14.143z" fill="#0076f4"/><path d="M195.266 13.791h1.795v-3.016a24.88 24.88 0 0 0-2.621-.144c-2.62 0-4.379 1.58-4.379 4.452v2.478h-2.943v3.373h2.943v8.652h3.518v-8.652h2.943l.431-3.373h-3.374v-2.155c0-.932.251-1.615 1.687-1.615z" class="B"/><path d="M161.286 20.143a14.15 14.15 0 0 1-14.143 14.143A14.15 14.15 0 0 1 133 20.143C133 12.355 139.318 6 147.143 6s14.143 6.355 14.143 14.143z" fill="#fdf700"/><path d="M139.821 23.841c.502-.071.969-.252 1.399-.538.36-.215.682-.504.97-.861.502-.575.753-1.149.789-1.221v-.037c.144-.252.144-.467.072-.646-.143-.359-.61-.504-.969-.611l-.072-.035c-.072 0-.108-.037-.143-.073-.252-.108-.395-.179-.503-.286-.144-.144-.179-.252-.144-.36s.108-.215.252-.286c.179-.108.395-.144.538-.073.467.215.826.288 1.077.144.072-.037.108-.108.108-.179 0-.108-.036-.215-.036-.359v-.037c-.072-1.005-.144-2.26.179-2.979.252-.502.539-.932.898-1.292.323-.286.646-.538 1.077-.682a4.13 4.13 0 0 1 1.687-.359h.287a4.13 4.13 0 0 1 1.687.359c.395.181.754.396 1.077.682.359.359.682.753.897 1.292.323.719.252 1.974.18 2.945v.071c0 .071-.036.144-.036.215v.108c0 .071.036.144.108.179s.179.073.287.073h.035c.216 0 .431-.073.718-.181.108-.035.18-.035.252-.035.107 0 .179.035.287.071.215.071.359.252.359.394 0 .073-.036.144-.144.252s-.287.215-.538.323c-.036.037-.108.037-.144.037l-.072.037c-.323.108-.789.25-.969.609-.071.179-.071.396.072.682v.037c.179.394 1.149 2.297 3.159 2.62.072.037.144.071.144.179v.073c-.072.142-.18.25-.431.358-.323.144-.79.288-1.436.359-.072.037-.108.071-.144.108-.036.071-.071.179-.107.36l-.036.108c-.036.071-.036.179-.072.252-.036.108-.108.142-.215.142-.072 0-.144 0-.323-.035-.216-.037-.503-.108-.826-.108-.215 0-.395 0-.61.071-.395.071-.79.323-1.185.575-.538.36-1.113.79-2.01.79h-.108-.036-.036c-.897 0-1.471-.431-2.045-.79-.36-.252-.718-.503-1.149-.575-.18-.037-.395-.071-.61-.071-.359 0-.611.071-.826.108h-.036c-.108.035-.215.035-.323.035s-.18-.035-.251-.142l-.144-.323-.036-.073-.107-.36c-.036-.071-.072-.108-.144-.108a9.82 9.82 0 0 1-1.472-.358c-.215-.108-.359-.215-.431-.323-.035-.037-.035-.073-.035-.073v-.071c.251-.037.287-.071.359-.108z" stroke="#201712" stroke-width=".254" class="B"/><path d="M101.963 33.927c7.712 0 13.964-6.253 13.964-13.964S109.675 6 101.963 6 88 12.251 88 19.962s6.252 13.964 13.963 13.964z" fill="url(#S)"/><g class="B"><path d="M98.339 11.994h7.215c2.477 0 4.451 1.976 4.451 4.417v7.143c0 2.405-2.01 4.379-4.451 4.379h-7.215c-2.441-.035-4.451-1.974-4.451-4.415v-7.143c0-2.405 2.01-4.381 4.451-4.381zm7.215 14.539c1.651 0 3.015-1.328 3.015-2.979V16.41c0-1.653-1.364-2.981-3.015-2.981h-7.215c-1.651 0-3.015 1.328-3.015 2.981v7.143c0 1.651 1.364 2.979 3.015 2.979h7.215zm-7.754-6.57c0-2.26 1.867-4.092 4.164-4.092s4.128 1.832 4.164 4.092c0 2.262-1.867 4.092-4.164 4.092s-4.164-1.83-4.164-4.092zm1.436.001c0 1.472 1.221 2.693 2.728 2.693s2.728-1.221 2.728-2.693-1.221-2.691-2.728-2.691-2.728 1.221-2.728 2.691z" class="C"/><path d="M106.271 14.65c-.287 0-.538.108-.754.288-.179.179-.323.467-.323.717 0 .288.108.538.323.719.18.179.467.286.754.286s.538-.108.754-.286c.179-.181.323-.467.323-.719 0-.286-.108-.538-.323-.717s-.467-.288-.754-.288z"/></g><mask id="I" mask-type="alpha" maskUnits="userSpaceOnUse" x="44" y="7" width="28" height="28"><circle cx="57.742" cy="20.742" r="13.742" fill="#c4c4c4"/></mask><g mask="url(#I)"><path d="M71.483 7H44v27.483h27.483V7z" fill="url(#T)"/><path d="M65.676 15.09l-2.46 12.385s-.339.848-1.272.466l-5.683-4.369-2.078-.975-3.478-1.187s-.551-.17-.594-.594.594-.636.594-.636l13.826-5.386s1.145-.509 1.145.297z" class="B"/><path d="M55.835 27.347s-.17 0-.382-.679l-1.272-4.072 8.313-5.302s.467-.297.467 0c0 0 .085.042-.17.297s-6.532 5.895-6.532 5.895" fill="#cadfec"/><path d="M58.465 25.228l-2.248 2.036s-.17.127-.382.042l.424-3.775" fill="#aacbe1"/></g><g class="C"><path d="M6.069 31.079l.515.286c2.119 1.318 4.581 2.119 7.157 2.119 7.5 0 13.742-6.241 13.742-13.856S21.242 6 13.684 6 0 12.069 0 19.627c0 2.634.744 5.211 2.118 7.387l.344.515-1.316 4.81 4.924-1.26z" fill="#00a655"/><path d="M9.275 11.954l-1.088-.058c-.344 0-.687.115-.916.344-.515.458-1.374 1.318-1.603 2.463-.401 1.717.229 3.779 1.718 5.84s4.351 5.383 9.39 6.814c1.604.458 2.863.171 3.894-.457.802-.515 1.317-1.318 1.489-2.177l.172-.801c.057-.229-.058-.515-.287-.63l-3.607-1.66c-.229-.115-.515-.058-.688.171l-1.431 1.833c-.115.114-.287.171-.458.114-.973-.343-4.237-1.717-6.012-5.152-.057-.172-.057-.344.058-.458l1.374-1.546c.115-.172.171-.401.115-.573l-1.661-3.721c-.057-.171-.228-.344-.457-.344z" fill="#fefefe"/></g><defs><linearGradient id="J" x1="360.313" y1="7.412" x2="357.5" y2="34.029" xlink:href="#U"><stop stop-color="#ff9d33"/><stop offset="1" stop-color="#ff4a2c"/></linearGradient><linearGradient id="K" x1="472.917" y1="22.59" x2="474.926" y2="21.211" xlink:href="#U"><stop stop-color="#243f91"/><stop offset="1" stop-color="#0083a8"/></linearGradient><linearGradient id="L" x1="464.001" y1="24.3" x2="466.472" y2="24.3" xlink:href="#U"><stop stop-color="#f09c14"/><stop offset="1" stop-color="#ed891c"/></linearGradient><linearGradient id="M" x1="466.987" y1="24.299" x2="469.457" y2="24.299" xlink:href="#U"><stop stop-color="#ed891c"/><stop offset="1" stop-color="#df345d"/></linearGradient><linearGradient id="N" x1="469.973" y1="24.299" x2="472.443" y2="24.299" xlink:href="#U"><stop stop-color="#c32177"/><stop offset="1" stop-color="#46368c"/></linearGradient><linearGradient id="O" x1="472.955" y1="24.299" x2="475.426" y2="24.299" xlink:href="#U"><stop stop-color="#243f91"/><stop offset="1" stop-color="#006bac"/></linearGradient><linearGradient id="P" x1="469.876" y1="22.471" x2="472.304" y2="21.514" xlink:href="#U"><stop stop-color="#c32177"/><stop offset="1" stop-color="#333b90"/></linearGradient><linearGradient id="Q" x1="466.899" y1="22.069" x2="469.207" y2="23.201" xlink:href="#U"><stop stop-color="#f7c10d"/><stop offset="1" stop-color="#df345d"/></linearGradient><linearGradient id="R" x1="467.196" y1="19.848" x2="468.423" y2="21.38" xlink:href="#U"><stop stop-color="#f9c60b"/><stop offset="1" stop-color="#e8703d"/></linearGradient><radialGradient id="S" cx="0" cy="0" r="1" gradientTransform="translate(96.1048 33.8727) scale(28.1841 28.1837)" xlink:href="#U"><stop stop-color="#f9d173"/><stop offset=".246" stop-color="#ec9f55"/><stop offset=".379" stop-color="#ea5c3c"/><stop offset=".7" stop-color="#bc3082"/><stop offset=".972" stop-color="#6068ab"/><stop offset=".985" stop-color="#5c6bad"/></radialGradient><linearGradient id="T" x1="57.75" y1="7.013" x2="57.75" y2="34.404" xlink:href="#U"><stop stop-color="#00bae7"/><stop offset="1" stop-color="#00a3dc"/></linearGradient><linearGradient id="U" gradientUnits="userSpaceOnUse"/></defs></svg>