<svg xmlns="http://www.w3.org/2000/svg" xmlns:xlink="http://www.w3.org/1999/xlink" width="254" height="74" fill="none" xmlns:v="https://vecta.io/nano"><style><![CDATA[.B{fill:#fff}.C{fill-rule:evenodd}]]></style><path d="M253.8 14.307a14.15 14.15 0 0 1-14.143 14.143 14.15 14.15 0 0 1-14.142-14.143A14.15 14.15 0 0 1 239.657.164 14.15 14.15 0 0 1 253.8 14.307z" fill="#00a8f2"/><path d="M246.12 11.688c-.108 5.528-3.626 9.368-8.975 9.584-2.189.108-3.769-.609-5.24-1.436 1.578.252 3.66-.358 4.738-1.328-1.58-.108-2.548-.969-3.052-2.297.504.108.971 0 1.328 0-1.47-.467-2.441-1.328-2.548-3.231.359.252.863.359 1.328.359-1.077-.609-1.83-2.908-.969-4.344 1.58 1.688 3.517 3.123 6.677 3.375-.861-3.375 3.77-5.169 5.6-2.872.861-.108 1.472-.467 2.081-.719-.252.827-.717 1.328-1.328 1.795.611-.108 1.221-.252 1.688-.467-.108.611-.719 1.113-1.328 1.58z" class="B"/><g class="C"><path d="M24.432 53.215c0 6.747-5.468 12.215-12.215 12.215A12.22 12.22 0 0 1 0 53.215 12.22 12.22 0 0 1 12.217 41c6.746 0 12.215 5.468 12.215 12.215z" fill="#279a4d"/><g fill="#000"><path d="M13.171 49.065l-1.462 1.129c-.508-.765-1.143-1.208-2.003-1.208-.698 0-1.303.319-1.303 1.017 0 .605.461.859 1.223 1.208l1.193.523c1.652.733 2.591 1.575 2.591 3.069 0 1.956-1.59 3.147-3.672 3.147-1.811 0-3.274-.922-4.051-2.319l1.477-1.114c.571.795 1.318 1.525 2.574 1.525.922 0 1.495-.426 1.495-1.158 0-.683-.508-.922-1.335-1.303l-1.131-.511c-1.492-.683-2.541-1.542-2.541-3.017 0-1.814 1.51-2.975 3.48-2.975 1.669 0 2.845.844 3.465 1.988zm7.326 4.766c0-1.335-.904-2.177-2.035-2.177-.984 0-1.986.653-1.986 2.16 0 1.497.984 2.177 1.986 2.177 1.114 0 2.035-.825 2.035-2.16zm2.177-.017c0 2.369-1.589 4.133-3.814 4.133-.969 0-1.796-.349-2.354-.954v3.625h-2.145V49.89h1.973v.984c.538-.745 1.428-1.159 2.526-1.159 2.225 0 3.814 1.732 3.814 4.098zm2.619.017c0 1.241.842 2.128 2.035 2.128 1.159 0 2.033-.904 2.033-2.128 0-1.241-.874-2.162-2.033-2.162-1.193 0-2.035.922-2.035 2.162zm6.263-.017c0 2.339-1.908 4.118-4.245 4.118s-4.198-1.779-4.198-4.118c0-2.317 1.864-4.098 4.215-4.098 2.319 0 4.228 1.781 4.228 4.098zm5.926 3.944a5.92 5.92 0 0 1-1.48.192c-1.938 0-3.147-.939-3.147-2.957v-3.291h-1.238V49.89h1.238v-1.986h2.148v1.986h2.225v1.811h-2.225V54.8c0 .907.476 1.223 1.462 1.223.254 0 .603-.03 1.016-.062v1.796zm.761-.002h2.145v-7.867h-2.145v7.868zm2.447-10.725c0 .747-.618 1.318-1.365 1.318-.765 0-1.385-.57-1.385-1.318 0-.765.62-1.335 1.385-1.335.747 0 1.365.571 1.365 1.335zm3.545 1.763v1.094h1.731v1.814h-1.731v6.056h-2.147v-6.056h-1.111v-1.814h1.111v-1.283c0-2.02 1.208-2.96 3.037-2.96a3.83 3.83 0 0 1 1.176.177v1.794l-.635-.045c-.954 0-1.43.316-1.43 1.223z"/><path d="M54.149 49.891l-3.767 8.55c-.715 1.622-1.652 2.369-3.132 2.369-.444 0-.969-.08-1.383-.192v-1.796l.922.062c.685 0 1.241-.172 1.639-1.064l.237-.523-3.019-7.407h2.275l1.921 5.164 2.053-5.164h2.255z"/></g><path d="M95.588 39.178c-.096.011-.966.163-1.073.185L82.496 41.79h-.006c-.314.067-.562.18-.747.337-.23.191-.354.466-.404.781-.011.067-.028.202-.028.404v15.041c0 .354-.028.691-.264.983s-.534.376-.876.449l-.786.157-2.224.562c-.562.219-.977.494-1.314.842-.663.691-.932 1.634-.837 2.516.079.753.416 1.471 1 1.999a3 3 0 0 0 1.46.747c.601.118 1.236.079 2.168-.112.494-.101.96-.258 1.404-.517a3.5 3.5 0 0 0 1.106-1.022c.292-.421.483-.887.59-1.387.107-.511.135-.977.135-1.488V49.041c0-.696.197-.882.764-1.022l10.458-2.106c.651-.123.955.062.955.741v8.908c0 .354-.006.708-.242 1s-.534.376-.876.449l-.786.157-2.224.562c-.562.219-.977.494-1.314.842a3.17 3.17 0 0 0-.859 2.516c.079.753.438 1.471 1.022 1.999a3.04 3.04 0 0 0 1.46.741c.601.118 1.236.079 2.168-.112.494-.101.96-.247 1.404-.511a3.5 3.5 0 0 0 1.106-1.022 3.8 3.8 0 0 0 .59-1.387c.107-.511.112-.977.112-1.488V40.24c-.006-.691-.371-1.118-1.022-1.062z" class="B"/></g><path d="M65.839 51.975c-.118 0-.177.059-.177.178l-.296 2.367.296 2.367c0 .118.059.178.177.178.059 0 .178-.059.178-.178l.355-2.367-.355-2.367c-.059-.118-.118-.178-.178-.178zm1.775-1.302c0-.118-.059-.178-.178-.178s-.177.059-.177.178l-.414 3.846.414 3.787c0 .118.059.178.177.178s.178-.059.178-.178l.473-3.787-.473-3.846zm6.627-3.55c-.178 0-.296.118-.296.296l-.355 7.1.355 4.615c0 .178.177.296.296.296.177 0 .296-.118.355-.296l.355-4.615-.355-7.1c0-.178-.177-.296-.355-.296zm-3.432 2.426c-.118 0-.237.118-.237.237l-.355 4.734.355 4.556c0 .118.118.237.237.237s.237-.118.237-.237l.414-4.556-.414-4.734c0-.118-.118-.237-.237-.237zm6.923 9.881c.237 0 .414-.177.414-.414l.355-4.497-.296-9.467c0-.237-.177-.414-.414-.414s-.414.178-.414.414l-.296 9.467.296 4.497c0 .237.177.414.355.414zm7.16.059a.53.53 0 0 0 .532-.533l.237-4.379-.237-10.946a.53.53 0 1 0-1.065 0l-.237 10.887.177 4.379c.059.296.296.592.592.592zm-3.609-.059c.237 0 .473-.177.473-.473l.296-4.438-.296-9.526a.51.51 0 0 0-.473-.473c-.237 0-.473.178-.473.473l-.237 9.526.237 4.438c0 .296.237.473.473.473zm-8.757-.059c.178 0 .296-.118.296-.296l.414-4.615-.414-4.379c0-.177-.118-.296-.296-.296s-.296.118-.296.296l-.355 4.379.355 4.615c0 .178.118.296.296.296zm-3.432-.237c.118 0 .178-.059.237-.237l.473-4.438-.473-4.556c0-.118-.118-.237-.237-.237s-.177.059-.237.237l-.414 4.556.414 4.438c.059.178.118.237.237.237zm14.023-14.26a.53.53 0 0 0-.533.533l-.237 9.171.237 4.438a.53.53 0 0 0 .533.533c.296 0 .473-.237.532-.533l.237-4.438-.237-9.171c-.059-.355-.237-.533-.532-.533zm-7.1 14.556c.177 0 .355-.177.355-.355l.355-4.556-.355-8.698c0-.178-.178-.355-.355-.355s-.355.178-.355.355l-.296 8.698.296 4.556a.31.31 0 0 0 .355.355zm3.964-.414l.296-4.497-.296-9.763c0-.237-.177-.414-.414-.414s-.414.178-.414.414l-.296 9.763.296 4.497c0 .237.178.414.414.414.177 0 .355-.177.414-.414zm23.077-10.118c-.71 0-1.42.118-2.071.414-.415-4.793-4.438-8.52-9.29-8.52a9.01 9.01 0 0 0-3.373.651c-.414.177-.532.296-.532.651v16.804c0 .296.237.592.592.651h14.675a5.28 5.28 0 0 0 5.266-5.266c0-3.018-2.367-5.385-5.266-5.385zm-16.331-6.864c-.296 0-.592.237-.592.592l-.237 11.893.237 4.319c0 .296.237.592.592.592.296 0 .592-.237.592-.592l.237-4.319-.237-11.893a.64.64 0 0 0-.592-.592zm-17.1 20.769c-.651-.118-.769-.237-.769-.473 0-.177.118-.355.592-.355.355 0 .651.118.888.414l.592-.533c-.355-.414-.828-.592-1.42-.592-.769 0-1.42.414-1.42 1.183s.533 1.006 1.243 1.183c.769.177.888.296.888.533 0 .296-.237.414-.71.414a1.25 1.25 0 0 1-1.006-.473l-.592.533c.296.414.888.71 1.538.71 1.065 0 1.538-.533 1.538-1.243-.059-.888-.769-1.124-1.361-1.302zm3.609-1.538c-1.065 0-1.716.828-1.716 2.012s.651 2.012 1.716 2.012 1.716-.828 1.716-2.012-.651-2.012-1.716-2.012zm0 3.254c-.651 0-.888-.532-.888-1.243s.237-1.243.888-1.243.887.533.887 1.243-.237 1.243-.887 1.243zm4.911-1.006c0 .651-.296 1.006-.828 1.006-.473 0-.828-.414-.828-1.006v-2.189h-.769v2.189c0 1.124.651 1.775 1.598 1.775 1.006 0 1.598-.651 1.598-1.775v-2.189h-.769v2.189zm4.201-.532v.888c-.059-.118-.177-.296-.296-.473l-1.42-2.071h-.769v3.964h.769v-1.716-.888c.059.118.178.296.296.473l1.42 2.13h.71v-3.964h-.769l.059 1.657zm3.018-1.657h-1.243v3.964h1.183c1.006 0 2.012-.592 2.012-1.953 0-1.479-.828-2.012-1.953-2.012zm-.059 3.136h-.414v-2.426h.414c.828 0 1.183.414 1.183 1.183s-.355 1.243-1.183 1.243zm4.438-2.426c.355 0 .592.177.71.414l.71-.355c-.237-.532-.71-.888-1.42-.888-1.006 0-1.775.828-1.775 2.012 0 1.243.71 2.012 1.716 2.012.71 0 1.183-.355 1.479-.887l-.651-.414c-.237.355-.414.473-.769.473-.592 0-.947-.532-.947-1.242 0-.592.355-1.124.947-1.124zm2.959-.71h-.769v3.964h2.367v-.769h-1.598v-3.195zm3.609-.059c-1.065 0-1.716.828-1.716 2.012s.651 2.012 1.716 2.012 1.716-.828 1.716-2.012-.592-2.012-1.716-2.012zm0 3.254c-.651 0-.888-.532-.888-1.243s.237-1.243.888-1.243.888.533.888 1.243c.059.71-.237 1.243-.888 1.243zm4.911-1.006c0 .651-.296 1.006-.828 1.006-.473 0-.829-.414-.829-1.006v-2.189h-.769v2.189c0 1.124.651 1.775 1.598 1.775 1.006 0 1.598-.651 1.598-1.775v-2.189h-.77v2.189zm3.018-2.189h-1.243v3.964h1.184c1.006 0 2.012-.592 2.012-1.953 0-1.479-.829-2.012-1.953-2.012zm-.059 3.195h-.414v-2.426h.414c.828 0 1.183.414 1.183 1.183 0 .71-.355 1.243-1.183 1.243z" fill="url(#J)"/><path d="M149.615 41l2.224 2.139-2.238 2.241-2.093-2.107-2.262 2.25 2.096 2.084-2.212 2.201-2.125-2.128 2.098-2.09-2.238-2.233-2.084 2.096-2.326-2.326L140.664 41h.082l2.192 2.052 2.16-2.052h.081l2.227 2.163 2.066-2.058c.027-.029.038-.07.059-.105h.084zm-7.459 22.753c.577 0 1.138.055 1.684-.009 1.111-.134 1.914-1.019 2.005-2.128.102-1.252-.476-2.297-1.568-2.595-.668-.184-1.389-.175-2.121-.254v4.985zm-1.825 1.675v-8.166l.284-.029 3.546.085c2.25.233 3.572 1.707 3.627 3.89.053 2.116-1.29 3.736-3.426 4.136-.091.017-.178.056-.266.085h-3.765zm16.677-3.112l-1.191-3.114-1.197 3.114h2.388zm-5.554 3.111l3.175-7.632c.181-.441.391-.636.876-.575.435.055.977-.102 1.293.105.3.199.367.75.531 1.15l2.705 6.561c.053.125.079.26.123.391h-2.093l-.493-1.445c-.029-.076-.187-.149-.286-.149a124.31 124.31 0 0 0-2.954 0c-.096 0-.251.076-.28.155l-.505 1.439h-2.092zM120 57.229h6.666v1.602h-2.317l-.038.338v6.015c0 .082.026.16.041.245h-1.927v-6.611H120v-1.591zm45.092 8.199l.038-.496.003-7.148v-.525h1.877v6.578h3.266v1.591h-5.184zm-32.878 0l.011-7.641v-.528h1.915v8.169h-1.926z" fill="#000" class="C"/><mask id="A" mask-type="alpha" maskUnits="userSpaceOnUse" x="189" y="54" width="4" height="3"><path d="M189.958 54.569h-.002v1.444h2.47v-1.444h-2.468z" class="B"/></mask><g mask="url(#A)" class="C"><path d="M189.958 54.569h-.002v1.444h2.47v-1.444h-2.468z" fill="url(#K)"/></g><mask id="B" mask-type="alpha" maskUnits="userSpaceOnUse" x="181" y="56" width="3" height="3"><path d="M181 56.577h2.472v1.444H181v-1.444z" class="B"/></mask><g mask="url(#B)" class="C"><path d="M181 58.021h2.472v-1.444H181v1.444z" fill="url(#L)"/></g><mask id="C" mask-type="alpha" maskUnits="userSpaceOnUse" x="183" y="56" width="4" height="3"><path d="M183.988 56.578h2.47v1.442h-2.47v-1.442z" class="B"/></mask><g mask="url(#C)" class="C"><path d="M183.988 58.02h2.47v-1.442h-2.47v1.442z" fill="url(#M)"/></g><mask id="D" mask-type="alpha" maskUnits="userSpaceOnUse" x="186" y="56" width="4" height="3"><path d="M186.973 56.578h2.47v1.442h-2.47v-1.442z" class="B"/></mask><g mask="url(#D)" class="C"><path d="M186.973 58.02h2.47v-1.442h-2.47v1.442z" fill="url(#N)"/></g><mask id="E" mask-type="alpha" maskUnits="userSpaceOnUse" x="189" y="56" width="4" height="3"><path d="M189.956 56.578h2.47v1.442h-2.47v-1.442z" class="B"/></mask><g mask="url(#E)" class="C"><path d="M189.956 58.02h2.47v-1.442h-2.47v1.442z" fill="url(#O)"/></g><mask id="F" mask-type="alpha" maskUnits="userSpaceOnUse" x="186" y="54" width="4" height="3"><path d="M186.979 54.569l-.006.002v1.442h2.47v-1.444h-2.464z" class="B"/></mask><g mask="url(#F)" class="C"><path d="M186.979 54.569l-.006.002v1.442h2.47v-1.444h-2.464z" fill="url(#P)"/></g><mask id="G" mask-type="alpha" maskUnits="userSpaceOnUse" x="183" y="54" width="4" height="3"><path d="M183.988 54.569v1.442l.002.002h2.466l.002-.002v-1.44l-.004-.002h-2.466z" class="B"/></mask><g mask="url(#G)" class="C"><path d="M183.988 54.569v1.442l.002.002h2.466l.002-.002v-1.44l-.004-.002h-2.466z" fill="url(#Q)"/></g><mask id="H" mask-type="alpha" maskUnits="userSpaceOnUse" x="183" y="52" width="4" height="3"><path d="M183.988 52.563h2.47v1.44h-2.47v-1.44z" class="B"/></mask><g mask="url(#H)" class="C"><path d="M183.988 54.003h2.47v-1.44h-2.47v1.44z" fill="url(#R)"/></g><g fill="#000" class="C"><path d="M214.062 52.025c.895 0 1.512.489 1.512 1.246l-.015.062h-3.2c.191-.819.884-1.308 1.703-1.308zm.267 4.426c-1.073 0-1.952-.644-1.97-1.779h5.074a4.12 4.12 0 0 0 .101-.913c0-2.049-1.403-3.355-3.466-3.355-2.205 0-3.717 1.717-3.717 3.844 0 2.361 1.638 3.937 3.952 3.937 1.75 0 2.963-.882 3.484-2.332l-1.724-.673c-.238.849-.822 1.271-1.734 1.271zm10.177-4.236v-1.656h-6.508v1.734h3.97l-4.097 4.003v1.73h6.744v-1.81h-4.223l4.114-4.001zm12.151.756a2.74 2.74 0 0 1-.025.374h1.911a3.73 3.73 0 0 0 .066-.738c0-1.277-.802-2.205-2.143-2.205-.864 0-1.479.426-1.794 1.119v-.962h-2.018v7.464h2.018v-4.801c0-.757.409-1.181 1.039-1.181.567 0 .946.378.946.93zm-38.213 3.501c-1.119 0-1.989-.818-1.989-2.141 0-1.339.866-2.189 1.989-2.189 1.086 0 1.985.85 1.985 2.189 0 1.318-.899 2.141-1.985 2.141zm1.908-4.794c-.458-.771-1.308-1.277-2.361-1.277-2.052 0-3.548 1.575-3.548 3.924 0 2.316 1.483 3.861 3.594 3.861 1.055 0 1.906-.457 2.394-1.23v1.07h1.937V47h-2.016v4.679z"/><path d="M228.425 52.025c.895 0 1.512.489 1.512 1.246l-.016.062h-3.199c.191-.819.883-1.308 1.703-1.308zm.268 4.426c-1.072 0-1.954-.644-1.971-1.779h5.076a4.24 4.24 0 0 0 .099-.913c0-2.049-1.403-3.355-3.466-3.355-2.206 0-3.718 1.717-3.718 3.844 0 2.361 1.639 3.937 3.955 3.937 1.748 0 2.96-.882 3.482-2.332l-1.726-.673c-.236.849-.818 1.271-1.731 1.271zm-22.078-4.426c.895 0 1.512.489 1.512 1.246l-.013.062h-3.202c.191-.819.884-1.308 1.703-1.308zm.268 4.426c-1.072 0-1.954-.644-1.971-1.779h5.076c.066-.3.097-.605.095-.913 0-2.049-1.403-3.355-3.466-3.355-2.205 0-3.717 1.717-3.717 3.844 0 2.361 1.638 3.937 3.952 3.937 1.75 0 2.964-.882 3.484-2.332l-1.72-.673c-.238.849-.82 1.271-1.733 1.271z"/></g><path d="M208.305 14.307a14.15 14.15 0 0 1-14.143 14.143 14.15 14.15 0 0 1-14.143-14.143c0-7.788 6.318-14.143 14.143-14.143 7.789 0 14.143 6.355 14.143 14.143z" fill="#0076f4"/><path d="M197.285 7.954h1.795V4.939c-.323-.035-1.364-.144-2.621-.144-2.62 0-4.379 1.58-4.379 4.452v2.478h-2.943v3.373h2.943v8.652h3.518v-8.651h2.943l.431-3.373h-3.374V9.569c0-.932.251-1.615 1.687-1.615z" class="B"/><path d="M162.809 14.307a14.15 14.15 0 0 1-14.143 14.143 14.15 14.15 0 0 1-14.143-14.143c0-7.788 6.318-14.143 14.143-14.143a14.15 14.15 0 0 1 14.143 14.143z" fill="#fdf700"/><path d="M141.344 18.005c.502-.071.969-.252 1.4-.538a3.66 3.66 0 0 0 .969-.861c.503-.575.754-1.149.79-1.221v-.037c.143-.252.143-.467.072-.646-.144-.359-.611-.504-.97-.611l-.071-.035c-.072 0-.108-.037-.144-.073-.251-.108-.395-.179-.502-.286-.144-.144-.18-.252-.144-.359a.48.48 0 0 1 .251-.286c.18-.108.395-.144.539-.073.466.215.825.288 1.076.144.072-.037.108-.108.108-.179 0-.108-.036-.215-.036-.36v-.036c-.072-1.005-.143-2.26.18-2.979.251-.502.538-.932.897-1.292.323-.286.646-.538 1.077-.682a4.13 4.13 0 0 1 1.687-.359h.287a4.13 4.13 0 0 1 1.687.359c.395.181.754.396 1.077.682.359.359.682.753.898 1.292.323.719.251 1.974.179 2.945v.071c0 .071-.036.144-.036.215v.108c0 .071.036.144.108.179s.179.073.287.073h.036c.215 0 .431-.073.718-.181.108-.035.179-.035.251-.035.108 0 .18.035.287.071.216.071.359.252.359.394 0 .073-.036.144-.143.252s-.287.215-.539.323c-.036.037-.107.037-.143.037l-.072.037c-.323.108-.79.25-.969.609-.072.179-.072.396.072.682v.037c.179.394 1.148 2.297 3.158 2.62.072.037.144.071.144.179v.073c-.072.142-.18.25-.431.357-.323.144-.79.288-1.436.36-.071.037-.107.071-.143.108a1.43 1.43 0 0 0-.108.359l-.036.108c-.036.071-.036.179-.072.252-.036.108-.107.142-.215.142-.072 0-.143 0-.323-.035-.215-.037-.503-.108-.826-.108-.215 0-.395 0-.61.071-.395.071-.79.323-1.184.575-.539.36-1.113.79-2.011.79h-.107-.036-.036c-.897 0-1.472-.43-2.046-.79-.359-.252-.718-.504-1.149-.575-.179-.037-.395-.071-.61-.071-.359 0-.61.071-.826.108h-.035c-.108.035-.216.035-.324.035s-.179-.035-.251-.142l-.143-.323-.036-.073-.108-.359c-.036-.071-.072-.108-.144-.108-.646-.108-1.148-.25-1.471-.358-.216-.108-.359-.215-.431-.323-.036-.037-.036-.073-.036-.073v-.071c.251-.037.287-.071.359-.108z" stroke="#201712" stroke-width=".254" class="B"/><path d="M103.35 28.09c7.712 0 13.964-6.253 13.964-13.964S111.062.164 103.35.164 89.387 6.415 89.387 14.126 95.638 28.09 103.35 28.09z" fill="url(#S)"/><g class="B"><path d="M99.726 6.157h7.215c2.476 0 4.451 1.976 4.451 4.417v7.143c0 2.405-2.01 4.379-4.451 4.379h-7.215c-2.441-.035-4.451-1.974-4.451-4.415v-7.143c0-2.405 2.01-4.38 4.451-4.38zm7.215 14.539c1.651 0 3.015-1.328 3.015-2.979v-7.143c0-1.653-1.364-2.981-3.015-2.981h-7.215c-1.651 0-3.015 1.328-3.015 2.981v7.143c0 1.651 1.364 2.979 3.015 2.979h7.215zm-7.754-6.569c0-2.26 1.867-4.092 4.163-4.092s4.128 1.832 4.164 4.092c0 2.262-1.866 4.092-4.164 4.092s-4.163-1.83-4.163-4.092zm1.436.001c0 1.472 1.221 2.693 2.728 2.693s2.728-1.221 2.728-2.693-1.22-2.691-2.728-2.691-2.728 1.221-2.728 2.691z" class="C"/><path d="M107.658 8.814c-.287 0-.539.108-.754.288-.179.179-.323.467-.323.717 0 .288.108.538.323.719.179.179.467.286.754.286s.538-.108.754-.286c.179-.181.323-.467.323-.719 0-.286-.108-.538-.323-.717s-.467-.288-.754-.288z"/></g><mask id="I" mask-type="alpha" maskUnits="userSpaceOnUse" x="44" y="0" width="29" height="29"><circle cx="58.435" cy="14.308" r="13.742" fill="#c4c4c4"/></mask><g mask="url(#I)"><path d="M72.177.566H44.693v27.483h27.484V.566z" fill="url(#T)"/><path d="M66.369 8.656l-2.46 12.384s-.339.848-1.272.467l-5.683-4.369-2.078-.975-3.478-1.188s-.551-.17-.594-.594.594-.636.594-.636l13.827-5.386s1.145-.509 1.145.297z" class="B"/><path d="M56.529 20.913s-.17 0-.382-.679l-1.272-4.072 8.313-5.302s.466-.297.466 0c0 0 .085.042-.17.297s-6.532 5.895-6.532 5.895" fill="#cadfec"/><path d="M59.158 18.794l-2.248 2.036s-.17.127-.382.042l.424-3.775" fill="#aacbe1"/></g><g class="C"><path d="M6.069 25.079l.515.286c2.119 1.318 4.581 2.119 7.157 2.119 7.5 0 13.742-6.241 13.742-13.856S21.242 0 13.684 0 0 6.069 0 13.627c0 2.634.744 5.211 2.118 7.387l.344.515-1.316 4.81 4.924-1.26z" fill="#00a655"/><path d="M9.275 5.954l-1.088-.058c-.344 0-.687.115-.916.344-.515.458-1.374 1.317-1.603 2.463-.401 1.717.229 3.779 1.718 5.84s4.351 5.383 9.39 6.814c1.604.458 2.863.171 3.894-.457.802-.515 1.317-1.318 1.489-2.177l.172-.801c.057-.229-.058-.515-.287-.63l-3.607-1.66c-.229-.115-.515-.058-.688.171l-1.431 1.833c-.115.113-.287.171-.458.113-.973-.343-4.237-1.717-6.012-5.152-.057-.172-.057-.344.058-.458l1.374-1.546c.115-.172.171-.401.115-.573L9.732 6.298c-.057-.171-.228-.344-.457-.344z" fill="#fefefe"/></g><defs><linearGradient id="J" x1="88.313" y1="40.412" x2="85.5" y2="67.029" xlink:href="#U"><stop stop-color="#ff9d33"/><stop offset="1" stop-color="#ff4a2c"/></linearGradient><linearGradient id="K" x1="189.917" y1="55.59" x2="191.926" y2="54.211" xlink:href="#U"><stop stop-color="#243f91"/><stop offset="1" stop-color="#0083a8"/></linearGradient><linearGradient id="L" x1="181.001" y1="57.3" x2="183.472" y2="57.3" xlink:href="#U"><stop stop-color="#f09c14"/><stop offset="1" stop-color="#ed891c"/></linearGradient><linearGradient id="M" x1="183.987" y1="57.299" x2="186.457" y2="57.299" xlink:href="#U"><stop stop-color="#ed891c"/><stop offset="1" stop-color="#df345d"/></linearGradient><linearGradient id="N" x1="186.973" y1="57.299" x2="189.443" y2="57.299" xlink:href="#U"><stop stop-color="#c32177"/><stop offset="1" stop-color="#46368c"/></linearGradient><linearGradient id="O" x1="189.955" y1="57.299" x2="192.426" y2="57.299" xlink:href="#U"><stop stop-color="#243f91"/><stop offset="1" stop-color="#006bac"/></linearGradient><linearGradient id="P" x1="186.876" y1="55.471" x2="189.304" y2="54.514" xlink:href="#U"><stop stop-color="#c32177"/><stop offset="1" stop-color="#333b90"/></linearGradient><linearGradient id="Q" x1="183.899" y1="55.069" x2="186.207" y2="56.201" xlink:href="#U"><stop stop-color="#f7c10d"/><stop offset="1" stop-color="#df345d"/></linearGradient><linearGradient id="R" x1="184.196" y1="52.848" x2="185.423" y2="54.38" xlink:href="#U"><stop stop-color="#f9c60b"/><stop offset="1" stop-color="#e8703d"/></linearGradient><radialGradient id="S" cx="0" cy="0" r="1" gradientTransform="translate(97.4914 28.0366) scale(28.1841 28.1837)" xlink:href="#U"><stop stop-color="#f9d173"/><stop offset=".246" stop-color="#ec9f55"/><stop offset=".379" stop-color="#ea5c3c"/><stop offset=".7" stop-color="#bc3082"/><stop offset=".972" stop-color="#6068ab"/><stop offset=".985" stop-color="#5c6bad"/></radialGradient><linearGradient id="T" x1="58.444" y1=".579" x2="58.444" y2="27.97" xlink:href="#U"><stop stop-color="#00bae7"/><stop offset="1" stop-color="#00a3dc"/></linearGradient><linearGradient id="U" gradientUnits="userSpaceOnUse"/></defs></svg>