<svg xmlns="http://www.w3.org/2000/svg" width="257" height="118" fill="none" xmlns:v="https://vecta.io/nano"><g clip-path="url(#C)"><path d="M242.501 53.2281L0 78.9812V25.7531L242.501 0V53.2281Z" fill="#4d008c"/><g fill="#fff"><path d="M11.1745 30.8266l8.6381-.907-.6449 4.0484-3.9851.4203-.3657 2.3899 3.5762-.3772-.6622 4.0571-3.5734.3772-.4117 2.6173 3.9851-.4175-.6364 4.0542-8.63808.907 2.71808-17.1697zm10.7919-1.1345l4.4199-.4636 2.0932 9.9483.0461-.049.4089-5.8653.6853-4.3737 4.463-.4694-2.7095 17.1726-4.463.4693-1.8917-9.5422-.0461.049-.455 4.7941-.7975 5.036-4.463.4694 2.7094-17.1755zm27.9645 13.9506l-.1583-6.8385c-.023-1.362.1123-2.5656.1353-3.7432h-.0461l-.9789 3.8209-2.0703 7.0717-4.512.4723-1.1201-16.7522 4.5782-.4809-.0691 6.8155-.1151 3.7432h.046l.979-3.844 2.3035-7.0516 3.985-.4175.0922 6.7982-.0691 3.6799h.046l.9791-3.7778 2.1192-7.0314 4.5321-.4751-6.1618 17.5498-4.4948.4607zm17.5357-19.0211c4.7136-.4982 5.8279 3.9994 5.1685 8.1918s-3.2566 9.0757-7.9701 9.571-5.8077-4.0023-5.1483-8.1947 3.2335-9.0729 7.9499-9.5681zm-2.1192 13.4351c1.7535-.1843 2.3669-3.6741 2.5511-4.7481s.6363-4.5465-1.1172-4.3622-2.3668 3.6769-2.5281 4.7452-.6593 4.5494 1.0942 4.3651zm19.8328 1.8802l1.2756-10.7516h-.0432l-1.1863 3.8209-2.436 7.1754-3.7806.4089.0922-10.6249h-.0461l-.6623 3.8094-1.5088 7.0343-4.9899.5241 4.7164-17.3857 5.7846-.6075-.1151 8.9951h.046l.956-3.2364 2.0502-6.0467 5.7155-.6018-1.0481 16.9883-4.8201.4982zm12.2749-1.29l2.7099-17.1725 4.644-.4895-2.07 13.1213 3.484-.3686-.639 4.0542-8.1289.8551zm16.8959-1.7765v-2.171l-3.118.3282-.731 2.2488-4.783.501 6.833-17.6045 5.672-.596.933 16.7896-4.806.5039zm.046-5.7587l.113-3.9333.184-3.1989h-.046l-.956 3.2824-1.253 4.0513 1.958-.2015zm6.194-.5846c.501.8869 1.457 1.7276 2.64 1.6038.639-.0691 1.44-.5327 1.549-1.2842.04-.1596.04-.3265 0-.4861s-.117-.307-.227-.4295c-.179-.2346-.403-.4306-.66-.5759-.763-.5264-1.427-1.1845-1.96-1.9436-.501-.8818-.662-1.9157-.455-2.9081.319-2.0156 2.165-5.7818 6.127-6.1993 1.083-.1115 2.176.0674 3.167.5183l-.817 5.2174c-.412-.8091-1.368-1.6729-2.439-1.5606-.547.0576-1.276.5154-1.365 1.1748-.025.1635-.013.3308.037.4886s.136.302.251.4212c.225.2253.468.4323.725.6191.864.5759 1.55 1.1345 1.961 1.8543s.576 1.5981.363 2.8938c-.501 3.1903-3.141 5.9747-6.375 6.3173-1.135.126-2.285.0092-3.372-.3426l.85-5.3787zm24.797-14.0974c4.716-.4952 5.83 4.0024 5.183 8.1918s-3.257 9.0787-7.973 9.574-5.805-4.0053-5.146-8.1947 3.222-9.0758 7.936-9.5711zm-2.117 13.4381c1.754-.1843 2.367-3.677 2.551-4.7481s.637-4.5466-1.117-4.3623-2.369 3.677-2.528 4.7452-.659 4.5494 1.094 4.3652zm7.582 3.1672l2.71-17.1725 8.2-.8638-.639 4.0541-3.553.3743-.386 2.482 3.325-.3484-.639 4.0571-3.325.3484-1.054 6.5793-4.639.4895zm13.093-18.2639l8.638-.907-.637 4.0542-3.987.4175-.375 2.387 3.576-.3743-.662 4.0541-3.576.3772-.409 2.6174 3.985-.4175-.636 4.0541-8.612.9186 2.695-17.1813zm15.28 15.2809l-1.439-6.8817-.07.0518-.316 2.5194-.732 4.5782-4.644.4895 2.709-17.1725 4.486-.4722c4.032-.4233 6.764.4549 6.047 4.9841-.131.9813-.504 1.9144-1.086 2.7156s-1.353 1.4452-2.245 1.8742l2.323 6.7895-5.033.5241zm-.797-8.9865c1.232-.1296 2.073-1.2699 2.231-2.3842.254-1.5059-.576-2.0472-1.843-1.8456l-.682 4.2384.294-.0086zm8.085 8.2206l2.05-12.9831-2.551.2707.659-4.1924 9.862-1.0366-.662 4.1924-2.663.2879-2.05 12.9831-4.645.478zm14.8-1.5549v-2.1739l-3.118.3282-.729 2.2488-4.782.5039 6.832-17.6074 5.67-.596.933 16.7896-4.806.5068zm.046-5.7587l.115-3.9304.182-3.2018h-.046l-.956 3.2796-1.253 4.0426 1.958-.19zm6.194-.5874c.501.8897 1.459 1.7276 2.643 1.6038.636-.0663 1.439-.5298 1.549-1.2814.039-.1603.038-.3277-.002-.4877s-.118-.3079-.228-.4308c-.18-.234-.404-.4298-.66-.5759-.763-.5264-1.426-1.1845-1.958-1.9435-.5-.8828-.662-1.9177-.455-2.9111.317-2.0155 2.163-5.78175 6.125-6.19638 1.083-.11228 2.176.06664 3.167.51828l-.821 5.2145c-.409-.8091-1.367-1.67-2.436-1.5577-.547.0576-1.275.5154-1.367 1.1748-.024.1635-.011.3304.039.488s.135.3018.249.4219c.226.2244.469.4304.728.6162.864.5758 1.549 1.1373 1.958 1.8543s.576 1.598.366 2.8966c-.501 3.1875-3.145 5.9747-6.378 6.3145-1.134.1255-2.282.0097-3.369-.3398l.85-5.3786zM11.1749 52.6838l4.4169-.4664 2.0962 9.9684.0432-.0519.4117-5.8653.6825-4.3737 4.463-.4694-2.7095 17.1755-4.4486.4549-1.8889-9.5451-.049.049-.4549 4.797-.8091 5.0274-4.46588.4693 2.71238-17.1697zm20.3566-2.4301c4.7136-.4952 5.8308 4.0023 5.1829 8.1947s-3.2566 9.0758-7.9701 9.571-5.8077-4.0023-5.1455-8.1947 3.2192-9.0729 7.9327-9.571zm-2.1192 13.438c1.7535-.1842 2.3697-3.674 2.5511-4.7452s.6393-4.5494-1.1142-4.3651-2.3698 3.677-2.5281 4.7481-.6739 4.5465 1.0912 4.3622zm15.601 2.3266l2.0472-12.9831-2.5511.2678.6623-4.1895 9.8618-1.0366-.6623 4.1895-2.6634.2879-2.0501 12.9831-4.6444.4809zm8.606-.9042l2.7095-17.1755 4.6473-.4866-2.7124 17.1726-4.6444.4895zm9.5196-17.9011l8.6382-.907-.6508 4.0743-3.9851.4175-.3656 2.3899 3.5762-.3743-.6652 4.0455-3.5761.3772-.4089 2.6203 3.985-.4204-.6392 4.0541-8.6381.907 2.7296-17.1841zm10.7918-1.1229l4.4198-.4636 2.0933 9.9482.0461-.0489.4117-5.8682.6824-4.3738 4.4631-.4664L83.3375 61.99l-4.463.4837-1.8917-9.5451-.0461.0489-.4549 4.7971-.7976 5.0331-4.463.4693 2.7095-17.1869zM88.2094 44.59l8.6381-.907-.6392 4.0541-3.9851.4175-.3657 2.3899 3.5762-.3743-.6594 4.0542-3.5762.3772-.4088 2.6173 3.985-.4175-.6392 4.0542-8.6382.907L88.2094 44.59zm10.792-1.1201l4.4196-.4665 2.096 9.9483.044-.049.411-5.8653.683-4.3737 4.463-.4694-2.71 17.1755-4.457.4549-1.892-9.5451-.043.049-.458 4.797-.8 5.0446-4.4661.4694 2.7095-17.1697zm20.4496 14.7222l-1.23-16.758 4.875-.5125-.023 6.9479-.159 4.0916h.044l1.186-4.201 2.39-7.1984 5.033-.5298-7.377 17.6649-4.739.4953zm16.806-1.7651v-2.1739l-3.118.3282-.731 2.2517-4.783.501 6.847-17.6074 5.673-.596.933 16.7925-4.821.5039zm.047-5.7587l.112-3.9304.184-3.2018h-.046l-.956 3.2824-1.252 4.0513 1.958-.2015zm17.034-7.9759c-.547-.5759-1.048-.8638-2.016-.7746-2.415.2534-3.417 2.9802-3.711 4.8719-.32 2.0156-.138 4.4918 2.185 4.25 1.048-.1123 1.777-.5903 2.641-1.3533l-1.048 4.8344c-.893.4859-1.87.7948-2.88.9099-3.803.4002-6.582-2.1538-5.646-8.0306 1.206-7.6965 6.694-9.5508 8.949-9.7898.777-.1021 1.567-.0482 2.324.1583l-.798 4.9238zm7.717 11.1432v-2.174l-3.119.3283-.728 2.2488-4.783.5039 6.833-17.6074 5.669-.596.933 16.7896-4.805.5068zm.046-5.7588l.115-3.9303.181-3.2019h-.046l-.956 3.2796-1.252 4.0513 1.958-.1987zm17.034-7.9902c-.547-.5758-1.048-.8638-2.015-.7745-2.413.2534-3.415 2.9801-3.712 4.869-.319 2.0156-.138 4.4947 2.186 4.25 1.048-.1095 1.776-.5759 2.643-1.3505l-1.048 4.8345c-.898.486-1.88.7949-2.894.9099-3.801.4002-6.579-2.1538-5.646-8.0306 1.206-7.6965 6.694-9.5509 8.949-9.7899.777-.1022 1.567-.0483 2.323.1584l-.786 4.9237zm.274 11.909l2.709-17.1639 4.647-.4866-2.712 17.1726-4.644.4779zm15.597-18.8166c4.717-.4952 5.831 3.9995 5.183 8.1918s-3.268 9.0758-7.993 9.5855-5.805-4.0024-5.146-8.1919 3.243-9.0844 7.956-9.5854zm-2.116 13.4352c1.753-.1843 2.367-3.6741 2.551-4.7452s.636-4.5494-1.117-4.3623-2.37 3.6741-2.528 4.7452-.66 4.5465 1.094 4.3623zm10.291-14.0053l4.419-.4636 2.094 9.9482.046-.0489.409-5.8682.685-4.3709 4.463-.4693-2.71 17.1726-4.465.4693-1.889-9.5394-.046.0519-.455 4.7941-.798 5.036-4.463.4694 2.71-17.1812zm14.279-1.5001l8.638-.907-.645 4.0541-3.985.4204-.366 2.3899 3.576-.3772-.659 4.057-3.576.3744-.409 2.6202 3.985-.4204-.639 4.0542-8.639.907 2.719-17.1726zm8.56 10.2994c.501.8869 1.46 1.7277 2.643 1.6039.636-.0663 1.44-.5327 1.549-1.2814.039-.16.039-.3272 0-.4872s-.118-.308-.227-.4313c-.18-.2341-.406-.4299-.662-.5759-.764-.5268-1.427-1.186-1.958-1.9464-.501-.8818-.662-1.9157-.455-2.9082.319-2.0155 2.162-5.7818 6.124-6.1993 1.083-.1095 2.176.0693 3.167.5183l-.814 5.2146c-.409-.8091-1.368-1.6701-2.436-1.5578-.548.0576-1.276.5126-1.368 1.1719-.024.1636-.01.3304.039.488s.135.3018.249.4219c.226.2253.47.4323.728.6191.864.5758 1.549 1.1344 1.958 1.8543s.576 1.598.366 2.8966c-.501 3.1875-3.144 5.9747-6.378 6.3145-1.134.1255-2.282.0097-3.369-.3398l.844-5.3758z"/></g></g><g filter="url(#A)"><path d="M78.7313 73.7054c.1628-.1905.5141-.1518.5287.0881l1.3441-.6242.6832-.0417 1.126-.0687 1.0372-.0633.7753-.403 1.9314-.1179 1.0072-.4171 2.2154-.1352 1.3904-.0849 1.4038-.0857 1.7245-.1052.811-.0495c.5219-.0319 1.9314-.5131 2.5709-.7497l.6641-.0405c.539-.2305 1.8025-.7028 2.5445-.748l2.543-.1553c1.222-.0746 3.942-.5962 5.596-.8157l5.504-.8101 2.477-.8625 2.119-.6035.98-.0599 1.656.5933.579-.0354.923-.0563 1.139-.0695.797-.0486 1.33-.7455.347-.0212 1.448-.0884.174-.0106 1.492-.3318c.188.2293.525.0281.811-.0495.402-.0848.768.1939 1.173.1691.293.0423.63-.1588.912-.2964.623-.2788 1.318-.3212 1.963-.2402-.015-.2399.264-.4375.496-.4516s.467.0317.698.0175c.29-.0177.627-.2188.909-.3564.34-.1412.746-.1659.938.1233-.069-.1764.213-.314.387-.3246.178.0494.413.0952.587.0846s.34-.1412.51-.2117c.847-.4129 1.883-.5965 2.821-.4732.88.1269 1.832.4902 2.625.1408.224-.1341.445-.3282.731-.4058.623-.2788 1.332-.0813 1.973-.0603.467.0317.927-.0565 1.383-.2048.113-.067.286-.0776.456-.1482.515-.1518 1.745.2868 2.255.0751l2.722-1.1293c.341-.1412.681-.2823 1.086-.3071s.815.0105 1.217-.0742c.344-.0812.619-.3388.959-.4799.855-.293 2.133.6523 2.73-.0463.217-.254.5-.3916.844-.4728.46-.0883.934.0633 1.188.409.264-.4375.658-.6421 1.125-.6104.67-.4623 1.478.3954 2.144-.1268.333-.2611.724-.5257 1.187-.554.29-.0177.583.0246.811-.0495l.337-.2012.836-.5928c.279-.1976.612-.4587.963-.4199.232-.0142.474.1516.713.2574.833.3104 1.746.0139 2.575.2643.59.1445 1.083.596 1.673.7406s1.213-.1342 1.854-.1132c.174-.0106.406-.0247.583.0246l1.054.1163c.88.1269 1.764.3138 2.651.5606.358.1587.771.2539 1.119.2327.232-.0142.518-.0918.804-.1695.629-.1588 1.448-.0884 1.878-.6564.163-.1905.257-.5575.55-.5152.116-.007.236.0459.297.1023.243.1658.649.141.873.0069s.445-.3281.666-.5222c.96.4832 2.27.042 2.795-.8929.119.0529.188.2293.195.3492.406-.0247.597-.6986 1.003-.7233.116-.0071.297.1022.416.1551.482.2716 1.011.3597 1.532.3279 1.097-.1271 2.158-.854 3.277-.6213.235.0458.536.208.822.1304.174-.0106.286-.0777.456-.1483.228-.0741.463-.0282.753-.0459s.568-.2153.612-.4587c.05-.1235-.011-.18.039-.3034.04-.3034.391-.2647.681-.2824.405-.0247.862-.1729 1.325-.2012s.938.1233 1.195.529c.131.2328.149.5326.167.8325h0c.052.8397.161 1.6758.444 2.5013.214.6491.486 1.2946.352 1.9649-.039.3034-.191.6739-.057.9667.065.1164.127.1728.192.2892s.076.2964.084.4163c.025.4198.167.8326.192 1.2524.344-.0812.598.2645.616.5644s-.195.6138-.416.8079c.25.2857.276.7055.298 1.0654l.124 2.0391.041.6597.138 1.3159c.19 1.2659 1.04 2.7157.645 3.925.036.0205.065.0851.068.1249.141.4127.286.8854.076 1.2594-.05.1235-.104.187-.159.2505-.047.1834.026.4198.098.6561v.0001c.077.2963.215.6491.349.9419.214.6491.486 1.2947.584 1.9508.163.7726.102 1.6793-.082 2.4731-.043.2434-.144.4904-.307.6809-.159.2505-.503.3317-.789.4094-.626.2188-1.256.3776-1.886.5365-.112.067-.286.0776-.46.0882s-.351-.0387-.525-.0281c-.703-.0776-1.379.2647-2.082.1872-.409-.0352-.826-.1904-1.231-.1656s-.862.173-.952.5999c.007.1199-.043.2434-.098.3069s-.17.0706-.228.0741c-.344.0812-.568.2153-.85.3529-.286.0777-.63.1589-.873-.0069.007.1199-.047.1834-.098.3069-.177-.0493-.297-.1022-.365-.2786-.055.0635-.171.0705-.229.0741.008.1199-.162.1905-.336.2011-.808.1095-1.63-.0209-2.401-.2748-.116.007-.235-.0459-.351-.0388s-.17.0706-.283.1376c-.665.5223-1.393.988-2.219.7976-.235-.0458-.456.1483-.561.3353-.101.2469-.206.4339-.43.568-.112.0671-.228.0741-.402.0847-.927.0566-1.904.2367-2.809.6531-.171.0706-.283.1376-.457.1482s-.293-.0423-.412-.0952c-.182-.1093-.417-.1551-.598-.2645-.243-.1658-.652-.201-.753.046-.054.0635-.043.2434-.098.3069-.05.1235-.228.0741-.351-.0387-.119-.0529-.243-.1658-.362-.2187-.236-.0458-.449.2682-.681.2823-.174.0106-.293-.0423-.413-.0952-.297-.1023-.695.0424-1.05-.0563s-.728-.4973-1.068-.3561c-.058.0035-.17.0705-.224.134-.453.2082-.888-.2468-1.355-.2785-.174.0106-.344.0812-.518.0918-.344.0812-.695.0424-.992-.0598-.673.4023-1.506.0919-2.321.0814-.467-.0317-.981.1201-1.441.2084l-1.491.3318-2.64.5825c-.173.0106-.286.0776-.463.0283-.116.007-.177-.0494-.297-.1023-.659-.321-1.39.0848-2.017.3037-.398.1447-.915.2365-1.379.2647-.116.0071-.232.0142-.297-.1022-.062-.0565-.065-.1164-.127-.1729-.123-.1128-.235-.0458-.347.0212-.898.5364-1.991.7235-3.045.6073l-1.206.2541-1.263.2577c.166-.1305.275-.2575.383-.3845v-.0001c-.572.1554-1.144.3107-1.676.1626-.293-.0423-.71-.1975-.807.1094.003.06-.055.0635-.051.1235-.109.127-.293-.0423-.362-.2187-.029.4834-.847.4129-.995.8433-.207.434-.655.7022-1.05.9069-.112.067-.282.1376-.394.2046-.116.0071-.229.0741-.341.1412-.626.2188-1.267.1977-1.865-.0668-.297-.1022-.659-.3209-.876-.0669-.05.1235-.101.247-.217.254-.177-.0493-.188-.2293-.254-.3457-.126-.1728-.409-.0352-.583-.0246-.289.0177-.594-.2045-.883-.1868-.116.007-.17.0705-.286.0776l-.58.0354c-.637.0389-1.278.0178-1.872-.1867l-4.228 1.2212c-.634.0989-1.275.0778-1.865-.0668-.119-.0529-.297-.1022-.413-.0952-.231.0142-.456.1483-.641-.0211-.061-.0564-.126-.1728-.184-.1693-.174.0106-.16.2505-.21.374-.105.187-.464.0283-.626.2188-.109.1271-.102.247-.156.3105-.105.187-.337.2011-.514.1518-.232.0141-.525-.0282-.818-.0705-.174.0106-.348.0212-.46.0883-.062-.0564-.123-.1129-.239-.1058l-.232.0141c-.232.0142-.478-.2116-.496-.5114-.591-.1446-1.148.2506-1.731.226-.409-.0352-.999-.1798-1.274.0778l.173-.0106c-.51.2117-1.086.307-1.607.3388-.116.0071-.232.0142-.344.0812l-.163.1906c-.108.127-.282.1376-.456.1482-1.217.0743-2.423-.6347-3.625-.3205-.174.0106-.402.0847-.575.0953-.116.0071-.236-.0458-.352-.0388-.347.0213-.622.2788-.897.5364-.445.3282-.894.5963-1.408.7481-.228.0741-.572.1553-.616.3987-.308-.2822-.666-.4409-1.079-.5361-.235-.0458-.474-.1516-.706-.1374-.351-.0388-.695.0424-1.039.1236l-1.546.3953c-.112.0671-.228.0741-.279.1976h0c.008.12.011.1799-.043.2434-.105.187-.402.0848-.576.0954-.289.0177-.506.2717-.731.4058-.565.2752-1.34-.0386-1.904.2366-.308-.2822-.736-.6173-1.203-.6489-.583-.0247-1.024.3635-1.466.7516-.061-.0565-.123-.1129-.13-.2328l-2.737.8894-.29.0176c-.058.0036-.119-.0529-.181-.1093-.485-.3315-1.076-.4761-1.59-.3243-.116.007-.286.0776-.459.0882s-.355-.0987-.366-.2786c-.297-.1023-.649-.1411-.946-.2433-.177-.0494-.412-.0952-.586-.0846-.46.0882-.847.4129-1.303.5611-.46.0883-.869.053-1.3365.0213l-.9848.0602c-.5177.0918-1.0971.1271-1.6185.1589h0c-.1158.0071-.2317.0142-.2859.0777-.1159.0071-.1702.0706-.2245.1341-.1158.0071-.1701.0706-.286.0776l-2.5233.5754c-.1885-.2293-.3732-.3986-.616-.5644-.4238-.2751-.9562-.4232-1.4123-.2749-.3403.1411-.6153.3987-.8903.6563-.1232-.1129-.1884-.2293-.3116-.3422-.047.1835-.3403.1412-.4092-.0352-.0543.0635-.1665.1305-.2207.1941-.4239-.2752-.9526-.3633-1.4124-.275-.5756.0953-1.1982.3741-1.6361.8222-.6086-.4444-1.4269-.5149-2.1404-.7723-.1775-.0494-.3586-.1587-.5324-.1481-.3512-.0388-.6915.1024-1.0428.0636-.4055.0248-.8293-.2503-1.2422-.3455-.4707-.0917-.9811.12-1.3068.5011-.2896.0177-.4817-.2716-.6122-.5044-.3373-.762-.4501-1.658-.4434-2.5012-.0074-.1199-.0147-.2399.0359-.3634s.1049-.187.0976-.3069c.0506-.1235.0396-.3034.0323-.4234-.0293-.4798-.0586-.9595-.4245-1.2382.0543-.0635.1049-.187.2208-.1941-.0293-.4798-.1238-1.0759-.3269-1.5451.3256-.3811.5897-.8186.85-1.316.1086-.1271.1592-.2505.1482-.4305-.0183-.2998-.3299-.642-.1128-.896.0542-.0635.1122-.0671.1664-.1306.1049-.187-.1378-.3528-.2067-.5291-.1342-.2928.1409-.5504.0646-.8467-.0073-.12-.0689-.1764-.1341-.2928s-.0763-.2964-.0836-.4163c.0323-.4234.0103-.7832-.0116-1.143l-.1641-1.7357c-.1708-.8926-.5117-1.7145-.3928-2.6247.0902-.4269-.8891-3.5658-.9184-4.0455-.022-.3599-.1634-.7726.1152-.9702-.1921-.2893-.2177-.7091-.1854-1.1325.0433-.2434.0287-.4833.1915-.6738z" fill="#fff"/></g><g filter="url(#B)"><path d="M116.268 92.0051c.175-.1842.559-.1608.578.063l1.46-.6331.745-.064 1.228-.1055 1.132-.0972.841-.4053 2.107-.181 1.094-.4271 2.417-.2076 1.517-.1303 1.532-.1315 1.882-.1616.884-.076c.57-.049 2.102-.5507 2.797-.7954l.725-.0622c.585-.2354 1.958-.7234 2.767-.7929l2.775-.2383c1.334-.1146 4.296-.7021 6.1-.968l5.998-.9593 2.692-.8974 2.306-.6422 1.07-.0918 1.815.4942.632-.0542 1.008-.0866 1.242-.1067.869-.0746 1.442-.746.38-.0326 1.58-.1357.189-.0163 1.624-.365c.209.2076.574.0071.885-.076.438-.094.841.1533 1.284.1153.32.0288.685-.1717.992-.3108.676-.2835 1.434-.3487 2.139-.2965-.019-.2238.282-.4189.535-.4406s.511.0126.764-.0092c.316-.0271.68-.2276.987-.3666.369-.1445.812-.1825 1.025.081-.077-.1625.229-.3015.419-.3178.194.0397.452.0739.642.0576s.369-.1445.554-.2167c.919-.4172 2.047-.6269 3.073-.5459.963.0865 2.007.3914 2.868.0355.243-.1336.482-.3232.793-.4063.676-.2836 1.454-.1249 2.154-.1286.51.0125 1.011-.0869 1.507-.2423.122-.0668.311-.0831.496-.1553.559-.1608 1.909.2044 2.463-.0123l2.957-1.156c.37-.1445.739-.289 1.182-.327s.89-.0201 1.327-.114c.375-.0886.671-.3396 1.041-.4841.929-.3053 2.338.5321 2.98-.1432.234-.2456.54-.3847.915-.4732.501-.0994 1.021.0251 1.302.3391.283-.4189.711-.6247 1.221-.6122.725-.4569 1.619.3158 2.339-.1971.36-.2564.783-.5183 1.289-.5617.316-.0271.637.0017.885-.076l.365-.2005.904-.5851c.302-.195.662-.4514 1.046-.428.253-.0217.52.1244.783.2146.913.2598 1.905-.0509 2.814.1529.647.1136 1.191.5179 1.837.6315s1.323-.17 2.023-.1737c.189-.0163.442-.038.637.0016l1.152.0702c.962.0865 1.93.2289 2.902.4273.393.1353.845.2092 1.225.1766.252-.0217.564-.1048.875-.1879.686-.1717 1.58-.1357 2.042-.6828.176-.1842.273-.5309.594-.502.126-.0109.258.0342.326.0848.267.1461.709.1081.953-.0255s.481-.3233.72-.5129c1.054.4168 2.479-.0438 3.039-.9376.131.0452.209.2076.218.3195.443-.038.643-.6753 1.085-.7133.127-.0108.326.0848.457.1299.53.2364 1.108.2995 1.677.2506 1.196-.1591 2.344-.8779 3.569-.7012.258.0343.588.175.899.0919.19-.0163.312-.0831.496-.1554.249-.0776.506-.0434.822-.0705s.618-.2222.662-.4515c.053-.1174-.015-.1679.039-.2852.039-.2853.423-.2619.739-.289.443-.038.939-.1934 1.444-.2368s1.026.081 1.312.451c.146.213.17.4928.194.7726h0c.067.7835.198 1.5616.518 2.3234.243.5993.548 1.1931.412 1.825-.04.2853-.2.6373-.05.9063.073.1065.141.157.214.2635s.087.2744.096.3863c.034.3918.194.7727.228 1.1644.374-.0885.656.2255.68.5053s-.205.5814-.443.771c.277.2581.31.6499.339.9856l.164 1.9028.052.6156c.039.4477.073.8394.169 1.2257.224 1.1772 1.172 2.5021.758 3.6478.039.0178.072.0772.075.1143.16.3809.325.8177.101 1.1752-.054.1174-.112.1788-.17.2402-.049.1733.033.3916.116.61v.0001c.087.2744.242.5993.393.8683.242.5993.548 1.1932.664 1.8034.189.7166.134 1.5669-.056 2.3162-.044.2292-.151.464-.326.6481-.171.2402-.545.3287-.856.4118-.681.2276-1.367.3993-2.052.5709-.122.0668-.312.0831-.501.0994s-.384-.0234-.574-.0071c-.768-.0468-1.502.2982-2.271.2514-.447-.0179-.904-.1478-1.346-.1098s-.939.1933-1.031.5959c.009.112-.044.2293-.103.2907s-.184.0723-.248.0777c-.374.0885-.617.2222-.924.3612-.311.0831-.685.1717-.953.0255.01.1119-.048.1733-.102.2907-.194-.0397-.326-.0848-.403-.2473-.059.0614-.185.0723-.248.0777.009.1119-.175.1842-.365.2005-.88.1319-1.779.0401-2.625-.1692-.127.0109-.258-.0342-.384-.0234s-.185.0723-.307.1391c-.72.5127-1.508.9747-2.412.8277-.257-.035-.496.155-.608.334-.107.234-.219.413-.462.547-.122.067-.248.078-.438.094-1.011.087-2.076.291-3.058.714-.185.072-.307.139-.496.155s-.321-.029-.452-.074c-.2-.096-.457-.13-.657-.226-.267-.146-.714-.164-.821.071-.059.061-.044.229-.103.291-.053.117-.248.077-.384-.024-.131-.045-.267-.146-.398-.191-.258-.034-.487.267-.739.289-.19.016-.321-.029-.452-.074-.326-.085-.759.065-1.148-.014s-.801-.439-1.171-.294c-.063.005-.185.072-.243.134-.491.211-.972-.199-1.483-.211-.189.016-.374.088-.564.104-.374.089-.758.066-1.084-.019-.73.401-1.643.141-2.533.161-.51-.013-1.07.148-1.571.248l-1.624.365-2.873.641c-.19.016-.312.083-.506.044-.126.01-.194-.04-.326-.085-.724-.276-1.517.13-2.197.358-.433.15-.997.254-1.503.298-.126.011-.253.022-.326-.085-.068-.05-.072-.106-.14-.157-.136-.101-.258-.034-.38.033-.973.534-2.164.749-3.316.679l-1.313.282-1.376.287c.18-.128.297-.251.414-.373h0c-.623.166-1.245.332-1.828.213-.321-.029-.778-.159-.881.132.005.056-.058.061-.053.117-.117.123-.321-.029-.399-.191-.024.453-.919.417-1.075.825-.219.414-.705.681-1.133.887-.122.067-.307.139-.428.206-.127.011-.248.077-.37.144-.681.228-1.381.232-2.037.006-.326-.085-.724-.276-.958-.03-.053.117-.107.234-.233.245-.195-.04-.209-.207-.282-.314-.141-.157-.447-.018-.637-.002-.316.028-.651-.169-.967-.142-.127.011-.185.072-.311.083l-.632.054c-.696.06-1.396.064-2.047-.106l-4.6 1.297c-.691.116-1.391.12-2.037.006-.132-.045-.326-.084-.452-.074-.253.022-.496.156-.7.004-.068-.05-.141-.157-.204-.151-.19.016-.171.24-.224.357-.112.179-.506.043-.681.228-.117.122-.107.234-.166.296-.112.178-.365.2-.559.161-.253.021-.574-.008-.895-.036-.189.016-.379.032-.5.099-.068-.051-.136-.101-.263-.09l-.253.021c-.252.022-.525-.18-.549-.46-.646-.113-1.249.277-1.886.275-.447-.018-1.094-.132-1.391.119l.19-.016c-.554.217-1.182.327-1.751.376-.126.011-.252.022-.374.089l-.175.184c-.117.123-.307.139-.496.155-1.328.114-2.654-.505-3.962-.167-.19.016-.438.094-.627.11-.127.011-.258-.034-.384-.023-.38.032-.677.283-.973.534-.482.324-.968.591-1.528.752-.248.077-.622.166-.666.395-.34-.252-.734-.388-1.186-.462-.257-.034-.52-.124-.773-.102-.384-.024-.758.065-1.133.153l-1.682.427c-.122.067-.248.077-.302.195h0c.01.112.015.168-.044.229-.112.179-.437.094-.627.11-.316.027-.549.273-.793.407-.613.278-1.463.013-2.076.291-.34-.253-.811-.551-1.322-.563-.637-.002-1.113.377-1.59.757-.068-.051-.136-.102-.146-.213l-2.976.932-.316.027c-.063.005-.131-.045-.199-.096-.535-.292-1.181-.406-1.74-.245-.127.011-.312.083-.501.099s-.389-.079-.403-.247c-.326-.085-.71-.108-1.036-.193-.194-.039-.452-.074-.641-.057-.501.099-.92.417-1.416.572-.501.1-.948.082-1.458.069l-1.075.092c-.564.105-1.196.159-1.765.208h0c-.126.011-.253.022-.311.083-.126.011-.185.073-.243.134-.127.011-.185.072-.311.083l-2.748.631c-.209-.208-.413-.359-.68-.506-.466-.241-1.05-.36-1.546-.205-.369.144-.666.395-.963.646-.136-.101-.209-.207-.345-.308-.049.173-.369.144-.447-.018-.058.061-.18.128-.238.189-.467-.241-1.045-.304-1.546-.205-.627.11-1.303.394-1.775.829-.671-.393-1.565-.429-2.348-.644-.194-.04-.394-.135-.583-.119-.384-.023-.754.121-1.138.098-.442.038-.909-.204-1.361-.278-.515-.069-1.07.148-1.42.517-.316.027-.53-.237-.675-.45-.379-.7-.514-1.534-.518-2.323-.01-.112-.019-.224.034-.341s.112-.179.103-.291c.053-.117.039-.285.029-.397-.038-.448-.077-.896-.48-1.143.058-.061.112-.179.238-.189-.038-.448-.149-1.002-.377-1.434.35-.368.632-.787.91-1.262.117-.123.17-.24.156-.408-.024-.28-.369-.588-.135-.834.058-.061.121-.067.18-.128.112-.179-.156-.325-.233-.488-.151-.269.146-.519.059-.794-.01-.112-.078-.162-.151-.269s-.087-.274-.096-.386c.029-.397 0-.733-.029-1.069l-.202-1.617c-.199-.829-.582-1.5853-.465-2.4411.093-.4026-1.018-3.3027-1.057-3.7504-.029-.3358-.189-.7166.113-.9117-.214-.2635-.248-.6552-.218-1.0524.044-.2293.025-.4531.2-.6373z" fill="#fff"/></g><g clip-path="url(#D)" fill="#4d008c"><path d="M96.1171 83.0771l-1.7582 12.5007-4.7005.5738 1.7582-12.5038 4.7005-.5707zm-4.3133-3.3705c.1888-1.4454 1.5607-2.8234 2.9433-2.9927 1.535-.1867 2.6646.8182 2.4333 2.4079-.1415.761-.5155 1.4594-1.0704 1.999s-1.2635.8939-2.0281 1.0141c-1.5141.1834-2.5135-.9074-2.2781-2.4283zm17.0952-3.829c-.578-.589-1.103-.8796-2.107-.7704-2.506.3044-3.5 3.1544-3.776 5.1219-.295 2.0994-.064 4.672 2.346 4.3782 1.087-.1315 1.836-.6286 2.72-1.448l-1.007 5.0406c-.919.5187-1.929.8562-2.976.9943-3.945.4806-6.875-2.1256-6.0058-8.2471 1.1255-8.0169 6.7958-10.0368 9.1338-10.3235.805-.1193 1.626-.0768 2.414.125l-.742 5.129zm9.309-6.5888c4.888-.5948 6.126 4.0589 5.509 8.4228s-3.226 9.4876-8.118 10.0825-6.102-4.0594-5.485-8.4263 3.196-9.4841 8.094-10.079zm-1.97 13.9944c1.818-.2213 2.396-3.8605 2.566-4.9764s.587-4.7345-1.232-4.5132-2.399 3.8605-2.545 4.9731-.596 4.7406 1.211 4.5165zm20.637 1.6188l1.143-11.192-.048.0007-1.165 3.9899-2.408 7.4963-3.921.4772-.089-11.0402-.047.0008-.621 3.972-1.442 7.3308-5.172.6323 4.601-18.1369 6-.7297.036 9.3474.045-.0007.939-3.3788 2.027-6.317 5.93-.7226-.799 17.6677-5.009.6028zm6.188-.7537l2.523-17.8875 4.393-.5357c4.204-.5118 7.249.4797 6.592 5.1674-.656 4.6518-3.704 6.4193-7.862 6.8106l-.829 5.8606-4.817.5846zm7.165-14.675l-.352.0656-.596 4.1302c.61-.0135 1.194-.2504 1.641-.6659s.726-.9806.785-1.5881c.169-1.1399-.295-2.0868-1.478-1.9418zm12.885 12.234l-.037-2.2556-3.222.3939-.718 2.3488-4.961.6019 6.799-18.4064 5.881-.7157 1.255 17.4276-4.997.6055zm-.05-5.9838l.053-4.0884.134-3.3266-.048.0007-.937 3.4266-1.233 4.2304 2.031-.2427zm13.489 4.3482l-1.613-7.1252-.071.0551-.286 2.6229-.679 4.7719-4.82.5847 2.523-17.8875 4.652-.567c4.181-.5083 7.035.3576 6.367 5.0754-.121 1.0229-.495 1.9996-1.088 2.8416s-1.387 1.5228-2.31 1.9808l2.527 7.0145-5.202.6328zm-.988-9.3228c1.275-.1555 2.129-1.3545 2.278-2.5149.235-1.5689-.633-2.1172-1.949-1.8862l-.628 4.415.299-.0139z"/><path d="M190.486 78.3772l-.037-2.2586-3.234.3941-.718 2.3488-4.961.6049 6.799-18.4094 5.881-.7157 1.255 17.4306-4.985.6053zm-.05-5.9838l.05-4.0913.134-3.3297-.048.0008-.937 3.4266-1.233 4.2304 2.034-.2368zM133.562 108.06l1.073-7.594-2.952-9.7606 5.005-.6087.892 5.3237.048-.0008 2.441-5.7253 4.981-.6053-5.598 10.8012-1.073 7.5908-4.817.579zm19.031-19.8966l3.883-.4736c5.479-.6672 7.945 2.4373 7.181 7.8479-1.166 8.2573-6.446 9.6453-9.376 10.0013l-4.205.512 2.517-17.8876zm2.906 12.9836c2.198-.293 2.957-3.0883 3.213-4.7772.268-1.9434.278-4.6037-1.917-4.3344l-1.296 9.1116zm11.121-14.6916l8.959-1.0894-.604 4.2231-4.133.5016-.336 2.4891 3.709-.4497-.619 4.2263-3.706.4497-.383 2.7293 4.133-.5046-.592 4.2232-8.96 1.089 2.532-17.8876z"/><path d="M186.83 89.1496c-.578-.589-1.104-.8796-2.108-.7704-2.505.3043-3.5 3.1544-3.776 5.1218-.294 2.0995-.064 4.6721 2.346 4.3783 1.084-.1315 1.836-.6435 2.72-1.451l-1.006 5.0437c-.92.518-1.93.854-2.976.991-3.945.481-6.875-2.122-6.006-8.244 1.125-8.0198 6.795-10.0368 9.134-10.3234.805-.1194 1.625-.0769 2.414.125l-.742 5.129zm.484 12.3684l2.522-17.8875 4.82-.5877-2.522 17.8902-4.82.585zm4.871-23.3511l3.662-.446-2.923 4.273-2.598.3179 1.859-4.1449zm4.714 4.6027l3.882-.4706c5.48-.6673 7.946 2.4373 7.182 7.8479-1.167 8.2539-6.446 9.6451-9.373 10.0011l-4.205.512 2.514-17.8904zm2.906 12.9839c2.194-.2903 2.941-3.0884 3.213-4.7745.267-1.9464.281-4.6038-1.917-4.3374l-1.296 9.1119zm11.124-14.6889l8.959-1.0924-.592 4.2229-4.133.5046-.34 2.4892 3.709-.4528-.619 4.2263-3.709.4528-.383 2.7262 4.133-.5016-.592 4.2229-8.959 1.0894 2.526-17.8875zm10.441 16.3075l1.909-13.5206-2.646.3217.617-4.3669 10.225-1.2448-.614 4.3669-2.762.3445-1.909 13.5236-4.82.5756zm11.452-18.9732l8.959-1.0894-.601 4.226-4.133.5016-.339 2.4892 3.709-.4498-.616 4.2263-3.709.4498-.381 2.7292 4.133-.5046-.595 4.2229-8.959 1.0894 2.532-17.8906zm8.466 14.1016c.189-1.4454 1.587-2.8268 2.979-2.9962 1.538-.1868 2.641.8215 2.406 2.4113-.142.7608-.516 1.4589-1.071 1.9985s-1.263.894-2.027 1.0146c-1.511.1834-2.523-.9072-2.287-2.4282zm1-3.9692l1.758-12.5008 4.701-.5737-1.758 12.5038-4.701.5707z"/></g><defs><filter id="A" x="77.4162" y="56.2815" width="129.388" height="44.887" filterUnits="userSpaceOnUse" color-interpolation-filters="sRGB"><feFlood flood-opacity="0" result="A"/><feColorMatrix in="SourceAlpha" values="0 0 0 0 0 0 0 0 0 0 0 0 0 0 0 0 0 0 127 0"/><feOffset dy="1.38988"/><feGaussianBlur stdDeviation=".555952"/><feColorMatrix values="0 0 0 0 0 0 0 0 0 0 0 0 0 0 0 0 0 0 0.34 0"/><feBlend in2="A"/><feBlend in="SourceGraphic"/></filter><filter id="B" x="114.947" y="71.2402" width="141.162" height="46.3085" filterUnits="userSpaceOnUse" color-interpolation-filters="sRGB"><feFlood flood-opacity="0" result="A"/><feColorMatrix in="SourceAlpha" values="0 0 0 0 0 0 0 0 0 0 0 0 0 0 0 0 0 0 127 0"/><feOffset dy="1.38988"/><feGaussianBlur stdDeviation=".555952"/><feColorMatrix values="0 0 0 0 0 0 0 0 0 0 0 0 0 0 0 0 0 0 0.34 0"/><feBlend in2="A"/><feBlend in="SourceGraphic"/></filter><clipPath id="C"><path fill="#fff" d="M0 0h242.501007080078v78.981201171875H0z"/></clipPath><clipPath id="D"><path fill="#fff" transform="matrix(.9998658393266969 -.016379967872978483 .016379967872978483 .9998658393266969 89.10000000000001 62.0634)" d="M0 0h159.406005859375v46.718601226807H0z"/></clipPath></defs></svg>