<svg xmlns="http://www.w3.org/2000/svg" width="224" height="114" fill="none" xmlns:v="https://vecta.io/nano"><g clip-path="url(#B)"><path d="M207.537 62.3623L0 86.7999V24.4376L207.537 0V62.3623Z" fill="#4d008c"/><g fill="#fff"><path d="M8.54499 50.2922l2.39861-15.2111-2.98559.3138.77254-4.9118L20.2848 29.272l-.776 4.9084-3.1204.3373-2.4019 15.2111-5.44151.5634zM21.8028 29.1095l10.1205-1.0626-.7489 4.7498-4.6688.4926-.4251 2.8 4.1865-.442-.7726 4.7533-4.1898.4385-.4791 3.0699 4.6689-.4925-.7455 4.7499-10.1205 1.0626 3.1744-20.1195zm12.647-1.3284l5.175-.5431 2.4559 11.6554.0539-.0573.4791-6.8752.7995-5.121 5.2289-.5499-3.1744 20.1195-5.2289.5499-2.2131-11.1831-.0539.0607-.533 5.6169-.9345 5.8968-5.2289.5499 3.1744-20.1195zm16.7261-1.758l10.1205-1.0627-.7456 4.7499-4.6723.4892-.425 2.8 4.1899-.4386-.7759 4.7533-4.1866.4385-.4824 3.0699 4.669-.4925-.7456 4.7499-10.1204 1.0626 3.1744-20.1195zm23.827 17.2822l1.4945-12.5966h-.054l-1.3865 4.4767-2.854 8.4067-4.4294.4757.1046-12.4482h-.0539l-.7726 4.4665-1.7609 8.2414-5.8429.614 5.5223-20.3691 6.7774-.7118-.1315 10.5387h.0505l1.12-3.7918 2.4019-7.1012 6.6998-.705-1.228 19.9036-5.6573.6004zm17.2889-21.9444c5.5224-.5803 6.828 4.6891 6.0555 9.5975s-3.8155 10.6366-9.3379 11.2169-6.8043-4.6925-6.0318-9.601 3.7884-10.6332 9.3142-11.2134zm-2.4829 15.744c2.0545-.2159 2.7764-4.3079 2.9889-5.5629s.7456-5.3267-1.3089-5.1108-2.773 4.3046-2.9619 5.5595-.7725 5.3301 1.2752 5.1142h.0067zm9.4392-3.0125c.5904 1.039 1.7099 2.0241 3.0969 1.879.746-.081 1.687-.6241 1.815-1.5046.046-.187.046-.3825 0-.5695s-.138-.3598-.267-.5033c-.211-.2741-.475-.5035-.775-.6746-.894-.6168-1.671-1.3879-2.294-2.2772-.586-1.0332-.776-2.2444-.533-3.4072.374-2.3614 2.533-6.7739 7.178-7.2631 1.269-.1322 2.551.0774 3.711.6072l-.961 6.1094c-.479-.9446-1.599-1.9566-2.854-1.825-.641.0674-1.495.6038-1.603 1.3763-.028.1917-.012.3871.047.5718s.158.3536.291.4943c.264.2638.549.5053.853.7219 1.012.6747 1.815 1.3494 2.297 2.1725s.675 1.8723.426 3.3937c-.587 3.7379-3.681 7-7.473 7.3981-1.329.1482-2.674.0125-3.9467-.3981l.9918-6.3016zm18.7599 4.6929l3.175-20.1195 5.445-.5735-2.429 15.373 4.082-.4318-.746 4.7498-9.527 1.002zm19.796-2.0817V34.16l-3.654.3845-.853 2.6347-5.604.587 8.006-20.6255 6.642-.6983 1.093 19.6708-5.63.5904zm.054-6.747l.135-4.6048.212-3.748h-.054l-1.12 3.8458-1.467 4.7465 2.294-.2395zm22.518 4.3753l-1.687-8.0626-.081.0607-.375 2.9518-.853 5.3638-5.442.5735 3.175-20.1195 5.256-.5532c4.723-.4959 7.924.5296 7.084 5.8395-.157 1.1508-.598 2.2446-1.283 3.1827s-1.592 1.6911-2.64 2.1913l2.722 7.9513-5.876.6207zm-.935-10.5287c1.441-.1518 2.429-1.491 2.615-2.7966.293-1.7609-.675-2.3952-2.159-2.159l-.803 4.9793.347-.0237zm11.126-10.3294l10.12-1.0627-.745 4.7499-4.669.4925-.428 2.8 4.189-.4419-.772 4.7533-4.19.4385-.479 3.0699 4.669-.4892-.749 4.7465-10.12 1.066 3.174-20.1228zm12.644-1.3291l4.385-.4588c6.194-.6511 8.913 2.8945 7.952 8.9803-1.468 9.2838-7.442 10.7513-10.752 11.1021l-4.75.4993 3.165-20.1229zm3.036 14.6916c2.483-.2868 3.39-3.4275 3.711-5.3234.337-2.1894.401-5.1851-2.082-4.9253l-1.629 10.2487zM16.5975 77.8029l-1.4405-2.4997c-.2599.1075-.527.1965-.7994.2665l-.803.1383c-5.52238.5802-6.80089-4.6925-6.02836-9.601S11.3146 55.4738 16.837 54.8936s6.8313 4.6891 6.0723 9.5975c-.5094 2.8608-1.5484 5.735-3.468 7.921l1.9466 2.5267-4.7904 2.8641zm-3.5219-12.2795c-.2125 1.255-.7725 5.3302 1.282 5.1142s2.7729-4.3079 2.9888-5.5628.7456-5.3268-1.3089-5.1109-2.773 4.3147-2.9585 5.5663l-.0034-.0068zm26.87-12.7114l-2.0814 13.1566c-.3711 2.4289-1.6868 7.3677-7.9784 8.0289s-6.0553-4.1662-5.6809-6.5918l2.0815-13.1566 5.4414-.5735-2.0005 12.6506c-.1229.5727-.1683 1.1593-.1349 1.7441.081.5431.3373.9345 1.0964.8569.3166-.0243.6191-.1407.8703-.335s.44-.4577.5431-.758c.2018-.5739.3354-1.1695.3981-1.7745l2.0039-12.6742 5.4414-.5735zm2.4018-.2532l10.1204-1.0627-.7455 4.7499-4.6689.4925-.4285 2.8 4.1899-.4419-.776 4.7532-4.1864.442-.4824 3.0665 4.6688-.4892-.7455 4.7499-10.1204 1.0626 3.1745-20.1228zm31.2151 16.5066l1.4945-12.5966h-.0541l-1.3864 4.4766-2.8574 8.4101-4.4294.4622.108-12.4482h-.054l-.7725 4.4632-1.761 8.2414-5.8429.614 5.5225-20.3692 6.7773-.7118-.135 10.5388h.054l1.12-3.7918 2.4019-7.1012 6.6964-.705-1.2246 19.9035-5.6573.614z"/><path d="M89.2758 67.4156v-2.547l-3.6568.3846-.8535 2.6347-5.6034.5903 8.0053-20.6289 6.6458-.6983 1.093 19.6709-5.6304.5937zm.0541-6.747l.1315-4.6082.2159-3.7479h-.054l-1.12 3.8424-1.4674 4.7465 2.294-.2328zm1.572-19.0332l4.1359-.4352-3.3735 4.76-2.9349.3104 2.1725-4.6352zm5.6813 18.3456c.5903 1.039 1.7103 2.024 3.0968 1.879.746-.0776 1.687-.6241 1.815-1.5012.046-.1875.046-.3836 0-.5711s-.138-.3609-.267-.5051c-.211-.2743-.474-.5037-.775-.6747-.8944-.6179-1.6712-1.3901-2.2944-2.2804-.586-1.0332-.7756-2.2445-.5331-3.4073.3745-2.3614 2.5335-6.7739 7.1785-7.2631 1.269-.1289 2.55.0806 3.711.6072l-.961 6.1128c-.479-.9479-1.599-1.9566-2.854-1.8251-.641.0675-1.495.6005-1.603 1.3731-.028.1916-.012.3871.047.5717s.158.3536.291.4943c.265.2639.55.5064.853.7253 1.012.6747 1.815 1.3291 2.298 2.1725s.674 1.8723.425 3.3937c-.587 3.7345-3.681 7-7.4693 7.3981-1.3301.1472-2.6764.0116-3.9504-.3981l.9919-6.3016zm32.0138-10.6874c-.641-.6747-1.228-1.012-2.361-.9075-2.827.2969-4.001 3.4916-4.349 5.7046-.374 2.3615-.162 5.266 2.561 4.9793 1.228-.1282 2.081-.6747 3.097-1.5856l-1.228 5.6675c-1.051.5694-2.203.9314-3.391 1.066-4.456.469-7.708-2.5233-6.615-9.4086 1.414-9.0174 7.843-11.1899 10.485-11.4699.911-.1215 1.836-.0584 2.722.1856l-.921 5.7686zm8.772 13.0688l-1.687-8.0626-.081.0607-.374 2.9518-.854 5.3639-5.441.5701 3.174-20.1195 5.256-.5533c4.723-.4959 7.924.5331 7.084 5.8429-.157 1.1505-.597 2.2438-1.282 3.1813s-1.593 1.69-2.641 2.1893l2.722 7.9547-5.876.6207zm-.935-10.532c1.441-.1518 2.429-1.4877 2.615-2.7932.293-1.761-.675-2.3952-2.159-2.1625l-.803 4.9658.347-.0101zm11.109-10.3263l10.121-1.0627-.746 4.7499-4.669.4891-.428 2.8 4.19-.4385-.773 4.7532-4.19.4386-.479 3.0699 4.669-.4926-.749 4.7499-10.12 1.0627 3.174-20.1195zm22.731 3.4109c-.641-.6747-1.228-1.012-2.362-.9074-2.827.2968-4.001 3.4915-4.348 5.7045-.375 2.3615-.162 5.266 2.56 4.9793 1.228-.1282 2.082-.6916 3.097-1.5855l-1.228 5.6674c-1.051.5684-2.202.9292-3.39 1.0627-4.457.4689-7.709-2.52-6.616-9.4053 1.414-9.0207 7.844-11.1899 10.485-11.4699.911-.1197 1.836-.0567 2.723.1856l-.921 5.7686zm3.495-6.1673l10.12-1.0626-.745 4.7498-4.669.4892-.429 2.8 4.19-.4386-.772 4.7499-4.19.4419-.479 3.0699 4.669-.4925-.749 4.7499-10.121 1.0626 3.175-20.1195z"/></g></g><g filter="url(#A)"><path d="M214.214 58.2035l-.798.0542-.149.0102-.249.0169c-.1.0068-.203-.0396-.349.0237-.096.06-.188.1732-.285.2332-.188.1732-.48.3-.665.5264-.092.1132-.181.2796-.327.3429-.291.1268-.605-.0657-.9.0078-.1.0068-.246.0702-.342.1302-.341.1301-.687.2071-1.039.1776-.1.0068-.203-.0397-.249.0169-.452-.0227-.908-.0986-1.357-.0681-.352-.0295-.701-.0058-1.042.1244-.096.06-.192.12-.342.1301l-.349.0237c-.249.017-.487.1936-.683.2603-.246.0702-.448.0305-.698.0475-.299.0203-.537.1969-.839.164-.25.017-.556-.0691-.748.0509-.05.0033-.096.0599-.146.0633s-.103-.0464-.157-.0962c-.106-.0997-.256-.0895-.405-.0793-.05.0034-.146.0633-.196.0667s-.05.0034-.103-.0464c-.05.0034-.1.0068-.154-.043l-.559-.1224c-.103-.0464-.206-.0929-.356-.0827-.099.0068-.245.0702-.288.18-.149.0101-.295.0735-.391.1335s-.142.1166-.238.1766c-.139.1698-.385.2399-.58.3067l-.05.0034s-.004-.0532-.054-.0498c-.057-.1031-.064-.2095-.071-.3159-.246.0702-.438.1901-.626.3633-.096.06-.139.1698-.235.2298-.284.2332-.619.4698-.96.5999-.096.06-.196.0668-.296.0736-.05.0033-.153-.0431-.203-.0397-.099.0068-.195.0668-.245.0702-.342.1301-.74.1572-1.05.0179-.05.0034-.104-.0464-.157-.0962-.107-.0997-.114-.2061-.171-.3091-.281.2863-.566.5195-.904.7029s-.733.2637-1.092.1278c-.104-.0465-.203-.0397-.307-.0861s-.16-.1495-.167-.2559c-.238.1766-.473.4063-.708.6361-.046.0566-.046.0566-.042.1098l.007.1065-.046.0566c-.434.2433-.918.49-1.413.5771l-.448.0305c-.15.0102-.246.0702-.395.0804-.196.0667-.395.0803-.545.0905-.199.0135-.395.0803-.594.0938-.395.0804-.794.1075-1.143.1312l-.957-.0952c-.1.0067-.154-.0431-.207-.0929l-.107-.0996-.1.0067c-.149.0102-.245.0702-.395.0804s-.299.0203-.405-.0794c-.111-.1528-.31-.1393-.513-.1789l-.759-.1088c-.199.0136-.398.0271-.541.1437-.11-.1529-.309-.1393-.509-.1257l-.498.0338c-.199.0136-.399.0272-.602-.0125-.103-.0464-.206-.0929-.356-.0827-.153-.043-.348.0237-.494.0871-.15.0102-.349.0237-.46-.1291l.05-.0034c.046-.0566-.057-.103-.107-.0997-.203-.0396-.352-.0294-.552-.0159.004.0532.061.1563.115.2061-.047.0566-.196.0667-.25.0169-.103-.0464-.206-.0928-.252-.0362-.05.0033-.096.0599-.146.0633s-.103-.0464-.107-.0996c-.103-.0464-.249.0169-.342.1301s-.188.1732-.338.1834-.256-.0895-.413-.1857c-.203-.0397-.398.0271-.544.0905-.05.0033-.146.0633-.196.0667l-1.068-.2481c-.05.0034-.103-.0464-.203-.0396-.306-.0861-.563-.1756-.865-.2085-.356-.0827-.712-.1654-1.061-.1416.053.0498.057.103.11.1528-.107-.0996-.256-.0895-.406-.0793-.099.0068-.145.0634-.195.0668-.246.0701-.506-.0726-.808-.1054-.403-.0261-.794.1074-1.2.0281-.103-.0464-.207-.0929-.36-.1359-.103-.0465-.203-.0397-.306-.0861-.05.0034-.1.0068-.153-.0431l-.609-.1189c-.05.0034-.153-.0431-.249.0169-.1.0068-.192.12-.338.1834-.338.1833-.79.1606-1.071.447-.092.1132-.303-.0329-.448.0305.003.0532.018.2661-.128.3295-.05.0033-.1.0067-.146.0633-.146.0634-.285.2332-.427.3498s-.345.0769-.544.0905c-.253-.0363-.502-.0193-.805-.0522l-.249.0169c-.05.0034-.146.0634-.192.12-.285.2332-.63.3101-.925.3837-.05.0034-.146.0634-.196.0667-.046.0566-.096.06-.192.12l-.715.5298c-.05.0033-.046.0566-.096.0599s-.053-.0498-.103-.0464c-.104-.0464-.299.0203-.395.0803-.093.1132-.235.2298-.335.2366s-.302-.0329-.345.0769c-.046.0566.011.1597-.039.1631l-.046.0566c-.146.0633-.295.0735-.441.1369-.05.0034-.1.0068-.096.06s.003.0532-.043.1098c-.039.163-.188.1732-.338.1833-.299.0204-.598.0407-.893.1143-.146.0633-.296.0735-.384.2399-.182.2796-.63.3101-.94.1708-.053-.0498-.107-.0996-.057-.103-.349.0237-.698.0474-1.054-.0353-.05.0034-.103-.0464-.057-.103-.295.0736-.583.2535-.871.4335-.047.0566-.143.1166-.193.12-.096.06-.249.0169-.345.0769-.149.0102-.242.1234-.391.1335-.146.0634-.296.0736-.399.0271-.003-.0532-.007-.1064-.057-.103l-.1.0068c-.245.0701-.537.1969-.747.0508-.05.0034-.053-.0498-.057-.103l-.004-.0532s-.05.0034-.053-.0498c-.253-.0363-.506-.0726-.694.1006-.054-.0498-.203-.0396-.249.017-.246.0701-.591.1471-.84.164-.05.0034-.1.0068-.146.0634s-.043.1098-.089.1664-.1.0068-.199.0135c-.15.0102-.246.0702-.342.1302-.242.1234-.544.0905-.793.1074-.2.0136-.346.077-.545.0905-.794.1075-1.563-.161-2.3.0495-.231.283-.511.5694-.853.6995-.196.0668-.441.1369-.69.1539-.15.0102-.349.0237-.506-.0725.007.1064-.085.2196-.181.2796s-.196.0667-.296.0735c-.295.0736-.647.0441-.95.0112.053.0498.007.1064.007.1064l-.149.0102c-.249.0169-.431.2965-.726.3701-.1.0068-.199.0135-.246.0701-.049.0034-.096.06-.142.1166-.142.1166-.288.18-.434.2434-.242.1233-.533.2501-.794.1074-.053-.0498-.103-.0464-.153-.043s-.046.0566-.092.1132c-.085.2196-.388.1867-.591.1471-.153-.0431-.302-.0329-.505-.0726-.089.1664-.278.3396-.473.4064-.242.1234-.491.1403-.794.1074-.153-.043-.356-.0827-.506-.0725-.501-.0193-1.032.284-1.448.0451-.05.0034-.054-.0498-.104-.0465s-.145.0634-.195.0668c-.146.0634-.303-.0329-.364-.1891l-.476.3531c-.157-.0962-.349.0238-.545.0905-.387.1868-.779.3203-1.17.4539-.196.0667-.442.1369-.641.1504-.149.0102-.352-.0295-.502-.0193s-.295.0736-.441.1369c-.196.0668-.399.0271-.602-.0125l-.608-.119c-.05.0034-.1.0068-.154-.043-.049.0034-.053-.0498-.103-.0464-.157-.0963-.345.0769-.505-.0726l-.107-.0996-.15.0101c-.338.1834-.794.1075-1.181.2942-.096.06-.196.0668-.296.0736-.049.0034-.099.0068-.153-.0431-.153-.043-.299.0204-.445.0837-.256-.0894-.505-.0725-.751-.0023-.053-.0499-.153-.0431-.203-.0397l-.875.3803c-.242.1233-.534.2501-.786.2138-.15.0102-.353-.0294-.506-.0725-.05.0034-.103-.0464-.149.0102-.05.0034-.096.06-.146.0634s-.1.0067-.153-.0431c.007.1064-.089.1664-.189.1732s-.203-.0397-.253-.0363c-.356-.0827-.701-.0057-1.05.018-.099.0068-.245.0701-.345.0769-.146.0634-.288.18-.491.1403-.05.0034-.103-.0464-.153-.043-.1.0068-.146.0634-.242.1234-.238.1765-.534.2501-.844.1108-.053-.0498-.153-.0431-.206-.0929-.153-.043-.299.0204-.338.1834l-.836.2172-1.232.2976c-.245.0702-.491.1403-.744.104-.099.0068-.252-.0362-.352-.0294-.149.0101-.242.1233-.391.1335-.1.0068-.2.0135-.246.0701-.196.0668-.341.1302-.534.2502-.391.1335-.793.1074-1.192.1345-.349.0237-.698.0475-1.039.1776-.146.0634-.292.1268-.441.1369-.25.017-.513-.1789-.705-.0589l-.007-.1065c-.054-.0498-.154-.043-.2.0136-.302-.0329-.648.0441-.939.1708-.054-.0498-.207-.0929-.253-.0363s-.192.12-.242.1234c-.146.0634-.345.0769-.545.0905-.053-.0498-.106-.0996-.206-.0929-.05.0034-.146.0634-.192.12-.146.0634-.296.0736-.399.0271-.153-.043-.36-.1359-.452-.0227 0 0-.05.0034-.046.0566-.046.0566-.096.06-.15.0102-.302-.0329-.651-.0092-.954-.042-.199.0135-.352-.0295-.544.0904-.096.06-.189.1732-.285.2332-.05.0034-.099.0068-.146.0634.004.0532.004.0532-.042.1098.003.0532-.093.1132-.146.0634-.05.0034-.103-.0464-.153-.0431-.153-.043-.303-.0328-.452-.0227l-1.584.2681-1.63.3247-.598.0407-.1.0067c-.05.0034-.053-.0498-.053-.0498-.103-.0464-.207-.0928-.306-.0861-.25.017-.499.0339-.741.1573-.049.0034-.049.0034-.096.06-.049.0034-.046.0566-.042.1098-.089.1664-.231.283-.381.2932-.099.0067-.149.0101-.253-.0363-.202-.0397-.398.0271-.544.0905-.295.0735-.545.0905-.794.1074-.3984.0271-.7898.1607-1.1812.2942-.4875.1935-1.0501.018-1.5484.0519l-.3488.0237c-.0997.0068-.2528-.0363-.3525-.0295-.2029-.0397-.4023-.0261-.6052-.0658-.0997.0068-.2528-.0362-.3561-.0827-.0498.0034-.1531-.043-.2029-.0396-.0997.0068-.1921.12-.3452.0769l-.0072-.1064c-.6089-.119-1.2639-.1813-1.9081-.0841-.598.0407-1.1887.1878-1.7296.3315-.1957.0668-.3452.0769-.5373.1969-.0961.06-.2419.1234-.3416.1302-.1459.0633-.2954.0735-.4412.1369-.4449.0837-.8898.1674-1.3455.0915-.0996.0068-.2029-.0397-.3026-.0329-.1993.0136-.3488.0237-.5409.1437-.4593-.1291-.9577-.0952-1.4451.0983-.0635.5389-.3018.7155-.6008.7358l-.2491.0169c-.203-.0396-.4521-.0227-.6551-.0623-.1993.0135-.4022-.0261-.559-.1224-.0534-.0498-.1567-.0962-.2528-.0362-.0036-.0533-.057-.1031-.1069-.0997l-.0072-.1064c-.1033-.0464-.1993.0135-.2954.0735l-.4766.3532c-.096.06-.1884.1732-.2845.2332-.1458.0634-.2881.1799-.3841.2399-.0499.0034-.0961.06-.1459.0634-.0997.0068-.1993.0136-.2419.1234-.0571-.1031-.2102-.1461-.3063-.0861-.0996.0068-.1957.0668-.2917.1267-.2419.1234-.5337.2502-.7792.3203l-.0997.0068c-.0498.0034-.0534-.0498-.0534-.0498-.0535-.0498-.1994.0135-.2954.0735s-.203-.0396-.3026-.0329c-.1033-.0464-.2528-.0362-.2954.0736-.3452.0769-.7049-.059-1.1035-.0319l-.2492.017c-.0996.0068-.2029-.0397-.3026-.0329l-.8081-.1054-.1495.0102c-.0499.0033-.0961.0599-.0961.0599-.0996.0068-.2029-.0396-.3026-.0328-.2029-.0397-.4022-.0261-.5409.1437-.096.06-.1386.1698-.2383.1766s-.1531-.0431-.2528-.0363c-.1993.0135-.3841.2399-.5907.1471-.0498.0034-.1033-.0465-.1531-.0431-.1033-.0464-.203-.0396-.2528-.0362-.1993.0135-.3986.0271-.5907.1471-.0462.0566-.1459.0633-.1957.0667-.2637-.1959-.5201-.2854-.7121-.1654-.0961.06-.1423.1166-.242.1234-.0498.0034-.0996.0068-.1531-.043-.2528-.0363-.4911.1403-.733.2636-.1921.12-.3379.1834-.5336.2502-.1459.0633-.2954.0735-.3915.1335-.1957.0668-.395.0803-.5943.0939-.299.0203-.5871.2003-.8471.0576-.0499.0034-.0535-.0498-.1033-.0465-.0535-.0498-.1495.0102-.1994.0136-.3986.0271-.7936.1074-1.1851.241l-.8254.3769-.6976.0474c-.1495.0102-.2492.0169-.4023-.0261-.1033-.0464-.2102-.1461-.2672-.2491-.0037-.0532-.0036-.0532-.0535-.0498-.0534-.0498-.0996.0068-.0996.0068-.0997.0067-.2528-.0363-.3525-.0295-.2029-.0397-.4521-.0227-.6442.0972 0 0-.0534-.0498-.1033-.0464-.2029-.0397-.4484.0305-.6478.0441-.0498.0033-.1458.0633-.1957.0667-.0996.0068-.1531-.043-.2527-.0362l-.299.0203c-.2492.0169-.4983.0339-.6941.1007-.0108-.1597-.2138-.1993-.4131-.1858-.1495.0102-.3452.077-.4983.0339-.0498.0034-.1033-.0464-.1495.0102l.0073.1064c.0036.0532-.0463.0566-.0925.1132-.3841.24-.8254.3769-1.224.404-.0499.0034-.1495.0102-.203-.0397-.0498.0034-.1033-.0464-.1033-.0464-.1531-.043-.2953.0736-.4983.0339-.0498.0034-.1033-.0464-.0996.0068-.0499.0034-.0463.0566-.0925.1132-.0924.1132-.1884.1732-.2881.1799-.3878.1868-.8254.3769-1.2775.3542-.4983.0339-1.0111-.1451-1.5131-.1644-.0996.0068-.1495.0102-.2455.0702-.7121-.1654-1.456-.0614-2.1464.0925l-1.1851.241-.2491.0169c-.0997.0068-.203-.0396-.3026-.0329-.203-.0396-.4023-.0261-.6514-.0091l-.3489.0237c-.3488.0237-.6514-.0091-1.0002.0146l-.1495.0102c-.0961.0599-.1921.1199-.2347.2297-.3733.3996-.9215.4369-1.466.5274-.4448.0837-.9323.2772-1.3129.5704-.096.06-.2383.1766-.3379.1834s-.299.0203-.4059-.0794c-.203-.0396-.4059-.0793-.6052-.0657-.3987.0271-.7937.1074-1.1851.241-.4413.1369-.8716.4334-1.3274.3575l-.1495.0102-.1495.0102c-.1458.0633-.2455.0701-.3914.1335-.0996.0068-.1957.0668-.2953.0735-.1459.0634-.2846.2332-.4839.2468-.0996.0068-.1459.0634-.1921.12.0037.0532-.0462.0566-.0426.1098-.0462.0566-.0924.1132-.1884.1732s-.1423.1165-.135.223.0643.2094.1603.1494c.0036.0532-.0924.1132-.1386.1698s.0072.1065.0607.1563.1069.0996.1105.1528-.039.1631-.0925.1132c.1142.2061.2356.5186.1005.7416.0109.1596-.0851.2196-.0779.326s.1603.1495.1676.2559-.0888.1664-.0852.2196.0534.0499.0571.1031c.1069.0996.0715.3159-.0209.4291-.0498.0033-.0961.0599-.0426.1098.0571.103.1567.0962.1603.1494.0218.3193-.2093.6023-.3371.9317l-.2483.7653c-.0462.0566-.039.163.0181.2661.0036.0532.0534.0498.0571.103s.0072.1064-.039.163c-.0888.1664-.0743.3793-.0635.5389s.0217.3193.0824.4755.0752.3691.1359.5254c.0643.2094.2246.3589.2391.5717l.0217.3193c.0109.1596.0253.3725.086.5287-.1386.1698.029.4257.0471.6917.0607.1563.0217.3193.0362.5322.0181.266-.0137.5355-.0454.8049-.039.163-.078.326-.0635.5389.0961-.06.2528.0363.2636.1959-.1386.1698-.1703.4392-.2021.7087l.0073.1064c.0036.0532.057.103.0607.1562.0606.1563.1712.3091.2282.4122.0037.0532.0535.0498.0073.1064.0036.0532-.0426.1098-.0925.1132-.1422.1166-.2808.2864-.4729.4064.2065.0928.3243.3521.3922.6148l.0109.1596c.0036.0532-.0462.0566-.0925.1132-.1422.1166-.1848.2264-.2238.3899-.1957.066-.434.243-.5726.413-.0036-.054-.1033-.047-.0961.06.0037.053.0607.156.0643.209.0073.107-.0924.113-.192.12s-.1958.067-.2383.177.018.266.1177.259c.0145.213.029.426-.0028.695.0109.16.0716.316.1712.309-.0389.163-.0281.323-.0671.486.0037.053.0037.053-.0426.11s-.096.06-.0888.166c.0037.053.0535.05.0571.103.2636.196.3886.562.4103.881-.0281.323-.1558.652-.2836.981.0036.054-.0426.11-.0426.11.0072.107.0607.157.1141.206.1178.26.0362.532-.0417.859-.0499.003-.0463.056-.039.163.0036.053.0607.156.0643.209.2246.359.3533.778.3786 1.15l.0072.107c.0036.053.0535.05.1033.046l.6695.275c.0499-.003.1033.047.0997-.006.0498-.004.0462-.057.0426-.11.0462-.057.1422-.117.1885-.173l1.0175-.497c.2174.252.6586.115.9685.255.0534.049.1033.046.1531.043l.1993-.014c.1459-.063.3452-.077.4983-.034.1033.047.2564.09.3561.083s.2491-.017.2881-.18c1.6336-.272 3.2109.102 4.7565.746.1033.046.2564.089.3561.082.1495-.01.2917-.126.3842-.24.8499-.752 2.1029-.731 3.2064-.699l1.6055.051c.6016.013 1.253.022 1.6726-.434.5119-.57 1.3735-.414 2.0539.02.3135.193.6342.492.9866.521.3561.083.6976-.047.9894-.174 1.861-.607 3.7437-.896 5.6799-1.134l4.1179-.548c.5944-.094 1.1924-.134 1.7405-.172.598-.04 1.2032.025 1.8583.088l2.766.186c1.3065.071 2.7661.186 3.8651-.584.3842-.24.8146-.536 1.2169-.51.1993-.014.4022.026.598-.041s.3343-.236.4802-.3c.2419-.123.5445-.09.7547.056.0534.05.1069.099.2065.093.0499-.004.0961-.06.0961-.06.1848-.227.5409-.144.8435-.111.2029.04.463.182.6695.275.1033.047.2066.093.3062.086l.299-.02c.1994-.014.3951-.08.5482-.037.0498-.004.1531.043.2029.039s.0961-.06.1423-.116c.096-.06.1993-.014.299-.021.3026.033.6016.013.8969-.061.0499-.003.1459-.063.1957-.066.0997-.007.2528.036.3489-.024.1032.046.1495-.01.2455-.07s.1423-.117.2383-.177.2455-.07.3416-.13.2419-.123.3379-.183c.1459-.064.2492-.017.3987-.028s.2528.037.4023.027c.0353-.217.174-.386.3234-.397.0499-.003.0997-.006.0961-.06 0 0-.0036-.053.0462-.056-.0036-.053.0462-.057.096-.06.1495-.01.2528.036.4023.026s.299-.02.3914-.134c.377-.346.9324-.277 1.427-.364.0997-.007.1994-.014.2456-.07.0498-.004.096-.06.1459-.064l.2491-.016c.1495-.011.3026.032.4557.075.0499-.003.1033.047.1532.043s.096-.06.1458-.063c.0997-.007.2066.093.3063.086s.2419-.123.3452-.077c.0498-.003.0534.05.1032.047.0535.05.1495-.01.2492-.017.1993-.014.356.082.5092.125l.4593.13c.2528.036.5554.069.694-.101.1993-.014.4449-.084.6334-.257.0462-.057.096-.06.1458-.063l.0499-.004.0996-.006c.2523.036.5443-.091.7293-.317.046-.057.093-.114.142-.117l.1-.007c.15-.01.249-.017.391-.133.146-.064.185-.227.331-.29.096-.06.246-.07.345-.077l.288-.18c.289-.18.634-.257.986-.227.253.036.456.076.702.005.099-.006.249-.017.395-.08.099-.007.145-.063.245-.07.146-.063.345-.077.495-.087l.149-.01c.1-.007.207.093.356.082.1-.006.153.043.253.037.303.032.594-.094.897-.061.199-.014.406.079.605.065.15-.01.296-.073.445-.083s.303.033.456.076l.559.122c-.05.003-.096.06-.096.06.648-.044 1.228-.351 1.804-.711.096-.06.199-.013.299-.02.05-.004.099-.007.146-.064.195-.066.398-.027.598-.04.348-.024.74-.157 1.092-.128l.05-.003s-.05.003 0 0l1.819-.4982c.099-.0068.245-.0702.345-.077s.253.0363.352.0295c.153.0431.299-.0203.449-.0305.598-.0406 1.196-.0813 1.733-.2782.004.0532.053.0498.103.0464.249-.0169.286.515.535.4982-.05.0034-.15.0102-.196.0668.053.05.157.096.256.089l-.149.011c-.004-.054-.007-.107.042-.11.364.189.812.158 1.196-.0815.05-.0034.011.1595-.042.1095.31.14.662.169.954.042.146-.063.341-.1298.495-.087.103.047.256.09.356.083.049-.003.146-.063.195-.067.431-.2964.915-.5431 1.398-.7899.096-.06.192-.1199.296-.0735.099-.0068.206.0929.214.1993.199-.0136.395-.0803.594-.0939l.014.2128c.05-.0034.093-.1132.039-.163.096-.06.196-.0668.296-.0735.007.1064-.085.2196-.185.2264.004.0532.057.103.103.0464.05-.0034.096-.06.093-.1132.138-.1698.334-.2366.541-.1437.153.043.348-.0237.501.0193.05-.0034.104.0465.154.0431.099-.0068.142-.1166.192-.12.003.0532.06.1562.11.1528s.093-.1132.139-.1698c.092-.1132.249-.0169.345-.0769l.007.1064c.1-.0067.2-.0135.292-.1267l.007.1064c.15-.0102.296-.0735.438-.1901.053.0498.153.043.206.0928-.049.0034-.096.06-.092.1132.1-.0067.207.0929.356.0827.05-.0034.096-.06.142-.1166s.093-.1132.192-.1199c.096-.06.189-.1732.289-.18.096-.06.195-.0668.295-.0736s.249-.0169.352.0295.161.1495.257.0895c-.011-.1596.081-.2728.231-.283l.05-.0034.149-.0101c.495-.0871.94-.1709 1.377-.361.05-.0034.104.0464.15-.0102l-.004-.0532c-.003-.0532.093-.1132.146-.0634l.007.1065c.146-.0634.292-.1268.442-.137.099-.0067.249-.0169.345-.0769.299-.0203.594-.0939.836-.2172l.004.0532c.107.0996.252.0362.398-.0271s.288-.18.278-.3396l.01.1596c.004.0532.05-.0034.1-.0068l.139-.1698c.05-.0034.053.0498.103.0465-.046.0566-.043.1098-.035.2162.049-.0034.146-.0634.142-.1166.046-.0566.089-.1664.139-.1698.099-.0068.21.1461.306.0861.05-.0034.046-.0566.096-.06s.107.0996.16.1495c.057.103.21.146.31.1393l.149-.0102c.15-.0102.253.0363.399-.0271s.285-.2332.434-.2434.303.0329.399-.0271c0 0 .046-.0566.05-.0034l.053.0499c.054.0498.146-.0634.249-.017.05-.0034.054.0498.104.0464s.099-.0067.145-.0633c.146-.0634.342-.1302.495-.0871.05-.0034.1-.0068.103.0464 0 0 .004.0532.054.0498.053.0498.099-.0068.149-.0102 0 0 .004.0533.054.0499.053.0498.156.0962.203.0396l.092-.1132c.046-.0566.096-.06.15-.0101-.047.0566-.096.0599-.093.1132s.054.0498.107.0996l.1-.0068c.003.0532-.043.1098-.093.1132.054.0498.153.0431.203.0397-.053-.0498.039-.163.089-.1664.096-.06.146-.0634.242-.1234l.1-.0068.003.0532c.004.0532.057.1031.107.0997-.007-.1064.089-.1664.189-.1732-.047.0566-.039.163.014.2128s.096-.06.196-.0667l.149-.0102c.15-.0102.299-.0203.392-.1335.053.0498.11.1528.114.206s-.046.0566-.043.1098.008.1065.057.1031c.185-.2264.473-.4064.772-.4267.143-.1166.342-.1302.502.0193l.054.0498.149-.0102c.05-.0033.153.0431.207.0929.21.1461.466.2356.666.222.252.0363.544-.0905.79-.1606l.007.1064c.196-.0668.445-.0837.641-.1505l.149-.0102c.05-.0034.103.0465.153.0431s.15-.0102.196-.0668c.242-.1234.484-.2467.672-.4199.096-.06.189-.1732.285-.2332.195-.0668.395-.0803.594-.0939.246-.0701.484-.2467.672-.4199.143-.1166.285-.2332.324-.3962-.004-.0532-.004-.0532.042-.1098.043-.1098.146-.0634.246-.0702.196-.0667.135-.223.338-.1833.192-.12.388-.1868.64-.1505.05-.0034.1-.0068.146-.0634l.047-.0566c.092-.1132.345-.0769.434-.2433l.046-.0566.053.0498c.057.103.196-.0668.299-.0203-.003-.0532.046-.0566.1-.0068s.053.0498.103.0464l.1-.0068c.199-.0135.448-.0305.644-.0972.05-.0034.103.0464.153.043l-.003-.0532c.206.0929.409.1325.658.1156l.249-.017c.15-.0101.299-.0203.395-.0803.2-.0135.395-.0803.595-.0939l-.381.2932s-.05.0034-.046.0566.007.1064.057.103.05-.0034.096-.06c.238-.1765.48-.2999.779-.3202.399-.0271.858.102 1.196-.0814.196-.0667.335-.2365.53-.3033.246-.0702.506.0725.751.0024.05-.0034.1-.0068.146-.0634l.093-.1132c.096-.06.249-.017.352.0295s.21.1461.314.1925c-.004-.0532-.008-.1064-.057-.103.046-.0566.199-.0136.202.0396l.2-.0135c.199-.0136.498-.0339.69-.1539.05-.0034.046-.0566.096-.06s.1-.0068.104.0464c.103.0465.252.0363.352.0295.149-.0101.349-.0237.495-.0871.096-.06.195-.0668.291-.1267s.143-.1166.242-.1234c-.05.0034-.096.06-.088.1664.099-.0068.202.0397.249-.0169l.046-.0566s.046-.0566.05-.0034.11.1528.156.0962c.05-.0034.047-.0566.096-.06.093-.1132.136-.223.228-.3362-.046.0566.011.1597.064.2095.05-.0034.096-.06.146-.0634l.05-.0034c.05-.0034.1-.0068.096-.06.046-.0566.096-.06.092-.1132.047-.0566.043-.1098.039-.163.096-.06.196-.0668.342-.1301l.05-.0034c.05-.0034.053.0498.103.0464.103.0464.207.0929.253.0363-.05.0034-.046.0566-.093.1132l.004.0532.05-.0034c.003.0532-.043.1098-.089.1664.054.0498.103.0464.15-.0102.096-.06.142-.1166.245-.0701-.046.0566-.042.1098.007.1064.196-.0668.395-.0803.641-.1505.05-.0034.096-.06.092-.1132.061.1563.211.1461.356.0827s.239-.1766.338-.1833.2-.0136.303.0328c.253.0363.502.0194.744-.104.046-.0566.142-.1166.192-.12.196-.0668.395-.0803.64-.1505.004.0532.058.1031.107.0997s.1-.0068.146-.0634c.434-.2434.979-.3338 1.442-.1515.003.0532.003.0532-.043.1098.004.0532.103.0464.15-.0102.096-.0599.195-.0667.295-.0735l1.196-.0813c.057.103.11.1528.168.2558.046-.0566.085-.2196.028-.3226.437-.1901.932-.2772 1.377-.361l.249-.0169c.05-.0034.103.0464.153.043s.1-.0067.146-.0633l.914-.5433c.111.1528.264.1959.41.1325.391-.1335.84-.164 1.284-.2478.396-.0803.791-.1606 1.143-.1311l.149-.0102c.05-.0034.097-.06.146-.0634.192-.1199.392-.1335.641-.1504l1.296-.0882 1.356.0682c1.103.0318 2.189-.2024 3.224-.4332.246-.0701.495-.0871.748-.0508s.466.2356.723.325.555.0692.74-.1572c.089-.1664.345-.077.548-.0373l.559.1224c.1-.0068.203.0396.303.0328.253.0363.505.0726.755.0556.099-.0068.202.0397.299-.0203.099-.0068.195-.0668.299-.0204s.156.0963.256.0895c.05-.0034.146-.0634.196-.0667.096-.06.146-.0634.245-.0702.399-.0271.797-.0542 1.203.0251.05-.0034.153.043.203.0396.153.0431.303.0329.506.0726l.1-.0068c.049-.0034.096-.06.142-.1166.142-.1166.231-.283.373-.3996.185-.2264.537-.1969.794-.1074.103.0464.21.1461.31.1393.206.0928.448-.0305.655.0623.053.0499.156.0963.21.1461s.149-.0102.249-.0169c.545-.0905 1.085-.2342 1.626-.3779.15-.0102.296-.0736.442-.1369l.387-.1868c.246-.0701.545-.0905.794-.1074.349-.0238.701.0057 1.05-.018l.349-.0237c.096-.06.146-.0634.242-.1234.196-.0667.395-.0803.594-.0939s.392-.1335.427-.3497c-.004-.0532-.007-.1064.039-.163-.004-.0533.046-.0566.092-.1132.285-.2332.676-.3668 1.075-.3939.199-.0135.452.0227.644-.0972s.456.0759.648-.0441l.288-.18c.096-.06.196-.0667.246-.0701.249-.017.494-.0871.743-.1041.05-.0034.15-.0101.146-.0633s.047-.0566.043-.1099.046-.0566.096-.0599c.146-.0634.342-.1302.495-.0872-.011-.1596.185-.2264.288-.1799s.256.0895.402.0261l.1-.0068.003.0532c.004.0532.054.0498.104.0464.302.0329.551.016.854.0489.05-.0034.15-.0102.203.0396.05-.0034.103.0464.157.0963.153.043.288-.18.437-.1902.05-.0034.1-.0067.153.0431.257.0895.51.1257.805.0522.246-.0702.487-.1936.733-.2637s.548-.0373.708.1122c.054.0498.058.103.107.0996s.1-.0068.096-.06c.096-.06.189-.1732.285-.2331l.249-.017.1-.0068c.05-.0034.05-.0034.053.0499.054.0498.153.043.253.0362l.698-.0474c.049-.0034.149-.0102.195-.0668.05-.0034.047-.0566.093-.1132s.096-.06.146-.0634c.096-.06.245-.0701.341-.1301.05-.0034.146-.0634.196-.0668l.199-.0135c.1-.0068.146-.0634.242-.1234s.189-.1732.285-.2332c.05-.0034.046-.0566.042-.1098l-.003-.0532s-.004-.0532.046-.0566c.096-.06.138-.1698.235-.2298.046-.0566.142-.1166.238-.1766.05-.0034.149-.0101.203.0397.406.0793.797-.0542 1.249-.0315.1-.0068.253.0362.353.0294.199-.0135.398-.0271.594-.0938.246-.0702.495-.0871.74-.1573l.1-.0068s.05-.0034.053.0499c.157.0962.314.1925.46.1291.049-.0034.096-.06.146-.0634l.199-.0135c.502.0193.989-.1743 1.449-.0451.142-.1166.288-.18.437-.1902l-.007-.1064c.199-.0135.345-.0769.545-.0905.099-.0067.199-.0135.252.0363s.057.103.107.0996c.1-.0067.093-.1132.139-.1698.092-.1132.238-.1765.388-.1867s.302.0329.448-.0305c.05-.0034.146-.0634.192-.12.096-.06.196-.0668.296-.0735.249-.017.494-.0871.79-.1607.245-.0701.491-.1403.694-.1006.053.0498.153.043.203.0396s.046-.0566.046-.0566c.092-.1132.295-.0735.441-.1369.196-.0668.288-.18.427-.3498.135-.223.27-.446.355-.6656.078-.3261.106-.6487.035-.9646l-.011-.1596c-.004-.0532.046-.0566.042-.1098.047-.0566.043-.1098.036-.2163-.015-.2128-.076-.3691-.14-.5785-.003-.0532-.057-.103-.061-.1563-.01-.1596.029-.3226.121-.4358.043-.1098-.014-.2128-.072-.3159-.003-.0532-.057-.103-.06-.1562-.057-.1031-.015-.2129-.075-.3691-.076-.3691-.439-.5582-.464-.9307l-.007-.1064c-.004-.0532-.054-.0498-.057-.1031l-.268-.2491c-.053-.0498-.107-.0996-.164-.2026s-.014-.2129-.018-.2661c-.014-.2128-.125-.3657-.089-.5819-.008-.1064.035-.2163.081-.2729l.22-.4426c.043-.1098.132-.2762.125-.3826-.004-.0532-.008-.1065-.065-.2095l-.011-.1596c.036-.2163.021-.4291.057-.6453.039-.1631.024-.3759-.133-.4722l-.053-.0498c.039-.163-.072-.3159-.132-.4721-.057-.103-.168-.2559-.225-.3589s-.064-.2095-.075-.3691c-.015-.2128.074-.3793.063-.5389-.007-.1064-.064-.2094-.068-.2627-.117-.2592-.285-.5151-.353-.7778-.125-.3657-.108-.848.07-1.1808.046-.0566.089-.1664.082-.2728-.004-.0532-.008-.1064-.057-.1031-.122-.3124-.147-.6849-.019-1.0144l-.004-.0532s-.004-.0532-.053-.0498c-.054-.0498-.111-.1528-.164-.2027-.05.0034-.097.06-.093.1132.035-.2162.064-.5389.049-.7517-.007-.1064.035-.2162.028-.3227.043-.1098.082-.2728.075-.3792-.015-.2129-.179-.4155-.144-.6318-.099.0068-.153-.043-.16-.1494s.039-.163.085-.2196.143-.1166.185-.2264c.046-.0566.043-.1099.039-.1631-.007-.1064.039-.163.032-.2694l-.007-.1064c-.004-.0532-.054-.0499-.057-.1031-.111-.1528-.076-.3691-.186-.5219-.057-.103-.16-.1495-.214-.1993s-.16-.1495-.168-.2559-.067-.2627-.125-.3657c-.106-.0996-.21-.1461-.267-.2491-.16-.1495-.228-.4121-.246-.6782-.011-.1596-.025-.3725.067-.4857.046-.0566.043-.1098.089-.1664.042-.1098.035-.2162.028-.3226.039-.163.081-.2729.124-.3827s.032-.2694-.075-.3691c-.324-.3521-.272-1.0506-.554-1.5126-.057-.103-.11-.1528-.167-.2559s-.061-.1562-.068-.2626c-.018-.2661-.036-.5321.049-.7518.046-.0566.089-.1664.085-.2196s-.061-.1562-.16-.1494c-.065-.2095-.075-.3691-.136-.5254l-.011-.1596c-.004-.0532.043-.1098.039-.163.039-.163-.022-.3193-.178-.4155s-.26-.1427-.414-.1858c0 0-.049.0034-.053-.0498l-.053-.0498c-.111-.1529-.314-.1925-.513-.179-.05.0034-.15.0102-.196.0668-.096.06-.242.1234-.345.0769s-.157-.0962-.214-.1993c-.053-.0498-.053-.0498-.103-.0464l-.05.0034c-.05.0034-.096.06-.092.1132l.003.0532-.05.0034c-.199.0135-.352-.0295-.548.0373" fill="#fff"/></g><g clip-path="url(#C)" fill="#4d008c"><path d="M48.3301 89.1968l4.3642-.6504 2.4846 9.7042.0455-.0521.1626-5.7886.5009-4.3318 4.4162-.6504-1.9902 17.0143-4.4163.651-2.2634-9.314-.0455.0455-.2537 4.7415-.5854 4.989-4.4098.65 1.9903-17.0082zM67.8096 103.07l-.0911-2.14-3.0829.455-.6504 2.244-4.722.69 6.0618-17.6133 5.6-.8195 1.613 16.4878-4.7284.696zm-.1886-5.6715l-.0456-3.9025.0456-3.1545h-.0456l-.813 3.2521-1.0732 4.0976 1.9318-.2927zm7.8699-12.1756l3.6943-.5398c5.2033-.7675 7.6488 2.1203 7.0505 7.2651-.9236 7.8504-5.9318 9.2948-8.722 9.7038l-4.0196.592 1.9968-17.0211zm3.0895 12.2342c2.0943-.3252 2.7512-2.9984 2.9593-4.6049.2146-1.8471.1561-4.3642-1.9512-4.0585l-1.0081 8.6634zm8.2931 2.8359l1.9903-17.0151 4.5919-.6505-1.9903 17.0148-4.5919.6508zm8.7349-18.0095l8.5266-1.2488-.468 4.013-3.935.5789-.2667 2.3675 3.5317-.5204-.488 4.0196-3.5315.5203-.2991 2.6016 3.9346-.5788-.468 4.0195-8.5268 1.2488 1.9902-17.0212zm16.5856 14.2888l1.509-12.8586-2.524.3707.481-4.1561 9.757-1.4244-.488 4.1496-2.602.3903-1.502 12.8586-4.631.6699zm10.497-18.2566l8.534-1.2488-.468 4.0195-3.942.5724-.26 2.3675 3.532-.5138-.495 4.0195-3.531.5138-.3 2.6017 3.942-.5789-.468 4.0195-8.534 1.2488 1.99-17.0212zm16.905-2.4715l3.688-.5398c5.203-.7675 7.655 2.1138 7.05 7.2586-.917 7.8569-5.932 9.3008-8.722 9.7041l-4.007.5918 1.991-17.0147zm3.089 12.2342c2.088-.3317 2.751-2.9984 2.953-4.6049.221-1.8471.163-4.3707-1.951-4.065l-1.002 8.6699zm15.649 1.7431l-.091-2.1398-3.083.4553-.65 2.2439-4.722.6894 6.061-17.6066 5.6-.826 1.613 16.4879-4.728.6959zm-.189-5.6716l-.045-3.9024.045-3.1545h-.045l-.813 3.2521-1.08 4.039 1.938-.2342zm24.228 2.1526l.826-10.6342h-.046l-1.021 3.8114-2.12 7.1545-3.74.5528-.345-10.4651h-.045l-.495 3.7789-1.209 6.9854-4.93.722 3.974-17.3074 5.717-.839.253 8.8585h.046l.813-3.252 1.788-6.0488 5.653-.826-.352 16.774-4.767.735z"/><path d="M195.628 84.3641l-.084-2.1398-3.09.4553-.65 2.2439-4.722.6894 6.088-17.6131 5.606-.8195 1.607 16.4879-4.755.6959zm-.188-5.6715l-.046-3.9025.046-3.1545h-.039l-.82 3.2521-1.079 4.039 1.938-.2341zm.65-16.0456l3.493-.5074-2.686 4.1171-2.472.3643 1.665-3.974zm5.477 15.2132c.257.4791.648.8732 1.124 1.1342s1.02.3776 1.562.3358c.352-.0354.684-.1797.95-.4129s.452-.5437.533-.888c.032-.1585.025-.3223-.021-.4775s-.127-.297-.239-.4135c-.188-.225-.421-.4088-.683-.5399-.776-.4894-1.46-1.1101-2.023-1.8341-.53-.8487-.733-1.8612-.572-2.8488.24-1.9838 1.912-5.7757 5.853-6.348 1.071-.1552 2.164-.0251 3.168.3772l-.605 5.1643c-.234-.4499-.591-.8235-1.03-1.0771s-.942-.3762-1.448-.3538c-.314.0446-.608.1845-.84.4007s-.394.4986-.461.809c-.018.1626.003.327.059.4804s.148.2918.266.4042c.236.2131.488.4067.755.5789.797.4182 1.487 1.0147 2.016 1.7431.495.8572.665 1.8633.481 2.8357-.179 1.593-.867 3.0857-1.961 4.2572s-2.536 1.9593-4.113 2.2469c-1.12.1701-2.264.1036-3.357-.1951l.586-5.3789z"/></g><defs><filter id="A" x="38.4663" y="57.8784" width="184.709" height="55.2354" filterUnits="userSpaceOnUse" color-interpolation-filters="sRGB"><feFlood flood-opacity="0" result="A"/><feColorMatrix in="SourceAlpha" values="0 0 0 0 0 0 0 0 0 0 0 0 0 0 0 0 0 0 127 0"/><feOffset dy="2.65927"/><feGaussianBlur stdDeviation="1.06371"/><feColorMatrix values="0 0 0 0 0 0 0 0 0 0 0 0 0 0 0 0 0 0 0.34 0"/><feBlend in2="A"/><feBlend in="SourceGraphic"/></filter><clipPath id="B"><path fill="#fff" d="M0 0h207.537002563477v86.799896240234H0z"/></clipPath><clipPath id="C"><path fill="#fff" transform="translate(46.3398 62.1396)" d="M0 0h164.852996826172v44.078300476074H0z"/></clipPath></defs></svg>