<svg xmlns="http://www.w3.org/2000/svg" width="110" height="109" fill="none" xmlns:v="https://vecta.io/nano"><path d="M108.618 54.9342C108.858 25.0745 84.8457.674044 54.9859.434195S.725736 24.206.486116 54.0656 24.2584 108.326 54.1182 108.566s54.2598-23.7721 54.4998-53.6318z" fill="url(#A)"/><path d="M104.806 54.8991c.228-27.7406-22.0758-50.41325-49.8165-50.64081S4.57613 26.3344 4.34856 54.075s22.07624 50.413 49.81684 50.641 50.4136-22.0764 50.6406-49.8169z" fill="url(#B)"/><g clip-path="url(#C)"><path d="M35.4372 92.2285c-.1534-.0092-.2991-.0704-.4129-.1737s-.189-.2423-.2131-.394c-.0152-.0803-.0138-.1629.0042-.2426s.0522-.1548.1004-.2208.1095-.1213.18-.1627.1487-.0677.2298-.0776l44.5749-4.7263c1.3146-.1597 2.5256-.7944 3.4049-1.7846s1.3666-2.2676 1.37-3.5919v-5.2067c.0123-1.2527-.4564-2.4623-1.3096-3.3796s-2.0257-1.4723-3.276-1.5505c-.2617-.0193-.5245-.0193-.7861 0l-12.2962 1.315c-.1706.0145-.3403-.036-.4752-.1412s-.2252-.2576-.2527-.4265c-.0137-.081-.0107-.1639.0088-.2436s.0551-.1546.1047-.2201.1119-.1201.1834-.1605.1504-.0658.232-.0746l12.2962-1.315c.323-.0258.6475-.0258.9705 0 1.5945.0945 3.0917.7977 4.1826 1.9644s1.692 2.7078 1.6792 4.305v5.2018c-.0058 1.6221-.6036 3.1863-1.6812 4.3988s-2.5607 1.9898-4.1709 2.186L35.51 92.2285h-.0728z" fill="#e92070"/><g fill="#4d008c"><path d="M51.8239 42.9276c.3768.2949.6627.6902.8249 1.1403 2.7194-2.4155 6.0348-4.0606 9.6031-4.7651-.4925-1.806-1.5213-3.4201-2.9503-4.6293-2.4748-2.051-5.6208-2.8225-9.4381-2.3146l-2.7805.3688.3979-4.5177 13.7326-1.8245.2717-10.1902-22.9086 3.0377-2.2709 24.7476 12.4563-1.6547c1.3102-.1747 2.3292.0242 3.0619.6017zm11.6703 13.6789l-.1989 7.3563 7.565-.9996c-1.2325 3.083-3.6588 4.8622-7.2787 5.3377-2.8209.3753-4.9851-.2264-6.4926-1.8051s-2.2273-3.6587-2.1594-6.2403v-.2863c-2.3204 1.716-5.0419 2.8086-7.9047 3.1736.2491 4.0372 1.6935 7.3272 4.3333 9.8699 3.0376 2.9309 6.9892 4.0744 11.8546 3.4307 4.3895-.5088 8.4203-2.6708 11.2723-6.0462 2.9406-3.4194 4.4789-7.5844 4.6147-12.4951l.0874-3.3967-15.693 2.1011z"/></g><g fill="#e92070"><path d="M36.3154 61.9881l1.7275-.228.9317-10.4134-1.7323.2329-.9269 10.4085zm5.6579-11.0345l-2.1739.2863-.9317 10.4086 2.1739-.2863.9317-10.4086zm-5.2806.6987l-1.0525.1359-.9263 10.4086 1.0525-.1359.9263-10.4086zm34.9586-8.992c-2.492-1.0938-5.2443-1.454-7.9338-1.0384-1.359.1706-2.6941.4963-3.9791.9705l-.0776.0291c-2.7332 1.0682-5.1721 2.7734-7.1137 4.9738l-.0437.0436c-.9821 1.1431-2.2778 1.9732-3.7267 2.3875l-.3785.063-5.5998.7522-.9268 10.4328 4.8864-.6211c1.2326-.1213 6.0656-.8783 9.2198-5.1339l.0582-.0825c.4367-.592 3.3725-4.4352 6.7935-5.3135.2475-.0485.4852-.0922.7376-.1262.1649-.0242.3299-.0388.4852-.0533h.4222c1.0677-.0671 2.1372.0985 3.1347.4852 1.1045.4088 2.0429 1.1714 2.6688 2.1691l6.876-5.0563c-1.288-2.1548-3.2097-3.8596-5.5027-4.8816z"/></g><g fill="#4d008c"><path d="M24.2763 82.4413c-.0015.1365-.0509.2681-.1396.3719s-.211.1731-.3457.1958c-.0628.0048-.126-.0037-.1854-.0248s-.1138-.0546-.1595-.098-.0818-.096-.106-.1542-.0358-.1209-.0343-.184c.0013-.1371.0506-.2694.1392-.3739s.211-.1749.346-.1987c.0633-.0048.127.0038.1867.0252s.1143.0553.1601.0993.0818.0971.1057.1559.035.122.0328.1855h0zm2.2804-.2428c-.0005.1368-.0496.2689-.1385.3729s-.2117.173-.3467.1949c-.0631.0055-.1266-.0024-.1863-.0233s-.1144-.0542-.1603-.0978-.082-.0964-.1059-.155-.0351-.1217-.0328-.1849c.0006-.1368.0497-.2689.1385-.3729s.2118-.173.3468-.1948c.063-.0056.1265.0023.1863.0232s.1144.0542.1603.0978.082.0965.1059.1551.035.1216.0327.1848h0zm2.2813-.2426c-.0006.1367-.0496.2689-.1385.3728s-.2117.1731-.3468.1949c-.063.0056-.1265-.0024-.1863-.0232s-.1144-.0542-.1603-.0978-.0819-.0965-.1058-.1551-.0351-.1216-.0328-.1849c.0005-.1368.0496-.2689.1385-.3729s.2117-.173.3467-.1948c.0631-.0056.1266.0024.1864.0232s.1143.0542.1602.0978.082.0965.1059.1551.0351.1216.0328.1849h0zm2.2806-.2427c-.0006.1368-.0496.2689-.1385.3729s-.2118.173-.3468.1948c-.0629.0048-.126-.0037-.1854-.0248s-.1138-.0545-.1595-.098-.0818-.0959-.106-.1542-.0359-.1209-.0343-.184c.0015-.1365.0509-.2681.1396-.3719s.211-.1731.3456-.1958c.0631-.0055.1266.0024.1863.0233s.1144.0542.1603.0978.082.0964.1059.155.0351.1216.0328.1849h0zm-6.8423 3.0474c-.0015.1365-.0509.2681-.1396.3719s-.211.1731-.3457.1958c-.0628.0048-.126-.0037-.1854-.0248s-.1138-.0545-.1595-.098-.0818-.0959-.106-.1542-.0358-.1209-.0343-.184c.0013-.137.0506-.2693.1392-.3739s.211-.1749.346-.1986c.0633-.0049.127.0037.1867.0252s.1143.0552.1601.0992.0818.0971.1057.1559.035.122.0328.1855h0zm2.2804-.2427c-.0005.1368-.0496.2689-.1385.3729s-.2117.173-.3467.1948c-.0631.0056-.1266-.0023-.1863-.0232s-.1144-.0542-.1603-.0978-.082-.0965-.1059-.1551-.0351-.1216-.0328-.1849c.0006-.1367.0497-.2689.1385-.3728s.2118-.1731.3468-.1949c.063-.0056.1265.0024.1863.0232s.1144.0543.1603.0978.082.0965.1059.1551.035.1216.0327.1849zm2.2813-.2427c-.0006.1368-.0496.2689-.1385.3729s-.2117.173-.3468.1948c-.063.0056-.1265-.0023-.1863-.0232s-.1144-.0542-.1603-.0978-.0819-.0965-.1058-.1551-.0351-.1216-.0328-.1848c.0005-.1368.0496-.269.1385-.3729s.2117-.173.3467-.1949c.0631-.0055.1266.0024.1864.0233s.1143.0542.1602.0978.082.0964.1059.155.0351.1216.0328.1849zm2.2806-.2427c-.0006.1368-.0496.2689-.1385.3729s-.2118.173-.3468.1949c-.0629.0047-.126-.0037-.1854-.0249s-.1138-.0545-.1595-.0979-.0818-.096-.106-.1543-.0359-.1209-.0343-.1839c.0015-.1365.0509-.2682.1396-.3719s.211-.1731.3456-.1959c.0631-.0055.1266.0024.1863.0233s.1144.0542.1603.0978.082.0964.1059.155.0351.1217.0328.1849h0zm-6.8423 3.0474c-.0015.1365-.0509.2682-.1396.3719s-.211.1731-.3457.1959c-.0628.0047-.126-.0037-.1854-.0249s-.1138-.0545-.1595-.0979-.0818-.096-.106-.1543-.0358-.1209-.0343-.1839c.0013-.1371.0506-.2694.1392-.374s.211-.1748.346-.1986c.0633-.0048.127.0038.1867.0252s.1143.0553.1601.0992.0818.0971.1057.156.035.122.0328.1854h0zm2.2804-.2422c-.0005.1368-.0496.2689-.1385.3729s-.2117.173-.3467.1948c-.0631.0056-.1266-.0023-.1863-.0232s-.1144-.0542-.1603-.0978-.082-.0965-.1059-.1551-.0351-.1216-.0328-.1848c.0006-.1368.0497-.269.1385-.3729s.2118-.173.3468-.1949c.063-.0055.1265.0024.1863.0233s.1144.0542.1603.0978.082.0964.1059.155.035.1216.0327.1849h0zm2.2813-.2427c-.0006.1368-.0496.2689-.1385.3729s-.2117.173-.3468.1949c-.063.0055-.1265-.0024-.1863-.0233s-.1144-.0542-.1603-.0978-.0819-.0964-.1058-.155-.0351-.1217-.0328-.1849c.0005-.1368.0496-.2689.1385-.3729s.2117-.173.3467-.1949c.0631-.0055.1266.0024.1864.0233s.1143.0542.1602.0978.082.0964.1059.155.0351.1217.0328.1849h0zm2.2806-.2427c-.0006.1368-.0496.269-.1385.3729s-.2118.1731-.3468.1949c-.0629.0048-.126-.0037-.1854-.0249s-.1138-.0545-.1595-.0979-.0818-.096-.106-.1542-.0359-.121-.0343-.184c.0015-.1365.0509-.2681.1396-.3719s.211-.1731.3456-.1958c.0631-.0056.1266.0023.1863.0232s.1144.0542.1603.0978.082.0965.1059.1551.0351.1216.0328.1848h0z"/></g><g fill="#e92070"><path d="M31.6038 92.0489c-.002.1749-.0668.3432-.1826.4741s-.275.2159-.4483.2392c-.0802.0091-.1615.0008-.2383-.0243s-.1473-.0665-.2067-.1212-.1063-.1218-.1375-.1963-.046-.1549-.0434-.2356c.0012-.172.0633-.338.1752-.4685s.2664-.2173.4362-.2448c.0818-.0122.1652-.0062.2444.0175s.1522.0646.2138.1197.1103.1232.1427.1993.0475.1583.0445.2409h0zm48.0154-7.7152l-44.5798 4.7215c-.4058.0494-.8175.0102-1.2067-.115s-.7466-.3335-1.0474-.6103-.538-.6157-.695-.9932-.2303-.7845-.2147-1.193v-5.197c.0086-.8776.3331-1.7227.9142-2.3805s1.3798-1.084 2.2496-1.2006l44.5798-4.7264c.4057-.0486.8171-.0088 1.2059.1168s.7458.3338 1.0465.6104.5378.6152.6951.9923.2312.7837.2163 1.192v5.2019c-.0105.877-.3358 1.7211-.9165 2.3784s-1.3782 1.0841-2.2473 1.2027h0z"/></g><g fill="#fff"><path d="M38.0039 86.9637l1.315-8.3172 2.0478-.2135c1.941-.2086 3.3967.2718 3.0328 2.4554s-1.776 2.9648-3.717 3.1153l-.427 2.7222-2.2516.2378zm3.4501-6.7935l-.165.0291-.3057 1.941c.2841-.0029.5574-.1096.7683-.3s.345-.4512.3769-.7336c.0874-.5386-.1213-.985-.6745-.9074v-.0291zm6.4876 5.7502l-.6939-3.3337-.034.0291-.1552 1.218-.3494 2.2176-2.2516.2377 1.315-8.3171 2.1691-.228c1.941-.2087 3.2754.2183 2.9115 2.4262-.0631.4763-.2445.9292-.5276 1.3174s-.6589.6993-1.0931.905l1.1257 3.2851-2.4165.2427zm-.3833-4.3673c.28-.0506.5362-.1904.7304-.3985s.3158-.4734.3468-.7563c.1213-.7279-.2766-.9705-.8928-.8929l-.33 2.0526.1456-.0049zm7.8032-4.7504c2.2807-.2426 2.8193 1.941 2.4991 3.9645s-1.5771 4.3963-3.8578 4.639-2.8095-1.941-2.4893-3.9694 1.5625-4.3769 3.848-4.6341zm-1.0287 6.5072c.8492-.0922 1.1501-1.7809 1.2374-2.3001s.3057-2.203-.5435-2.1108-1.1452 1.776-1.2228 2.2952-.3203 2.2224.5289 2.1351v-.0194zm5.2551-6.7936l2.1399-.2232 1.0142 4.8185.199-2.8435.3299-2.1157 2.1642-.2281-1.315 8.3172-2.1594.228-.9122-4.6244-.0243.0243-.2183 2.3243-.3882 2.4263-2.1594.228 1.3296-8.3317zm6.7112 7.4729l.9705-6.2839-1.2325.1261.3203-2.0283 4.77-.4852-.3203 2.0283-1.2859.1359-.9705 6.3082-2.2516.1989zm8.6953-9.2345c2.2855-.2378 2.8241 1.941 2.5039 3.9693s-1.5771 4.3964-3.8578 4.6341-2.8095-1.941-2.4893-3.9644 1.5625-4.3964 3.8432-4.639zm-1.0239 6.5072c.8492-.0874 1.1501-1.776 1.2374-2.2953s.3057-2.203-.5435-2.1156-1.1452 1.7808-1.2228 2.3-.3203 2.2031.5289 2.1109z"/></g></g><defs><linearGradient id="A" x1="54.5795" y1="108.586" x2="54.5799" y2=".451125" gradientUnits="userSpaceOnUse"><stop stop-color="#d2d2d2"/><stop offset=".16" stop-color="#d9d9d9"/><stop offset=".38" stop-color="#ececec"/><stop offset=".55" stop-color="#fff"/></linearGradient><linearGradient id="B" x1="54.5964" y1="104.737" x2="54.5964" y2="4.32002" gradientUnits="userSpaceOnUse"><stop offset=".45" stop-color="#fff"/><stop offset=".62" stop-color="#ececec"/><stop offset=".84" stop-color="#d9d9d9"/><stop offset="1" stop-color="#d2d2d2"/></linearGradient><clipPath id="C"><path fill="#fff" transform="translate(23.2671 16.1758)" d="M0 0h62.69409942627v76.591400146484H0z"/></clipPath></defs></svg>