<svg xmlns="http://www.w3.org/2000/svg" xmlns:xlink="http://www.w3.org/1999/xlink" width="100" height="43" xmlns:v="https://vecta.io/nano"><defs><path d="M25.403.37l-6.455.752c-.83.095-1.284.578-1.38 1.4l-1.246 11.85c-.036.48-.405.522-.548.07L11.98 3.164c-.272-.774-.824-1.142-1.645-1.043l-6.464.745c-.822.1-1.327.586-1.38 1.4L.186 35.05c-.076 1.005.44 1.52 1.407 1.41l5.45-.633c.824-.097 1.374-.592 1.38-1.397l.446-19.903c.043-.48.4-.523.552-.066l5.232 19.242c.225.782.818 1.146 1.644 1.045l3.94-.457c.825-.1 1.332-.58 1.377-1.395l.907-19.957c.04-.48.407-.524.548-.064l4.774 19.3c.18.788.826 1.138 1.65 1.045l5.45-.63c.966-.117 1.362-.733 1.064-1.695l-8.96-29.476c-.198-.7-.696-1.062-1.4-1.062-.082 0-.167.005-.255.016z" id="A"/><path d="M34.516 1.543l-5.452.636c-.83.097-1.373.585-1.38 1.395l-.446 19.905c-.045.487-.407.528-.554.066L21.455 4.3c-.224-.786-.82-1.143-1.645-1.045l-3.944.457c-.818.1-1.326.58-1.376 1.393l-.907 19.955c-.047.487-.405.528-.552.068l-4.77-19.3C8.08 5.04 7.44 4.7 6.6 4.784l-5.45.632C.2 5.528-.2 6.146.094 7.114L9.053 36.6c.228.78.82 1.14 1.65 1.044l6.457-.748c.827-.098 1.284-.574 1.38-1.403l1.246-11.85c.037-.482.404-.522.547-.07l3.797 11.27c.27.783.82 1.146 1.648 1.048l6.457-.755c.82-.088 1.33-.574 1.38-1.388l2.304-30.785c.074-.915-.35-1.424-1.155-1.424a2.37 2.37 0 0 0-.246.014z" id="B"/><path d="M15.012.476C4.157 1.728 2.853 10.3 2.616 13.478L1.678 25.5c-.244 3.168-.26 11.602 10.6 10.34S24.433 26 24.676 22.816L25.6 10.81c.228-2.95.257-10.46-8.512-10.46a18.23 18.23 0 0 0-2.086.126zm-5.255 21.55l.533-6.912c.288-3.702.69-5.985 4.084-6.378s3.445 1.836 3.16 5.535l-.542 6.92c-.277 3.694-.684 5.98-4.08 6.374a6.046 6.046 0 0 1-.721.045c-2.673 0-2.702-2.164-2.433-5.583z" id="C"/></defs><g fill="none" fill-rule="evenodd"><g transform="translate(63.793)"><mask id="D" fill="#fff"><use xlink:href="#A"/></mask><path fill="#fefefe" mask="url(#D)" d="M-8.44 45.095h53.167v-53.36H-8.44z"/></g><g transform="translate(0 5.172)"><mask id="E" fill="#fff"><use xlink:href="#B"/></mask><path fill="#fefefe" mask="url(#E)" d="M-8.62 46.27h53.167V-7.09H-8.62z"/></g><g transform="translate(36.207 3.448)"><mask id="F" fill="#fff"><use xlink:href="#C"/></mask><path fill="#fefefe" mask="url(#F)" d="M-7.003 44.58H34.3V-8.27H-7.003z"/></g></g></svg>