<svg xmlns="http://www.w3.org/2000/svg" xmlns:xlink="http://www.w3.org/1999/xlink" width="147" height="16" fill="none"><path d="M41.677 7.4c-.07 0-.106.035-.106.106l-.176 1.41.176 1.41c0 .071.035.106.106.106.035 0 .106-.035.106-.106l.212-1.41-.212-1.41c-.035-.071-.07-.106-.106-.106zm1.058-.776c0-.071-.035-.106-.106-.106s-.106.035-.106.106l-.247 2.292.247 2.256c0 .07.035.106.106.106s.106-.035.106-.106l.282-2.256-.282-2.292zm3.949-2.115c-.106 0-.176.071-.176.176l-.212 4.231.212 2.75a.19.19 0 0 0 .176.176c.106 0 .176-.07.211-.176l.212-2.75-.212-4.231c0-.106-.106-.176-.211-.176zm-2.045 1.446c-.07 0-.141.071-.141.141l-.212 2.821.212 2.715c0 .071.071.141.141.141s.141-.071.141-.141l.247-2.715-.247-2.821c0-.071-.071-.141-.141-.141zm4.125 5.888a.24.24 0 0 0 .247-.247l.212-2.68-.176-5.641a.24.24 0 1 0-.494 0l-.176 5.641.176 2.68c0 .141.106.247.212.247zm4.266.035c.176 0 .317-.141.317-.317l.141-2.609-.141-6.522c0-.176-.141-.317-.317-.317s-.317.141-.317.317l-.141 6.487.106 2.609c.035.176.176.353.353.353zm-2.151-.035c.141 0 .282-.106.282-.282l.176-2.644-.176-5.676c0-.141-.141-.282-.282-.282s-.282.106-.282.282l-.141 5.676.141 2.644c0 .176.141.282.282.282zm-5.218-.035c.106 0 .176-.07.176-.176l.247-2.75-.247-2.609c0-.106-.071-.176-.176-.176s-.176.071-.176.176l-.212 2.609.212 2.75c0 .106.071.176.176.176zm-2.045-.141c.071 0 .106-.035.141-.141l.282-2.644-.282-2.715c0-.071-.07-.141-.141-.141s-.106.035-.141.141l-.247 2.715.247 2.644c.035.106.07.141.141.141zm8.356-8.497c-.176 0-.317.141-.317.317l-.141 5.465.141 2.644c0 .176.141.317.317.317s.282-.141.317-.317l.141-2.644-.141-5.465c-.035-.212-.141-.317-.317-.317zm-4.231 8.673c.106 0 .212-.106.212-.212l.212-2.715-.212-5.183c0-.106-.106-.212-.212-.212s-.212.106-.212.212l-.176 5.183.176 2.715c0 .141.071.212.212.212zm2.362-.247l.176-2.68-.176-5.817a.24.24 0 1 0-.494 0l-.176 5.817.176 2.68a.24.24 0 0 0 .247.247c.106 0 .212-.106.247-.247zm13.75-6.029a2.97 2.97 0 0 0-1.234.247C62.372 2.958 59.975.737 57.084.737a5.37 5.37 0 0 0-2.01.388c-.247.106-.317.176-.317.388v10.013c0 .176.141.353.353.388h8.744c1.727 0 3.138-1.41 3.138-3.138 0-1.798-1.41-3.208-3.138-3.208zm-9.731-4.09c-.176 0-.353.141-.353.353l-.141 7.087.141 2.574c0 .176.141.353.353.353.176 0 .353-.141.353-.353l.141-2.574-.141-7.087a.38.38 0 0 0-.353-.353zM43.933 13.852c-.388-.07-.458-.141-.458-.282 0-.106.07-.212.352-.212.212 0 .388.071.529.247l.353-.317c-.212-.247-.494-.353-.846-.353-.458 0-.846.247-.846.705s.317.599.74.705c.458.106.529.176.529.317 0 .176-.141.247-.423.247-.212 0-.423-.071-.599-.282l-.352.317c.176.247.529.423.917.423.635 0 .917-.317.917-.74-.035-.529-.458-.67-.811-.776zm2.151-.917c-.635 0-1.022.494-1.022 1.199s.388 1.199 1.022 1.199 1.022-.494 1.022-1.199-.388-1.199-1.022-1.199zm0 1.939c-.388 0-.529-.317-.529-.74s.141-.74.529-.74.529.317.529.74-.141.74-.529.74zm2.926-.599c0 .388-.176.599-.494.599-.282 0-.493-.247-.493-.599v-1.304h-.458v1.304c0 .67.388 1.058.952 1.058.599 0 .952-.388.952-1.058v-1.304h-.458v1.304zm2.503-.317v.529a3.23 3.23 0 0 0-.176-.282l-.846-1.234h-.458v2.362h.458v-1.023-.529c.035.07.106.176.176.282l.846 1.269h.423v-2.362h-.458l.035.987zm1.798-.987h-.74v2.362h.705c.599 0 1.199-.353 1.199-1.164 0-.881-.494-1.199-1.163-1.199zm-.035 1.869h-.247v-1.445h.247c.494 0 .705.247.705.705s-.212.74-.705.74zm2.644-1.445c.212 0 .353.106.423.247l.423-.212c-.141-.317-.423-.529-.846-.529-.599 0-1.058.494-1.058 1.199 0 .74.423 1.199 1.022 1.199.423 0 .705-.212.881-.529l-.388-.247c-.141.211-.247.282-.458.282-.353 0-.564-.317-.564-.74 0-.353.212-.67.564-.67zm1.763-.423h-.458v2.362h1.41v-.458h-.952v-1.904zm2.151-.035c-.635 0-1.022.494-1.022 1.199s.388 1.199 1.022 1.199 1.022-.494 1.022-1.199-.353-1.199-1.022-1.199zm0 1.939c-.388 0-.529-.317-.529-.74s.141-.74.529-.74.529.317.529.74c.035.423-.141.74-.529.74zm2.926-.599c0 .388-.176.599-.494.599-.282 0-.493-.247-.493-.599v-1.304h-.458v1.304c0 .67.388 1.058.952 1.058.599 0 .952-.388.952-1.058v-1.304h-.458v1.304zm1.798-1.304h-.74v2.362h.705c.599 0 1.199-.353 1.199-1.164 0-.881-.494-1.199-1.163-1.199zm-.035 1.904h-.247v-1.445h.247c.493 0 .705.247.705.705 0 .423-.212.74-.705.74z" fill="url(#A)"/><path d="M94.702 2.147l1.093 1.022-1.093 1.093A13.88 13.88 0 0 0 93.68 3.24l-1.093 1.093 1.023 1.022-1.058 1.058-1.022-1.022 1.022-1.022-1.093-1.093-1.022 1.022-1.128-1.128 1.058-1.022h.035l1.058.987 1.058-.987h.035l1.093 1.058.987-.987.035-.035c0-.035 0-.035.035-.035zM90.19 13.993v-3.949h.141l1.728.035c1.093.106 1.728.846 1.763 1.904.035 1.022-.635 1.798-1.657 2.01-.035 0-.07.035-.141.035l-1.833-.035zm.881-.811c.282 0 .564.035.811 0 .529-.07.917-.494.987-1.022.035-.599-.247-1.128-.776-1.269-.317-.106-.67-.07-1.023-.141v2.433zm4.513.811l1.551-3.702c.07-.211.176-.317.423-.282.212.035.458-.035.635.035.141.106.176.353.247.564l1.304 3.173c.035.07.035.141.071.176h-1.023a5.59 5.59 0 0 0-.247-.705c0-.035-.106-.071-.141-.071h-1.445c-.035 0-.106.035-.141.071a5.59 5.59 0 0 0-.247.705c-.317.035-.67.035-.987.035zm2.68-1.516l-.564-1.516-.564 1.516h1.128zm-17.946-2.468h3.244v.776h-1.128v.176 2.926c0 .035 0 .071.035.106h-.917v-3.208h-1.163c-.07-.247-.07-.529-.07-.776zm21.859 3.984c0-.07.035-.176.035-.247v-3.455-.247h.917v3.173h1.587v.776h-2.539zm-15.936 0v-3.702-.247h.917v3.949h-.917z" fill="#000"/><use xlink:href="#K" fill="#00956a"/><path d="M121.251 8.07h-1.375v.811h1.375V8.07z" fill="url(#B)"/><use xlink:href="#K" y="2.186" fill="url(#C)"/><use xlink:href="#K" x="-4.935" y="3.314" fill="url(#D)"/><use xlink:href="#K" x="-3.278" y="3.314" fill="url(#E)"/><use xlink:href="#K" x="-1.621" y="3.314" fill="url(#F)"/><use xlink:href="#K" y="3.314" fill="url(#G)"/><use xlink:href="#K" x="-1.621" y="2.186" fill="url(#H)"/><use xlink:href="#K" x="-3.278" y="2.186" fill="url(#I)"/><path d="M117.973 8.07h-1.375v.811h1.375V8.07z" fill="url(#J)"/><g fill="#000"><path d="M133.344 10.221c-.599 0-1.093-.353-1.093-.987h2.785c.036-.176.071-.317.071-.494 0-1.128-.776-1.869-1.904-1.869-1.234 0-2.045.952-2.045 2.115 0 1.304.917 2.186 2.186 2.186.952 0 1.622-.494 1.939-1.269l-.952-.388c-.176.458-.493.705-.987.705zm-.141-2.433c.494 0 .846.282.846.67v.035h-1.763c.071-.458.459-.705.917-.705z"/><path d="M138.95 7.894v-.917h-3.596v.952h2.185l-2.256 2.221v.952h3.737v-.987h-2.327l2.257-2.221zm6.698.423v.212h1.058c.035-.141.035-.282.035-.423 0-.705-.458-1.234-1.163-1.234-.494 0-.811.247-.987.599v-.529h-1.129v4.125h1.129V8.423c0-.423.211-.635.564-.635.282 0 .493.212.493.529z"/><path d="M125.623 7.577c-.247-.423-.705-.705-1.305-.705-1.128 0-1.939.881-1.974 2.151 0 1.269.811 2.115 1.974 2.115.6 0 1.058-.247 1.305-.67v.599h1.058V4.968h-1.129l.071 2.609zm-1.058 2.644c-.599 0-1.093-.458-1.093-1.199s.494-1.199 1.093-1.199 1.093.458 1.093 1.199-.493 1.199-1.093 1.199zm16.712 0c-.6 0-1.093-.353-1.093-.987h2.785c.035-.176.07-.317.07-.494 0-1.128-.775-1.869-1.903-1.869-1.234 0-2.045.952-2.045 2.115 0 1.304.916 2.186 2.186 2.186.952 0 1.621-.494 1.939-1.269l-.952-.388c-.177.494-.494.705-.987.705zm-.177-2.433c.494 0 .846.282.846.67v.035h-1.762a.94.94 0 0 1 .916-.705zm-11.881 2.433c-.599 0-1.093-.353-1.093-.987h2.785c.035-.176.071-.317.035-.494 0-1.128-.775-1.869-1.903-1.869-1.234 0-2.045.952-2.045 2.115 0 1.304.916 2.186 2.186 2.186.952 0 1.621-.494 1.939-1.269l-.952-.388c-.106.458-.423.705-.952.705zm-.141-2.433c.493 0 .846.282.846.67v.035h-1.763c.106-.458.459-.705.917-.705z"/></g><path d="M7.408 14.98c3.836 0 6.946-3.11 6.946-6.945s-3.11-6.946-6.946-6.946S.462 4.199.462 8.035s3.11 6.945 6.946 6.945z" fill="#12985d"/><g fill="#000"><path d="M7.937 5.673l-.846.635c-.282-.423-.635-.67-1.128-.67-.388 0-.74.176-.74.564 0 .353.247.494.705.67l.67.282c.952.423 1.481.881 1.481 1.728 0 1.093-.917 1.798-2.08 1.798-1.022 0-1.869-.529-2.292-1.304l.846-.635c.317.458.74.881 1.446.881.529 0 .846-.247.846-.67 0-.388-.282-.529-.74-.74L5.47 7.93c-.846-.388-1.446-.881-1.446-1.728 0-1.022.846-1.692 1.974-1.692.952.035 1.622.494 1.939 1.163zm5.429 2.679c0 1.34-.917 2.362-2.151 2.362-.564 0-1.022-.211-1.34-.529v2.045H8.642V6.131H9.77v.564c.317-.423.811-.67 1.445-.67 1.234 0 2.151.987 2.151 2.327zm-1.269.035c0-.776-.529-1.234-1.163-1.234-.564 0-1.128.353-1.128 1.234 0 .846.564 1.234 1.128 1.234.67-.035 1.163-.494 1.163-1.234zm6.311 0c0 1.34-1.093 2.327-2.398 2.327-1.34 0-2.397-1.022-2.397-2.327S14.671 6.06 16.01 6.06c1.305-.035 2.398.987 2.398 2.327zm-3.561 0c0 .705.494 1.199 1.163 1.199s1.163-.529 1.163-1.199c0-.705-.494-1.234-1.163-1.234-.705 0-1.163.529-1.163 1.234z"/><path d="M21.758 9.586v1.022c-.247.071-.529.106-.846.106-1.093 0-1.798-.529-1.798-1.692V7.154h-.705V6.131h.705V5.003h1.234v1.128h1.269v1.022h-1.269v1.763c0 .529.282.705.846.705.141 0 .317 0 .564-.035zm1.833-5.077c0 .423-.353.74-.776.74s-.776-.317-.776-.74.352-.776.776-.776c.423.035.776.353.776.776zm-.176 6.099H22.18V6.131h1.234v4.478zM25.6 5.532v.635h.987v1.022H25.6v3.455h-1.234V7.189h-.635V6.166h.635v-.74c0-1.163.67-1.692 1.727-1.692.282 0 .494.035.67.106v1.022c-.141-.035-.247-.035-.352-.035-.529 0-.811.176-.811.705z"/><path d="M31.241 6.131l-2.151 4.865c-.423.917-.952 1.34-1.763 1.34-.247 0-.564-.035-.776-.106v-1.022a3.05 3.05 0 0 0 .529.035c.388 0 .705-.106.917-.599l.141-.282-1.728-4.195h1.304l1.093 2.926 1.164-2.926 1.269-.035z"/></g><defs><linearGradient id="A" x1="55.068" y1=".51" x2="53.392" y2="16.37" xlink:href="#L"><stop stop-color="#ff9d33"/><stop offset="1" stop-color="#ff4a2c"/></linearGradient><linearGradient id="B" x1="120.667" y1="8.971" x2="120.491" y2="7.967" xlink:href="#L"><stop stop-color="#008190"/><stop offset=".04" stop-color="#00838e"/><stop offset=".39" stop-color="#008f7b"/><stop offset=".72" stop-color="#00926f"/><stop offset="1" stop-color="#00926a"/></linearGradient><linearGradient id="C" x1="119.876" y1="7.747" x2="121.28" y2="7.033" xlink:href="#L"><stop stop-color="#28418b"/><stop offset="1" stop-color="#0080a3"/></linearGradient><linearGradient id="D" x1="119.891" y1="7.367" x2="121.254" y2="7.367" xlink:href="#L"><stop stop-color="#e49e3c"/><stop offset="1" stop-color="#e08c3a"/></linearGradient><linearGradient id="E" x1="119.88" y1="7.368" x2="121.243" y2="7.368" xlink:href="#L"><stop stop-color="#e08c3a"/><stop offset="1" stop-color="#cd435e"/></linearGradient><linearGradient id="F" x1="119.871" y1="7.368" x2="121.234" y2="7.369" xlink:href="#L"><stop stop-color="#b13275"/><stop offset="1" stop-color="#423886"/></linearGradient><linearGradient id="G" x1="119.896" y1="7.369" x2="121.259" y2="7.37" xlink:href="#L"><stop stop-color="#28418b"/><stop offset="1" stop-color="#0a6ba6"/></linearGradient><linearGradient id="H" x1="119.818" y1="7.604" x2="121.288" y2="7.175" xlink:href="#L"><stop stop-color="#b13275"/><stop offset="1" stop-color="#333d89"/></linearGradient><linearGradient id="I" x1="119.833" y1="7.122" x2="121.292" y2="7.654" xlink:href="#L"><stop stop-color="#f0c144"/><stop offset="1" stop-color="#cd435e"/></linearGradient><linearGradient id="J" x1="116.719" y1="7.944" x2="117.851" y2="8.99" xlink:href="#L"><stop stop-color="#f0c543"/><stop offset="1" stop-color="#d9764b"/></linearGradient><path id="K" d="M121.251 6.977h-1.375v.811h1.375v-.811z"/><linearGradient id="L" gradientUnits="userSpaceOnUse"/></defs></svg>