<svg xmlns="http://www.w3.org/2000/svg" width="297" height="197" fill="none" xmlns:v="https://vecta.io/nano"><path fill="#fff" d="M0 0h296.066009521484v196.22900390625H0z"/><g clip-path="url(#C)"><g fill="#4d008c"><path d="M8.90204 9.06128h1.61546l5.3091 6.35112V9.06128h1.7114v9.18322h-1.4553L10.6193 11.71v6.5345H8.90495l-.00291-9.18322zM19.9335 14.348V9.05933h1.7464v5.22177c0 1.7057.949 2.6196 2.5062 2.6196s2.4945-.8528 2.4945-2.5439V9.05933h1.7464v5.20717c0 2.7448-1.6708 4.1216-4.2613 4.1216s-4.2322-1.3768-4.2322-4.0401zm10.8744-5.28867h7.3494v1.45537h-5.6176v2.3867h4.9686v1.4554h-4.9686v2.4653h5.6758v1.4554h-7.4193l.0117-9.21817zm8.6388 0h1.9269L44.36 16.1177l2.9747-7.05837h1.8832l-4.107 9.25017h-1.5427l-4.1215-9.25017zm10.4088 4.61917v-.0262c0-2.5846 2.151-4.7502 5.1956-4.7502s5.1693 2.1393 5.1693 4.724v.0262c0 2.5847-2.1539 4.7474-5.1956 4.7474s-5.1693-2.1365-5.1693-4.7212zm8.537 0v-.0262c.0006-.4378-.0868-.8713-.2571-1.2746s-.4199-.7684-.7341-1.0733-.6865-.5436-1.0947-.7018-.8441-.2326-1.2818-.219c-.4351-.0165-.8691.0554-1.2757.2114s-.7772.3929-1.0895.6962-.56.6671-.7278 1.0689-.2523.8335-.2484 1.2689v.0263c-.0003.4369.0875.8694.2581 1.2716s.4206.766.7349 1.0695.6866.5405 1.0946.6968.8434.2289 1.2801.2133c1.9676-.0029 3.3414-1.4437 3.3414-3.228zM70.827 9.05933h3.9177c2.3286 0 3.7664 1.21957 3.7664 3.07077v.0262c0 2.0579-1.7842 3.1348-3.9643 3.1348h-1.9705v2.9514h-1.7464l-.0029-9.18317zm3.7664 4.77647c1.3156 0 2.1394-.684 2.1394-1.6417v-.0203c0-1.0741-.8354-1.6388-2.1394-1.6388h-2.0375v3.3066l2.0375-.0058zm5.6816-4.77647h1.7464v7.71327h5.2101v1.4699H80.275V9.05933zm12.2889-.0669h1.6125l4.366 9.25017h-1.8425l-1.0041-2.218h-4.6863l-1.0215 2.218h-1.7843l4.3602-9.25017zm2.4915 5.60307l-1.7144-3.6733-1.6969 3.6733h3.4113zm5.1836-5.53617h1.613l5.312 6.35107V9.05933h1.711v9.18317h-1.455l-5.466-6.5344v6.5344h-1.712l-.003-9.18317z"/></g><g clip-path="url(#D)" fill="#430088"><path d="M9.81747 66.3487L29.606 51.9207c2.9998-2.149 4.1622-4.0224 4.1622-5.8958 0-2.0811-1.5698-3.595-4.298-3.595s-5.2567 1.7256-9.2192 6.0356L9.74158 39.3782C15.2699 32.4438 20.8621 28.697 30.8243 28.697c10.9168 0 18.7739 6.6588 18.7739 15.8859v.1359c0 7.4216-3.8866 11.448-9.6186 15.1789l-8.5442 5.5483h18.6262v12.6943H9.81747V66.3487zM53.2092 54.002v-.1358c0-13.3894 8.596-25.3208 23.0639-25.3208s22.9242 11.7916 22.9242 25.165v.1399c0 13.3853-8.6001 25.3168-23.064 25.3168S53.2092 67.3914 53.2092 54.002zm30.1581 0v-.1358c0-6.6587-2.9359-11.2404-7.234-11.2404s-7.0941 4.4419-7.0941 11.1006v.1398c0 6.6588 2.9319 11.2364 7.2339 11.2364s7.0902-4.4418 7.0902-11.1006h.004zm19.6487 0v-.1358c0-13.3894 8.596-25.3208 23.06-25.3208S149 40.337 149 53.7104v.1399c0 13.3853-8.596 25.3168-23.06 25.3168s-22.924-11.7757-22.924-25.1651zm30.154 0v-.1358c0-6.6587-2.932-11.2404-7.23-11.2404s-7.098 4.4419-7.098 11.1006v.1398c0 6.6588 2.936 11.2364 7.234 11.2364s7.094-4.4418 7.094-11.1006z"/></g><g fill="#fa007f" stroke="#fff" stroke-width=".291068" stroke-miterlimit="10"><path d="M138.177 61.7485v-.0931c0-8.8398 7.533-15.4266 17.622-15.4266 5.477 0 9.896 1.6911 13.389 4.4824l-5.979 6.6946c-2.101-1.6475-4.427-2.5789-7.076-2.5789-4.153 0-7.166 2.9602-7.166 6.9857v.0844c0 4.1855 3.15 7.0613 7.623 7.0613 1.825 0 2.829-.2532 3.65-.6753v-2.9602h-5.478v-6.3452h15.453v13.7035c-3.469 2.6196-8.307 4.4417-14.105 4.4417-9.943-.0204-17.933-6.1969-17.933-15.3743zm35.24-14.8881h10.682v29.6074h-10.682V46.8604zm13.698 14.8881v-.0931c0-8.8398 7.532-15.4266 17.621-15.4266 5.478 0 9.896 1.6911 13.389 4.4824l-5.981 6.6946c-2.099-1.6475-4.428-2.5789-7.076-2.5789-4.154 0-7.166 2.9602-7.166 6.9857v.0844c0 4.1855 3.149 7.0613 7.623 7.0613 1.828 0 2.832-.2532 3.653-.6753v-2.9602h-5.49v-6.3452h15.473v13.7035c-3.466 2.6196-8.307 4.4417-14.105 4.4417-9.952-.0204-17.941-6.1969-17.941-15.3743zm46.288-15.1006h10.589l13.468 29.82h-11.596l-1.688-3.976h-11.183l-1.653 3.976h-11.413l13.476-29.82zm8.124 18.8234l-2.911-7.1922-2.91 7.1922h5.821zm14.152 6.5549l5.708-6.2958c3.278 2.2866 7.186 3.498 11.182 3.4667 1.918 0 2.739-.4628 2.739-1.2691v-.0844c0-.8441-1.004-1.3098-4.427-1.9443-7.166-1.3535-13.468-3.2571-13.468-9.5151v-.0873c0-5.6234 4.748-9.9807 13.558-9.9807 6.162 0 10.729 1.3534 14.426 4.0749l-5.205 6.6946c-2.847-1.8735-6.176-2.8843-9.584-2.9107-1.598 0-2.329.5094-2.329 1.2283v.0844c0 .8034.873 1.3098 4.244 1.9036 8.173 1.3942 13.651 3.5947 13.651 9.5587v.0844c0 6.2172-5.53 10.0244-14.105 10.0244-6.482-.0407-12.327-1.7231-16.39-5.0326z"/></g></g><g clip-path="url(#E)" fill="#430088"><path d="M13.0544 85.2629l-1.7985.5675-.2558-.8872 2.3261-.7994h.7993v9.7601h-1.0631l-.008-8.641zm5.1718 3.805c0-2.7178 1.5987-5.012 4.0527-5.012s3.9968 2.2702 3.9968 4.98-1.5987 5.0119-4.0367 5.0119-4.0128-2.2621-4.0128-4.9799zm6.9384 0c0-2.1023-1.1271-3.9968-2.9176-3.9968s-2.9017 1.8545-2.9017 3.9968c0 2.1023 1.1351 3.9968 2.9336 3.9968s2.8857-1.8546 2.8857-3.9968zm4.7003 0c0-2.7178 1.5986-5.012 4.0447-5.012s3.9967 2.2702 3.9967 4.98-1.5987 5.0119-4.0368 5.0119-4.0046-2.2621-4.0046-4.9799zm6.9303 0c0-2.1023-1.1271-3.9968-2.9177-3.9968s-2.9016 1.8545-2.9016 3.9968c0 2.1023 1.1351 3.9968 2.9337 3.9968s2.9016-1.8546 2.9016-3.9968h-.016zm13.605.4476h-2.8217v-.9992h2.8217v-2.8537h1.0232v2.8537h2.8138v.9992h-2.8138v2.8457h-1.0232v-2.8457zm14.8281-2.8936l-1.5987.3837-.5036-2.0783 2.7978-.7994h1.9184v9.7601h-2.6059l-.008-7.2661zm5.9552 2.446c0-2.7418 1.7186-5.044 4.4284-5.044s4.4045 2.2702 4.4045 5.012-1.7027 5.0359-4.4285 5.0359-4.4044-2.2622-4.4044-5.0039zm6.171 0c0-1.5508-.7034-2.6699-1.7666-2.6699s-1.7426 1.0871-1.7426 2.6379.7035 2.6538 1.7666 2.6538 1.7666-1.0791 1.7666-2.6218h-.024zm5.6914 0c0-2.7418 1.7186-5.044 4.4285-5.044s4.3964 2.2702 4.3964 5.012-1.7026 5.0359-4.4284 5.0359-4.3965-2.2622-4.3965-5.0039zm6.1711 0c0-1.5508-.7115-2.6699-1.7746-2.6699s-1.7426 1.0871-1.7426 2.6379.7114 2.6538 1.7746 2.6538 1.7426-1.0791 1.7426-2.6218zm11.303.0001c-.008-.6713.12-1.3373.376-1.9581s.634-1.1834 1.112-1.6544 1.047-.8405 1.672-1.0865 1.293-.3633 1.964-.345c1.422-.0509 2.808.4504 3.869 1.3989l-1.599 1.9105c-.619-.5876-1.441-.914-2.294-.9113-.336.0092-.666.0853-.972.224s-.581.3372-.809.5838-.404.5361-.518.8518-.165.651-.147.9863c-.023.3511.028.7029.149 1.0333s.309.6322.553.8861.536.4546.861.5893.675.2004 1.027.1931c.538.0278 1.071-.1118 1.526-.3997v-1.175h-1.862v-1.9665h4.372v4.3405c-1.151.9884-2.623 1.5252-4.14 1.5108-.672.0284-1.343-.0808-1.971-.3209s-1.2-.6062-1.681-1.0756-.862-1.0322-1.118-1.654-.382-1.2892-.37-1.9614zm12.75-4.868h2.637v9.6881h-2.637V84.2zm5.963 4.868c-.008-.6714.12-1.3374.375-1.9581s.635-1.1834 1.113-1.6544 1.047-.8405 1.672-1.0865 1.292-.3633 1.964-.345c1.422-.0526 2.809.4489 3.868 1.3989l-1.55 1.9104c-.623-.5866-1.447-.9127-2.302-.9112-.336.0091-.667.0853-.972.224s-.581.3372-.809.5837-.404.5362-.518.8518-.165.6511-.148.9864c-.022.351.029.7029.15 1.0333s.309.6321.552.8861.537.4546.862.5893.675.2004 1.026.1931c.539.0294 1.072-.1104 1.527-.3997V90.195h-1.862v-1.9664h4.372v4.3405c-1.152.9884-2.623 1.5252-4.141 1.5108-.675.0341-1.349-.071-1.982-.3086s-1.21-.6028-1.696-1.0727-.869-1.0348-1.128-1.6593-.385-1.2956-.373-1.9713zm15.979-4.9401h2.542l4.06 9.7601h-2.829l-.68-1.7425h-3.693l-.679 1.7425h-2.798l4.077-9.7601zm2.318 5.9232l-1.063-2.7418-1.079 2.7418h2.142zm6.243 2.3981l1.471-1.7906c.864.7375 1.958 1.1502 3.093 1.1671.728 0 1.103-.2478 1.103-.6635s-.311-.6235-1.598-.9352c-2.031-.4716-3.597-1.0552-3.597-3.0376 0-1.7985 1.398-3.1015 3.685-3.1015 1.42-.0565 2.813.4004 3.924 1.287l-1.319 1.8945c-.769-.5866-1.702-.9191-2.669-.9513-.64 0-.952.2638-.952.6235 0 .4397.328.6395 1.663.9433 2.174.4876 3.541 1.207 3.541 3.0135 0 1.9744-1.543 3.1575-3.861 3.1575-1.642.0365-3.239-.5358-4.484-1.6067zM160.935 84.2h4.101c2.398 0 3.949 1.2549 3.949 3.3892 0 2.3021-1.727 3.5092-4.085 3.5092h-1.319v2.7657h-2.646V84.2zm3.909 4.7961c.927 0 1.511-.5116 1.511-1.271 0-.7993-.584-1.255-1.519-1.255h-1.255v2.5579l1.263-.0319zm9.496-4.8682h2.542l4.061 9.7601h-2.83l-.679-1.7425h-3.693l-.68 1.7425h-2.758l4.037-9.7601zm2.318 5.9232l-1.063-2.7418-1.079 2.7418h2.142zm7.107-5.8512h4.508c.56-.0455 1.124.0231 1.657.2017s1.025.4635 1.444.8375c.288.2981.511.6519.657 1.0395s.211.801.191 1.2147c.026.6404-.148 1.273-.5 1.8092s-.861.9489-1.459 1.1804l2.271 3.3812h-3.046l-1.919-2.9336h-1.175v2.9336h-2.637l.008-9.6642zm4.396 4.6523c.887 0 1.423-.4477 1.423-1.1511 0-.7994-.56-1.1591-1.431-1.1591h-1.751v2.3421l1.759-.0319zm10.408-4.7243h2.55l4.06 9.7601h-2.837l-.68-1.7425h-3.693l-.679 1.7425h-2.766l4.045-9.7601zm2.318 5.9232l-1.063-2.7418-1.08 2.7418h2.143zm12.046 2.3981l1.471-1.7906c.864.7375 1.958 1.1502 3.093 1.1671.728 0 1.103-.2478 1.103-.6635s-.311-.6235-1.598-.9352c-2.031-.4716-3.597-1.0552-3.597-3.0376 0-1.7985 1.407-3.1015 3.693-3.1015 1.42-.0565 2.813.4004 3.924 1.287l-1.318 1.8945c-.77-.5866-1.703-.9191-2.67-.9513-.64 0-.952.2638-.952.6235 0 .4397.32.6395 1.655.9433 2.182.4876 3.549 1.207 3.549 3.0135 0 1.9744-1.543 3.1575-3.861 3.1575-1.645.04-3.246-.5326-4.492-1.6067zM224.5 84.2h2.638v9.6881H224.5V84.2zm6.275 0h7.673v2.2701h-5.059v1.4788h4.58v2.1183h-4.58v1.5348h5.123v2.2861h-7.737V84.2zm10.991 0h2.798l2.27 3.7489 2.278-3.7489h2.79v9.6881h-2.63v-5.5955l-2.398 3.789h-.056l-2.398-3.773v5.5475h-2.59l-.064-9.6561zm13.717 0h4.1c2.398 0 3.949 1.2549 3.949 3.3892 0 2.3021-1.726 3.5092-4.085 3.5092h-1.318v2.7657h-2.646V84.2zm3.908 4.7961c.928 0 1.511-.5116 1.511-1.271 0-.7993-.583-1.255-1.526-1.255h-1.247v2.5579l1.262-.0319zm7.147-4.7962h4.484c.56-.0455 1.124.0231 1.657.2017s1.025.4635 1.445.8375c.287.2981.511.6519.656 1.0395s.211.801.191 1.2147c.027.6416-.148 1.2755-.501 1.812s-.866.9484-1.466 1.1776l2.279 3.3812h-3.038l-1.918-2.9336h-1.175v2.9336h-2.646l.032-9.6642zm4.404 4.6523c.887 0 1.415-.4477 1.415-1.1511 0-.7994-.56-1.1591-1.431-1.1591h-1.742v2.3421l1.758-.0319zm7.274-4.6522h7.674v2.2701h-5.052v1.4788h4.573v2.1183h-4.573v1.5348h5.116v2.2861h-7.738V84.2z"/></g><path d="M8.90204 97.969H287.303" stroke="#4d008c" stroke-width=".582137"/><path d="M287.303 144.54H8.90204V122.419H287.303V144.54Z" fill="#e92070"/><g clip-path="url(#F)" fill="#fff"><path d="M22.8735 126.467h5.0383v9.986h7.0934v3.994H22.8793l-.0058-13.98zm13.2696-.002h5.0384v13.971h-5.0384v-13.971zm6.8053 0h8.441c2.0898 0 3.4054.436 4.2874 1.257.2998.276.5374.613.697.988s.2375.779.2286 1.187v.04c0 1.656-1.077 2.675-2.6924 3.202 1.9385.518 3.2017 1.476 3.2017 3.394v.038c0 2.235-1.9821 3.874-5.7951 3.874h-8.3595l-.0087-13.98zm7.1107 5.486c1.077 0 1.5922-.337 1.5922-.957v-.041c0-.617-.5385-.957-1.6155-.957h-2.1742v1.955h2.1975zm.3232 4.949c1.0973 0 1.6561-.419 1.6561-1.019v-.041c0-.582-.5385-1.016-1.6358-1.016h-2.541v2.076h2.5207zm7.8181-10.435h7.3669c2.672 0 4.366.617 5.4284 1.595.4591.417.8207.93 1.0591 1.502s.348 1.191.3206 1.81v.041c0 2.037-1.1409 3.452-2.9718 4.273l3.5103 4.75h-5.7515l-2.8438-3.985h-1.0798v3.994h-5.0413l.0029-13.98zm7.2156 6.645c1.2079 0 1.9385-.498 1.9385-1.356v-.041c0-.9-.7539-1.336-1.9152-1.336h-2.2005v2.733h2.1772zm8.1877-6.645h12.8595v3.83h-7.9055v1.418h7.3669v3.373h-7.3669v1.517h8.0132v3.833H73.6037v-13.971zm13.0748 11.875l2.6924-2.974c1.548 1.079 3.393 1.65 5.28 1.636.9023 0 1.2923-.219 1.2923-.6v-.038c0-.399-.4744-.62-2.0898-.92-3.3822-.637-6.354-1.537-6.354-4.491v-.032c0-2.654 2.2383-4.712 6.4035-4.712 2.9107 0 5.0616.64 6.8051 1.918l-2.4566 3.152c-1.3433-.886-2.9142-1.364-4.5232-1.377-.7539 0-1.0973.239-1.0973.583v.04c0 .379.4074.617 2.0025.897 3.8566.658 6.4416 1.697 6.4416 4.511v.041c0 2.934-2.6198 4.73-6.6569 4.73-3.065-.009-5.8215-.809-7.7396-2.364zm21.0265-11.875h6.785c4.005 0 6.741 1.656 6.741 4.968v.041c0 3.374-2.78 5.169-6.849 5.169h-1.638v3.784h-5.039v-13.962zm6.404 6.846c1.292 0 2.154-.542 2.154-1.537v-.041c0-1.019-.798-1.537-2.134-1.537h-1.379v3.115h1.359zm11.948-6.948h5.001l6.354 14.073h-5.481l-.798-1.877h-5.277l-.777 1.877h-5.373l6.351-14.073zm3.836 8.883l-1.379-3.393-1.38 3.393h2.759zm8.15-8.781h7.367c2.672 0 4.366.617 5.429 1.595.459.417.82.93 1.059 1.502s.348 1.191.32 1.81v.041c0 2.037-1.141 3.452-2.974 4.273l3.513 4.75h-5.752l-2.849-3.985h-1.077v3.994h-5.036v-13.98zm7.216 6.645c1.208 0 1.938-.498 1.938-1.356v-.041c0-.9-.753-1.336-1.915-1.336h-2.197v2.733h2.174z"/><path d="M158.156 126.363h4.998l6.354 14.073h-5.472l-.798-1.877h-5.277l-.774 1.877h-5.385l6.354-14.073zm3.834 8.883l-1.38-3.393-1.377 3.393h2.757zm12.364 3.094l2.693-2.974c1.548 1.079 3.393 1.65 5.28 1.636.902 0 1.292-.219 1.292-.6v-.038c0-.399-.475-.62-2.09-.92-3.382-.637-6.354-1.537-6.354-4.491v-.032c0-2.654 2.238-4.712 6.403-4.712 2.911 0 5.062.64 6.806 1.918l-2.457 3.152c-1.343-.886-2.914-1.364-4.523-1.377-.754 0-1.097.239-1.097.583v.04c0 .379.407.617 2.002.897 3.857.658 6.441 1.697 6.441 4.511v.041c0 2.934-2.619 4.73-6.656 4.73-3.065-.009-5.822-.809-7.74-2.364zm15.598-11.875h5.039v13.971h-5.039v-13.971zm6.806 0h12.859v3.83h-7.905v1.418h7.367v3.373h-7.367v1.517h8.013v3.833h-12.967v-13.971zm14.326 0h5.257l3.231 4.907 3.231-4.907h5.256v13.971h-5.024v-6.927l-3.463 4.98h-.088l-3.466-4.972v6.928h-4.948l.014-13.98zm18.698 0h6.785c4.008 0 6.744 1.656 6.744 4.968v.041c0 3.374-2.779 5.169-6.852 5.169h-1.635v3.784h-5.042v-13.962zm6.404 6.846c1.292 0 2.154-.542 2.154-1.537v-.041c0-1.019-.798-1.537-2.134-1.537h-1.377v3.115h1.357zm8.202-6.846h7.367c2.672 0 4.366.617 5.428 1.595.459.417.82.93 1.058 1.503s.347 1.19.319 1.809v.041c0 2.037-1.141 3.452-2.972 4.273l3.511 4.75h-5.752l-2.841-3.985h-1.077v3.994h-5.041v-13.98zm7.216 6.645c1.208 0 1.938-.498 1.938-1.356v-.041c0-.9-.754-1.336-1.918-1.336h-2.195v2.733h2.175zm8.187-6.645h12.86v3.83h-7.906v1.418h7.367v3.373h-7.367v1.517h8.014v3.833h-12.968v-13.971z"/></g><path d="M8.90204 146.869H287.303" stroke="#e92070" stroke-width=".582137"/><path d="M287.303 122.419H8.90204v-22.121H287.303v22.121z" fill="#4d008c"/><path d="M18.2162 119.706l1.1295-4.114c-.7261-1.291-1.1295-2.703-1.1295-4.195 0-4.478 3.7111-8.189 8.2289-8.189s8.2693 3.711 8.2693 8.189-3.7514 8.309-8.2693 8.309c-1.4118 0-2.7833-.443-3.9934-1.129l-4.2355 1.129z" fill="#fff" stroke="#c8c9cd" stroke-width=".594524" stroke-miterlimit="10"/><path d="M22.6536 117.084l.242.162c1.0488.645 2.2589 1.049 3.5497 1.049 3.7111 0 6.8171-3.106 6.8171-6.858 0-3.792-3.106-6.777-6.8574-6.777s-6.7768 3.026-6.7768 6.777c0 1.291.3631 2.582 1.0488 3.671l.1614.242-.6454 2.38 2.4606-.646z" fill="#009e4d"/><path d="M24.2267 107.605l-.5244-.041c-.1614 0-.3227.041-.4437.162-.242.242-.6858.645-.8068 1.21-.2017.847.121 1.855.8471 2.904.7261 1.009 2.1783 2.663 4.6792 3.389.8068.242 1.4118.08 1.9362-.242.4034-.242.6454-.646.7261-1.09l.0807-.403c.0403-.121-.0404-.242-.1614-.323l-1.7748-.806c-.1211-.041-.2421-.041-.3228.08l-.726.928c-.0404.04-.1614.081-.2421.04-.484-.161-2.0975-.847-2.9849-2.541-.0404-.081-.0404-.161.0403-.242l.6857-.766c.0404-.081.0807-.202.0404-.283l-.8068-1.855c-.0403-.041-.121-.121-.242-.121z" fill="#fff"/><path d="M47.56 119.585c4.5224 0 8.1885-3.666 8.1885-8.188s-3.6661-8.189-8.1885-8.189-8.1886 3.666-8.1886 8.189 3.6661 8.188 8.1886 8.188z" fill="url(#A)"/><path d="M51.5535 107.928l-1.4522 7.382s-.2017.524-.7664.282l-3.3884-2.582-1.2101-.605-2.0572-.686s-.3227-.121-.3631-.363.3631-.363.3631-.363l8.2289-3.227c-.0404-.04.6454-.322.6454.162z" fill="#fff"/><path d="M45.6642 115.229s-.0807 0-.2017-.403l-.7664-2.421 4.9615-3.146s.2824-.161.2824 0c0 0 .0403.04-.121.161-.1614.162-3.9128 3.51-3.9128 3.51" fill="#cde1ed"/><path d="M47.2374 113.978l-1.3312 1.211s-.121.08-.2017.04l.2421-2.259" fill="#b1cbe0"/><path d="M68.4732 119.343c4.4556 0 8.0676-3.612 8.0676-8.067s-3.612-8.068-8.0676-8.068-8.0675 3.612-8.0675 8.068 3.612 8.067 8.0675 8.067z" fill="url(#B)"/><path d="M70.5306 106.677h-4.1548c-1.4118 0-2.5816 1.129-2.5816 2.541v4.115c0 1.412 1.1698 2.541 2.5816 2.541h4.1548c1.4118 0 2.5816-1.129 2.5816-2.541v-4.115c0-1.412-1.1295-2.541-2.5816-2.541zm1.7748 6.656c0 .968-.7664 1.734-1.7345 1.734h-4.1548c-.9681 0-1.7345-.766-1.7345-1.734v-4.115c0-.968.7664-1.734 1.7345-1.734h4.1548c.9681 0 1.7345.766 1.7345 1.734v4.115zm-3.8322-4.437c-1.3311 0-2.3799 1.049-2.3799 2.38 0 1.29 1.0891 2.38 2.3799 2.38 1.3312 0 2.38-1.049 2.38-2.38 0-1.291-1.0488-2.38-2.38-2.38zm0 3.913c-.847 0-1.5731-.686-1.5731-1.574 0-.847.6857-1.532 1.5731-1.532.8471 0 1.5732.685 1.5732 1.573 0 .847-.7261 1.533-1.5732 1.533zm2.5009-4.599c-.1614 0-.3227.08-.4437.161-.121.121-.1614.282-.1614.403 0 .162.0807.323.1614.404.121.121.2823.161.4437.161s.3227-.08.4437-.161c.121-.121.1613-.283.1613-.404 0-.161-.0806-.322-.1613-.403-.121-.081-.2824-.161-.4437-.161z" fill="#fff"/><path d="M97.4944 111.356c0 4.518-3.6708 8.149-8.1482 8.149-4.5179 0-8.1483-3.671-8.1483-8.149 0-4.517 3.6708-8.148 8.1483-8.148s8.1482 3.631 8.1482 8.148z" fill="#0074f1"/><path d="M91.1209 107.686h1.0488v-1.735c-.1613-.04-.8067-.08-1.5328-.08-1.4925 0-2.5413.887-2.5413 2.581v1.452h-1.6942v1.937h1.6942v5.001h2.0169v-5.001h1.6942l.242-1.937h-1.9362v-1.25c.0403-.565.2017-.968 1.0084-.968z" fill="#fff"/><path d="M110.34 103.208c-4.518 0-8.189 3.671-8.189 8.189s3.671 8.188 8.189 8.188 8.189-3.67 8.189-8.188c.04-4.518-3.631-8.189-8.189-8.189z" fill="#1ed460"/><path d="M109.929 109.268l-1.089.806c-.282-.403-.565-.645-1.008-.645-.323 0-.565.121-.565.403 0 .242.161.363.524.484l.726.283c1.049.443 1.574.968 1.574 1.855 0 1.21-1.009 1.936-2.259 1.936-1.13 0-2.017-.564-2.461-1.371l1.089-.807c.283.404.686.807 1.372.807.443 0 .645-.161.645-.444s-.202-.363-.645-.565l-.646-.282c-.968-.444-1.573-.968-1.573-1.855 0-1.09.928-1.816 2.178-1.816 1.089 0 1.775.525 2.138 1.211zm6.051 2.702c0 1.412-.928 2.461-2.259 2.461-.524 0-.928-.162-1.21-.444v1.977h-1.613v-6.333h1.452v.484c.282-.404.726-.605 1.331-.605 1.371.04 2.299 1.048 2.299 2.46zm-1.654 0c0-.645-.443-.968-.928-.968-.443 0-.927.282-.927.968s.443 1.009.927 1.009.928-.363.928-1.009zm7.342 0c0 1.372-1.17 2.461-2.542 2.461-1.412 0-2.541-1.049-2.541-2.461s1.129-2.46 2.541-2.46c1.412.04 2.542 1.089 2.542 2.46zm-3.47 0c0 .565.364.968.928.968.525 0 .888-.403.888-.968s-.404-.968-.888-.968c-.564 0-.928.403-.928.968zm7.584 1.008v1.332c-.282.08-.605.121-.928.121-1.291 0-2.057-.606-2.057-1.896v-1.533h-.726v-1.331h.726v-1.13h1.613v1.13h1.251v1.331h-1.251v1.371c0 .444.202.605.807.605h.565zm2.622-4.961c0 .524-.444.928-1.008.928-.525 0-.968-.404-.968-.928s.443-.968.968-.968c.564 0 1.008.403 1.008.968zm-.202 6.293h-1.613v-4.68h1.613v4.68zm2.945-5.043v.404h.928v1.331h-.928v3.308h-1.614v-3.308h-.645v-1.331h.645v-.565c0-1.25.767-1.896 1.977-1.896.323 0 .605.041.766.121v1.331h-.363c-.524 0-.766.162-.766.605zm6.494.363l-2.218 4.922c-.484 1.048-1.049 1.532-2.057 1.532-.283 0-.646-.04-.888-.121v-1.331h.525c.363 0 .685-.08.927-.564l.081-.162-1.735-4.316h1.735l.887 2.622 1.009-2.622h1.734v.04z" fill="#fff"/><path d="M155.312 117.065h2.289v-3.836h3.856V111h-3.856v-3.816h-2.289V111h-3.856v2.229h3.856v3.836z" fill="#e92070"/><path d="M182.69 119.194h2.43v-10.042l4.399 6.587h.08l4.438-6.627v10.082h2.471v-14.059h-2.631l-4.278 6.648-4.278-6.648h-2.631v14.059zm17.577 0h2.47v-14.059h-2.47v14.059zm6.233 0h2.43v-10.002l7.753 10.002h2.068v-14.059h-2.43v9.721l-7.531-9.721h-2.29v14.059zm21.631.221c3.676 0 6.045-2.109 6.045-6.307v-7.973h-2.47v8.094c0 2.591-1.346 3.896-3.535 3.896-2.209 0-3.554-1.386-3.554-3.996v-7.994h-2.471v8.094c0 4.077 2.33 6.186 5.985 6.186zm12.891-.221h2.49v-11.769h4.459v-2.29h-11.408v2.29h4.459v11.769zm15.511.241c4.318 0 7.371-3.314 7.371-7.27v-.041c0-3.956-3.012-7.23-7.33-7.23s-7.371 3.314-7.371 7.271v.04c0 3.956 3.012 7.23 7.33 7.23zm.041-2.29c-2.792 0-4.78-2.249-4.78-4.98v-.041c0-2.731 1.948-4.96 4.739-4.96s4.78 2.269 4.78 5.001v.04c0 2.731-1.948 4.94-4.739 4.94zm15.137 2.25c2.952 0 5.021-1.567 5.021-4.198v-.04c0-2.33-1.526-3.394-4.499-4.117-2.711-.643-3.354-1.125-3.354-2.209v-.041c0-.923.844-1.666 2.29-1.666 1.285 0 2.551.502 3.816 1.446l1.325-1.868c-1.426-1.145-3.052-1.768-5.101-1.768-2.792 0-4.8 1.667-4.8 4.077v.041c0 2.59 1.687 3.474 4.68 4.197 2.61.603 3.173 1.145 3.173 2.149v.04c0 1.045-.964 1.768-2.491 1.768-1.727 0-3.092-.663-4.438-1.828l-1.486 1.767c1.687 1.507 3.715 2.25 5.864 2.25z" fill="#fff"/><path d="M26.4905 185.699h23.6v-7.32h-10.92l5-3.2c3.36-2.16 5.64-4.48 5.64-8.76v-.08c0-5.32-4.6-9.16-11-9.16-5.84 0-9.12 2.16-12.36 6.16l6.16 5.24c2.32-2.48 3.8-3.48 5.4-3.48s2.52.88 2.52 2.08c0 1.08-.68 2.16-2.44 3.4l-11.6 8.32v6.8zm32.04-21.44h-6.52l7.24 10.56-7.52 10.88h6.36l4.32-6.68 4.32 6.68h6.52l-7.56-10.96 7.24-10.48h-6.36l-4.04 6.28-4-6.28z" fill="#4d008c"/><path d="M96.6446 187.551h3.0271v-2.852c4.5703-.35 7.5683-2.591 7.5683-6.433v-.058c0-3.959-2.766-5.472-7.6265-6.433v-2.386c1.4265.291 2.9685.873 4.2205 1.775l2.794-4.424c-1.95-1.252-4.133-2.096-6.8398-2.358v-1.746h-3.0271v1.659c-5.2102.262-7.8007 2.911-7.8007 6.52v.058c0 3.813 2.707 5.414 7.8589 6.403v2.445c-1.892-.291-3.9003-1.047-6.0543-2.445l-2.9688 4.396c2.474 1.717 5.6176 2.736 8.8484 3.027v2.852zm-1.7173-17.289v-.058c0-.583.524-1.048 1.9502-1.077v2.357c-1.5136-.262-1.9502-.611-1.9502-1.222zm6.4907 8.47v.058c0 .611-.524 1.048-1.8627 1.106v-2.358c1.4847.262 1.8627.583 1.8627 1.194zm26.31 8.597c7.476 0 13.062-3.864 13.062-10.668v-.084c0-6.174-4.956-9.282-9.828-9.282-2.31 0-4.032.63-5.586 1.596l.21-3.822h13.902v-7.77h-21.21l-.84 15.288 5.922 2.94c1.386-1.092 2.688-1.848 4.494-1.848 2.058 0 3.444 1.092 3.444 2.814v.084c0 1.596-1.344 2.814-3.696 2.814-2.394 0-4.746-1.176-7.266-3.192l-5.418 6.3c3.276 2.94 7.098 4.83 12.81 4.83zm14.863-.63h9.744v-9.66h-9.744v9.66zm23.11.63c9.198 0 14.322-6.594 14.322-16.254v-.084c0-5.04-1.428-8.568-3.57-10.71-2.226-2.226-4.998-3.612-9.576-3.612-6.804 0-12.222 4.032-12.222 11.046v.084c0 5.544 4.242 9.114 9.24 9.114 2.646 0 4.872-1.092 6.51-2.73-.336 3.612-2.016 5.586-5.166 5.586-2.184 0-4.242-.756-6.174-2.226l-4.242 6.342c2.94 2.142 6.384 3.444 10.878 3.444zm1.596-16.716c-1.932 0-3.276-1.428-3.276-3.318v-.084c0-1.932 1.26-3.486 3.192-3.486s3.276 1.596 3.276 3.528v.084c0 1.806-1.26 3.276-3.192 3.276zm25.802 16.716c9.198 0 14.322-6.594 14.322-16.254v-.084c0-5.04-1.428-8.568-3.57-10.71-2.226-2.226-4.998-3.612-9.576-3.612-6.804 0-12.222 4.032-12.222 11.046v.084c0 5.544 4.242 9.114 9.24 9.114 2.646 0 4.872-1.092 6.51-2.73-.336 3.612-2.016 5.586-5.166 5.586-2.184 0-4.242-.756-6.174-2.226l-4.242 6.342c2.94 2.142 6.384 3.444 10.878 3.444zm1.596-16.716c-1.932 0-3.276-1.428-3.276-3.318v-.084c0-1.932 1.26-3.486 3.192-3.486s3.276 1.596 3.276 3.528v.084c0 1.806-1.26 3.276-3.192 3.276zm26.344 16.716c7.476 0 13.062-3.864 13.062-10.668v-.084c0-6.174-4.956-9.282-9.828-9.282-2.31 0-4.032.63-5.586 1.596l.21-3.822h13.902v-7.77h-21.21l-.84 15.288 5.922 2.94c1.386-1.092 2.688-1.848 4.494-1.848 2.058 0 3.444 1.092 3.444 2.814v.084c0 1.596-1.344 2.814-3.696 2.814-2.394 0-4.746-1.176-7.266-3.192l-5.418 6.3c3.276 2.94 7.098 4.83 12.81 4.83z" fill="#e92070"/><path d="M244.463 171.38c1.335 0 2.15-.489 2.893-1.263l-.804-.815c-.612.57-1.172.916-2.048.916-1.365 0-2.353-1.13-2.353-2.526v-.02c0-1.396.998-2.517 2.353-2.517.815 0 1.426.357 1.997.887l.804-.927c-.682-.652-1.477-1.111-2.791-1.111-2.16 0-3.678 1.661-3.678 3.688v.02c0 2.048 1.549 3.668 3.627 3.668zm3.599-.122h1.284l.733-1.722h3.372l.724 1.722h1.324l-3.138-7.183H251.2l-3.138 7.183zm2.476-2.833l1.222-2.852 1.233 2.852h-2.455zm6.184 2.833h2.659c2.241 0 3.789-1.559 3.789-3.566v-.02c0-2.007-1.548-3.546-3.789-3.546h-2.659v7.132zm2.659-5.991c1.497 0 2.475 1.029 2.475 2.425v.02c0 1.396-.978 2.405-2.475 2.405h-1.406v-4.85h1.406zm4.201 5.991h1.284l.733-1.722h3.372l.723 1.722h1.325l-3.138-7.183h-1.161l-3.138 7.183zm2.476-2.833l1.222-2.852 1.233 2.852h-2.455zm-21.982 13.945c1.864 0 3.066-1.07 3.066-3.199v-4.045h-1.253v4.106c0 1.314-.682 1.976-1.793 1.976-1.12 0-1.803-.703-1.803-2.027v-4.055h-1.253v4.106c0 2.068 1.182 3.138 3.036 3.138zm4.786-.112h1.233v-5.074l3.932 5.074h1.05v-7.132h-1.233v4.931l-3.82-4.931h-1.162v7.132zm11.451.122c2.191 0 3.739-1.681 3.739-3.688v-.02c0-2.007-1.528-3.668-3.718-3.668s-3.739 1.681-3.739 3.688v.02c0 2.007 1.528 3.668 3.718 3.668zm.021-1.162c-1.416 0-2.425-1.141-2.425-2.526v-.02c0-1.386.988-2.517 2.404-2.517s2.425 1.151 2.425 2.537v.02c0 1.386-.988 2.506-2.404 2.506z" fill="#4d008c"/><defs><linearGradient id="A" x1="47.5607" y1="103.215" x2="47.5607" y2="119.556" gradientUnits="userSpaceOnUse"><stop stop-color="#43b8e5"/><stop offset="1" stop-color="#23a3d8"/></linearGradient><radialGradient id="B" cx="0" cy="0" r="1" gradientUnits="userSpaceOnUse" gradientTransform="translate(65.0891 119.306) scale(16.2692)"><stop stop-color="#f5c564"/><stop offset=".2463" stop-color="#ed9145"/><stop offset=".3793" stop-color="#f0512d"/><stop offset=".6995" stop-color="#c11880"/><stop offset=".9544" stop-color="#6561a2"/><stop offset=".9852" stop-color="#5a6aa6"/></radialGradient><clipPath id="C"><path fill="#fff" transform="translate(8.90204 8.9021)" d="M0 0h278.401000976563v84.444801330566H0z"/></clipPath><clipPath id="D"><path fill="#fff" transform="translate(9.74957 28.5454)" d="M0 0h139.25v50.633598327637H0z"/></clipPath><clipPath id="E"><path fill="#fff" transform="translate(11.0001 84)" d="M0 0h274.970001220703v10.079899787903H0z"/></clipPath><clipPath id="F"><path fill="#fff" transform="translate(22.8734 126.203)" d="M0 0h249.884994506836v14.489399909973H0z"/></clipPath></defs></svg>