<svg xmlns="http://www.w3.org/2000/svg" xmlns:xlink="http://www.w3.org/1999/xlink" width="215" height="90" fill="none" xmlns:v="https://vecta.io/nano"><g clip-path="url(#A)"><path d="M12.3688 88.8786c-1.357-.1493-2.68384-.5023-3.93573-1.047-1.66026-.7196-3.16364-1.7572-4.42531-3.0543-2.59343-2.648-4.0334074-6.2149-4.00534319-9.9213L.290868 13.7994C.292597 10.1298 1.75018 6.61075 4.34372 4.01468c1.26909-1.28213 2.78151-2.29779 4.44852-2.98735S12.2473-.0118009 14.0512-.000849038L200.447.663457c1.858.004071 3.696.388063 5.4 1.128383 1.66.71954 3.164 1.75715 4.425 3.05428 2.592 2.65076 4.03 6.21988 3.998 9.92728l-.288 61.0566c-.003 3.6695-1.46 7.1884-4.053 9.7847-1.269 1.2814-2.781 2.2965-4.448 2.9858s-3.453 1.0388-5.256 1.0281l-.099-1.0003.099 1.0003-186.3961-.6644c-.4878-.003-.9752-.0316-1.4601-.0856zM201.893 2.73442c-.417-.04526-.837-.06876-1.257-.07041L14.2405 1.99885C7.66189 1.97595 2.28466 7.36504 2.25327 14.014l-.28849 61.0567c-.02916 3.1253 1.17958 6.1351 3.36224 8.3721 1.07856 1.1124 2.36947 1.9969 3.79622 2.6011s2.96036.9159 4.50976.9164l186.396.6652c6.578.0229 11.955-5.3671 11.987-12.0152l.288-61.0567c.029-3.1253-1.179-6.13508-3.362-8.37209-1.876-1.9352-4.369-3.15443-7.049-3.44709z" fill="#4d008c"/><g fill="#fff"><path d="M138.601 62.6135l2.121.0051c.771 0 1.26.2019 1.563.5167.261.2706.396.6049.394 1.0673v.0127c0 .655-.333 1.1097-.862 1.3719l1.007 1.5271h-1.659l-.814-1.2861h-.312v1.2836h-1.453l.015-4.4983zm2.073 2.1431c.348 0 .56-.1595.561-.4352v-.0136c0-.2885-.216-.4301-.552-.431h-.633v.8798h.624zm2.368-2.132l3.708.0094-.004 1.2327-2.28-.0059v.4556l2.121.0051v1.0851l-2.121-.0051v.4878l2.311.006-.005 1.2327-3.739-.0093.009-4.4941zm5.238 1.2829H147l.005-1.2726 4.012.0102v1.2726h-1.279l-.012 3.2239h-1.454l.008-3.2341zm3.079-1.2633h1.453l-.016 4.4965h-1.453l.016-4.4965zm1.962.0042l2.121.0051c.77 0 1.26.2019 1.563.5176.261.2697.395.604.394 1.0664v.0127c0 .655-.333 1.1106-.862 1.3719l1.007 1.5271h-1.659l-.815-1.2861h-.311v1.2836h-1.453l.015-4.4983zm2.073 2.1431c.348 0 .56-.1595.561-.4352v-.0127c0-.2893-.216-.431-.552-.4319h-.633v.8798h.624zm2.26.1239v-.0127c.005-1.3032 1.046-2.3408 2.388-2.3382s2.362 1.0333 2.358 2.3365v.0127c-.005 1.3032-1.046 2.3408-2.387 2.3382s-2.363-1.03-2.359-2.3365zm3.28.0076v-.0076c0-.5328-.35-1.0181-.909-1.0181s-.903.4726-.905.9994v.0128c0 .5328.351 1.0181.91 1.0181s.902-.4743.904-1.0012v-.0034zm3.449-2.2483l3.708.0093-.005 1.2319-2.279-.0051v.4556l2.121.0051v1.0851l-2.121-.0051v.4879l2.311.0059-.005 1.2327-3.739-.0093.009-4.494zm4.13.0101h1.357l1.54 1.987.007-1.9836h1.442l-.016 4.4966h-1.292l-1.612-2.0778-.007 2.0735h-1.442l.023-4.4957zm7.53 1.2887h-1.28v-1.2726l4.012.0102v1.2726h-1.279l-.012 3.224h-1.453l.012-3.2342zm3.078-1.2641h1.454l-.016 4.4965h-1.454l.016-4.4965z"/><use xlink:href="#B"/><path d="M185.214 62.7247h1.357l1.539 1.9878.008-1.9835h1.442l-.016 4.4965h-1.292l-1.607-2.0769-.008 2.0735h-1.442l.019-4.4974zm4.844.0111h1.665c1.727.0043 2.587.8858 2.582 2.2144v.0136c-.005 1.3286-.89 2.2703-2.647 2.2661h-1.612l.012-4.4941zm1.685 3.1884c.664 0 1.094-.2792 1.096-.9282v-.0127c0-.6482-.424-.9333-1.089-.9333h-.243l-.006 1.875.242-.0008z"/><use xlink:href="#C"/></g><g fill="#e92070"><path d="M145.122 22.8282c-.62-.6448-1.04-1.6425-1.034-3.1484v-.0246c.009-2.6598 1.357-4.6739 4.047-4.6663 1.175 0 2.055.3088 2.899.9333l-1.194 1.8665c-.48-.3538-.985-.61-1.596-.6109-.892 0-1.341.6406-1.45 1.6603.47-.4114 1.036-.7508 1.858-.7482 1.258 0 2.535.9536 2.53 2.5935v.0238c-.008 2.0531-1.598 3.1552-3.42 3.1501-1.245-.005-2.032-.3953-2.64-1.0291zm3.427-1.9598v-.0238c0-.509-.362-.9485-.902-.9502s-.882.4242-.884.9333v.0246c0 .5226.361.9604.902.9621s.881-.4225.884-.946zm3.319-1.4135v-.0237c.008-2.345 1.496-4.4304 3.987-4.4245s3.941 2.0744 3.933 4.4185v.0246c-.009 2.3442-1.497 4.4304-3.988 4.4245s-3.941-2.0744-3.932-4.4194zm5.193.0128v-.0272c.004-1.1657-.498-1.9691-1.238-1.9708s-1.225.7746-1.229 1.9411v.0238c0 1.1665.498 1.9691 1.239 1.9708s1.224-.7712 1.228-1.9377zm-12.31 5.507h.758l.463.7916.469-.789h.759l-.008 2.2491h-.724v-1.1148l-.503.7984h-.013l-.498-.8009v1.1148h-.712l.009-2.2492zm2.704.0069h.727l-.007 2.2491h-.728l.008-2.2491zm.983.0017h.679l.77.9952v-.9927h.721l-.008 2.2492h-.647l-.804-1.0402v1.0385h-.721l.01-2.25zm2.401 1.2446l.004-1.2404h.74v1.2311c0 .2791.138.3987.334.3987s.34-.1077.34-.3809l.005-1.2472h.739l-.005 1.2243c0 .7636-.435 1.069-1.085 1.0673s-1.075-.3054-1.072-1.0529zm2.944-.5939h-.641v-.6363h2.008v.6363h-.64l-.006 1.612h-.727l.006-1.612z"/><path d="M155.166 26.1302v-.0059c.001-.1557.032-.3098.092-.4533s.149-.2736.26-.3825.243-.1947.388-.252.299-.0853.455-.0822c.155-.0029.309.0252.453.0828s.274.1434.384.2524.197.239.256.3822.089.2969.087.4518v.0067c0 .1557-.032.3097-.092.4532s-.149.2733-.26.3822-.244.1946-.388.252-.3.0855-.455.0826c-.155.0028-.309-.0254-.453-.0831s-.274-.1436-.384-.2527-.197-.2391-.256-.3824-.088-.2969-.087-.4518zm1.641.0043v-.0068c0-.2664-.175-.5091-.454-.5091s-.453.2368-.453.4998v.0068c0 .2664.175.509.455.509s.451-.2367.452-.4997zm.734.7823l.391-.4777c.216.1729.486.2666.763.2656.13 0 .187-.0348.187-.0959v-.0068c0-.0636-.068-.0992-.301-.1484-.488-.1035-.917-.2495-.915-.7254v-.0094c0-.4242.327-.7576.926-.7559.42 0 .73.1044.981.3105l-.356.5091c-.188-.1411-.416-.2192-.652-.2232-.108 0-.158.0382-.158.0934v.0059c0 .0611.058.1001.288.1451.556.1077.928.2757.927.7288v.0067c0 .4718-.38.7636-.963.7585-.445 0-.842-.1289-1.118-.3809zM137.19 59.8436l-.048 10.0919 62.806.2239.048-10.0918-62.806-.224z"/></g><path d="M168.396 17.5613c.06.0037.121.0105.181.0204l-1.811 8.3382-1.543-.006c-.173.4885-.371.9674-.594 1.4347l2.006.0068v.3784l-.054 2.4824c-.181 1.8003-1.121 3.0984-2.749 3.8493-.767.3515-1.617.4822-2.455.3773s-1.629-.4413-2.287-.9712c-.423.2582-.859.4938-1.307.7058.218.2079.45.401.694.5778.057.0354.103.0858.133.1457s.043.127.037.1937l-.014 2.7454-15.611-.0551c-.188.0055-.366.0838-.498.2185s-.205.315-.206.5032.072.3692.202.5051.308.2159.496.2231l15.61.0552-.02 4.1343-20.404-.073c-.123-.0006-.246.0232-.36.0698s-.217.1153-.305.202-.157.1899-.205.3035-.072.2356-.073.3588.023.2454.07.3594.115.2178.202.3054.19.1571.304.2047.235.0725.358.0731l20.404.0721-.016 3.5243-15.441-.0552c-.189.0055-.367.0839-.498.2185s-.206.3151-.207.5032.072.3693.202.5052.308.2158.496.2231l15.441.0551-.018 3.6236-19.637-.0696c-.239.0005-.468.0957-.637.2648s-.263.3983-.263.6371c-.001.1181.021.2352.066.3448s.109.2093.192.2936.181.1515.29.1977.225.0706.343.0717l19.638.0704-.007 1.5271c0 .5337.268.8077.795.8103l3.094.011 15.462.0551h1.115l17.441.062c.518 0 .797-.2809.801-.8094l.013-2.8753.054-11.557.035-7.6883c-.006-.0702.008-.1407.04-.2037s.079-.1161.139-.1535c1.583-1.1453 2.474-2.6996 2.584-4.6662l.045-3.224c.003-.275-.062-.5465-.19-.7899l-2.305-4.6857-2.324-4.7766c-.17-.347-.418-.4887-.793-.4895l-9.154-.0306-14.051-.0492c-1.092 0-2.185 0-3.278-.0059l-2.794-.0127.407 1.3922 2.719.0127zm5.339 39.1219l-8.266-.0297.072-15.3384 8.266.0297-.072 15.3384zm25.009-29.1683c-.016 1.0181.061 2.0514-.071 3.0543-.215 1.6459-1.139 2.8574-2.63 3.5633-1.956.9264-4.116.4335-5.524-1.22-.694-.8095-1.081-1.8371-1.095-2.9033l.006-2.4604c.003-.0393.008-.0784.016-.1171l9.265.0331c.018.0255.038.0357.038.0501h-.005zm-10.915-9.8857l6.172.0187c.07-.0076.14.0084.199.0454s.105.0931.129.159l3.461 7.0834.528 1.0953-9.014-.0322-1.735-8.3704.26.0008zm-9.055-.0212l7.374.0263 1.732 8.3645-9.146-.0331.04-8.3577zm-.056 9.7873l9.32.033c0 .0849.011.1494.011.2164l-.012 2.2059c-.034 1.4702-.599 2.7047-1.729 3.6295-1.304 1.0656-2.8 1.3574-4.386.8221-1.723-.5803-2.765-1.819-3.126-3.6202-.062-.37-.091-.7448-.085-1.1199l.007-2.1668zm4.613 8.5477c2.39.0136 4.15-1.1555 5.375-3.1858 1.697 2.7276 4.093 3.733 7.226 2.9762l-.099 21.0482-1.052-.0042-15.962-.0586-3.436-.0067c-.211 0-.264-.0628-.263-.2715l.067-13.1215.014-2.5775c0-.5498-.244-.7984-.791-.8009l-9.45-.0331c-.563 0-.813.2545-.816.8289l-.066 13.0061-.008 2.6462v.2673l-4.115-.0145.008-1.8342.091-19.225c3.062.9426 5.901-.4853 7.231-2.9312 1.206 2.0489 2.946 3.24 5.333 3.2536s4.152-1.1462 5.387-3.207c1.194 2.0532 2.941 3.2316 5.326 3.2452zm-6.047-5.6088c-.176 2.1269-1.966 3.9238-4.066 4.1359-2.005.202-3.531-.6108-4.588-2.3102-.416-.6861-.633-1.4746-.627-2.2771l.009-2.3026v-.2265l9.298.0331c.014.0322.031.0526.03.0721l-.056 2.8753zm-7.359-12.4013c.099-.4513.018-.3648.441-.3639l6.694.0229h.317l-.039 8.3645-9.145-.0331.539-2.4689 1.19-5.5215h.003z" fill="#4d008c"/><path d="M165.469 56.6536l8.266.0297.072-15.3384-8.266-.0297-.072 15.3384zm5.309-9.1628c.994.1094 1.795 1.0121 1.791 2.0175s-.814 1.7316-1.808 1.6221-1.795-1.0121-1.79-2.0175.814-1.7333 1.807-1.6238v.0017z" fill="#e92070"/><path d="M179.433 50.4398l5.738.0118 5.738.0289c.57.0085.856-.3648.849-.8662l.005-2.2102.033-6.5616c0-.5777-.255-.8407-.829-.8424l-5.671-.0204-5.876-.0203c-.47 0-.763.2791-.763.7186l-.05 8.9083c-.011.4632.264.8585.826.8535zm.623-9.078l10.331.0373-.037 7.6586-10.33-.0373.036-7.6586z" fill="#4d008c"/><path d="M190.387 41.4033l-10.331-.0373-.036 7.6586 10.33.0373.037-7.6586z" fill="#e92070"/><g fill="#4d008c"><path d="M165.925 18.8883c-.058-.1095-.268-.2452-.656-.6016-.147-.134-.226-.1077-.33.0196l-1.009 1.1784c-.039-.029-.071-.0666-.093-.1099s-.034-.091-.034-.1395c-.203-1.4255-.639-2.8079-1.291-4.0919-1.073-2.1482-2.746-3.9395-4.815-5.1575-2.16-1.29383-4.435-1.87838-6.821-1.80118-3.079.10012-5.721 1.14705-7.954 3.07468-.883.7684-1.649 1.6616-2.273 2.6512-1.138 1.7817-1.931 3.733-2.129 5.9347-.204 2.2652.206 4.505 1.194 6.6871.625 1.3762 1.528 2.5512 2.612 3.6143 1.012 1.012 2.162 1.8771 3.415 2.5698 1.527.8255 3.117 1.2582 4.779 1.2259.779-.0152.841-.0466.938-.817.058-.4615.015-.509-.458-.509-1.716.0119-3.41-.3959-4.933-1.1878-2.863-1.4864-4.796-3.8017-5.831-6.8534-.54-1.5968-.602-3.1977-.438-4.7953.16-1.5669.638-3.0849 1.403-4.4616s1.802-2.5837 3.048-3.5474c1.3-.9983 2.8-1.7042 4.398-2.06955s3.255-.38142 4.859-.04718c1.63.31611 3.167.99593 4.497 1.98863 2.137 1.6061 3.534 3.7042 4.242 6.2359.154.5124.243 1.0423.265 1.5771l-.501-.3996c-.881-.7228-.594-.7058-1.312.1222l-.021.0263c-.11.1392-.085.2596.067.3869l2.237 1.8903c.388.319.651.2799.94-.0662l1.51-1.8088c.296-.3691.471-.5091.5-.6211.006-.0157.009-.0325.008-.0493s-.005-.0332-.013-.0482zm-14.384 11.2872c0-.2088-.061-.398-.316-.4506s-.419.0535-.462.3029c-.027.1809-.04.3635-.039.5464 0 .1884-.089.2545-.272.2435-1.601-.0676-3.154-.5716-4.489-1.4576-1.437-.9274-2.61-2.2096-3.406-3.7228-.577-1.1029-.976-2.2432-1.042-3.4471-.042-.7517-.014-.7508.708-.8178.022-.0011.045-.004.066-.0085.048-.0062.093-.0217.135-.0457s.077-.0561.106-.0943.05-.0817.061-.128.014-.0946.007-.1418c-.014-.241-.188-.3105-.389-.3326-.102-.017-.205-.0277-.308-.0322-.305 0-.399-.1451-.388-.4429.038-.9724.249-1.9302.625-2.8278.641-1.5442 1.656-2.9048 2.954-3.9595 1.442-1.1962 3.095-1.9428 5.029-2.121.629-.0585.63-.0535.696.5981v.0348c.04.2147.079.4242.365.4488.269.0246.398-.1154.432-.3538.021-.1714.026-.3443.016-.5166-.011-.2351.084-.3207.319-.2995.266.0246.52.1213.782.1586 1.658.2324 3.221.9156 4.518 1.9751.57.4573 1.049.996 1.534 1.5348.191.2112.419.3665.657.151.213-.1926.124-.4047-.039-.6456-.424-.6321-.981-1.1454-1.564-1.5984-2.141-1.6638-4.49-2.5308-7.057-2.39-2.472.1349-4.606 1.0266-6.438 2.5401-1.369 1.1301-2.328 2.5894-2.984 4.2726-.644 1.6553-.915 3.4064-.661 5.2661.232 1.6909.888 3.2604 1.841 4.7324.803 1.2401 1.886 2.2743 3.162 3.0195 1.416.8366 2.922 1.3431 4.483 1.4508l1.05.1179c.219.0289.308-.056.305-.2765l.003-1.2828z"/></g><g fill="#fff"><path d="M138.601 62.6135l2.121.0051c.771 0 1.26.2019 1.563.5167.261.2706.396.6049.394 1.0673v.0127c0 .655-.333 1.1097-.862 1.3719l1.007 1.5271h-1.659l-.814-1.2861h-.312v1.2844h-1.453l.015-4.4991zm2.073 2.1423c.348 0 .56-.1587.561-.4353v-.0127c0-.2885-.216-.4301-.552-.431h-.633v.8798l.624-.0008zm2.368-2.1312l3.708.0085-.004 1.2328-2.28-.0051v.4556l2.121.0051v1.0851l-2.121-.0051v.4878l2.311.006-.005 1.2327-3.739-.0093.009-4.4941zm5.238 1.2829H147l.005-1.2726 4.012.0093v1.2726h-1.279l-.012 3.224h-1.454l.008-3.2333zm3.079-1.2642h1.453l-.016 4.4966h-1.453l.016-4.4966zm1.962.0051l2.121.0051c.77 0 1.26.2019 1.563.5176.261.2697.395.604.394 1.0664v.0127c0 .655-.333 1.1097-.862 1.3719l1.007 1.5271h-1.659l-.815-1.2853h-.311v1.2837h-1.453l.015-4.4992zm2.073 2.1431c.348 0 .56-.1595.561-.4352v-.0127c0-.2893-.216-.431-.552-.4319h-.633v.8798h.624zm2.26.1239v-.0127c.005-1.3032 1.046-2.3416 2.388-2.3382s2.362 1.0333 2.358 2.3365v.0127c-.005 1.3032-1.046 2.3408-2.387 2.3374s-2.363-1.0291-2.359-2.3357zm3.28.0076v-.0076c0-.5328-.35-1.0181-.909-1.0181s-.903.4726-.905.9994v.0128c0 .5328.351 1.0181.91 1.0181s.902-.4743.904-1.0012v-.0034zm3.449-2.2483l3.708.0085-.005 1.2327-2.279-.0051v.4556l2.121.0051v1.0851l-2.121-.0051v.4879l2.311.0059-.005 1.2327-3.739-.0093.009-4.494zm4.13.0101h1.357l1.54 1.9878.007-1.9835h1.442l-.016 4.4965h-1.292l-1.612-2.0769-.007 2.0735h-1.442l.023-4.4974zm7.53 1.2887h-1.28v-1.2726l4.012.0094v1.2726h-1.279l-.012 3.2239h-1.453l.012-3.2333zm3.078-1.2641h1.454l-.016 4.4965h-1.454l.016-4.4965z"/><use xlink:href="#B"/><path d="M185.214 62.7239h1.357l1.539 1.9878.008-1.9836h1.442l-.016 4.4966h-1.292l-1.607-2.0778-.008 2.0744h-1.442l.019-4.4974zm4.844.0119h1.665c1.727.0043 2.587.8858 2.582 2.2144v.0127c-.005 1.3295-.89 2.2712-2.647 2.267h-1.612l.012-4.4941zm1.685 3.1884c.664 0 1.094-.28 1.096-.9282v-.0127c0-.6482-.424-.9333-1.089-.9333h-.243l-.006 1.875.242-.0008z"/><use xlink:href="#C"/></g><g fill="#e92070"><path d="M115.656 69.2719L8.95844 68.8918l.04751-10.1368 106.69905.3809-.049 10.136zM17.2999 45.7905l7.5229-5.5452c1.142-.8264 1.5839-1.5475 1.5865-2.2695 0-.8026-.5939-1.3922-1.6247-1.3948s-1.9946.6643-3.5014 2.3187l-3.9722-3.509c2.1057-2.67 4.2326-4.1088 8.0098-4.0995 4.1393.0093 7.1063 2.5842 7.0935 6.1416v.0535c-.0101 2.8617-1.4906 4.4117-3.6685 5.8489l-3.2426 2.1278 7.063.0161-.0178 4.8954-15.2646-.0365.0161-4.5475zm24.9366 1.3701l-8.7192-.0204-.9672-4.3888 8.8888-11.2126 6.7271.0161-.0399 11.2067 2.1728.0051-.0153 4.4117-2.1736-.0051-.0119 3.2359-5.8727-.0136.0111-3.235zm.0161-4.3328l.0178-4.9751-3.8713 4.9657 3.8535.0094zm-.6296 9.0526h.974v1.063h.8909v-1.063h.9747l-.011 3.0127h-.9748v-1.08h-.8909v1.0808h-.9739l.011-3.0135zm3.1739.0075h1.4236c.5167 0 .8484.1349 1.0486.347.0902.0949.1602.2072.2056.33s.0652.2536.0583.3844v.0093c.0052.1932-.0469.3837-.1497.5473s-.2518.2933-.4281.3724l.6745 1.0257h-1.1114l-.5464-.8619h-.2087v.8611h-.9749l.0086-3.0153zm1.3896 1.4364c.2334 0 .375-.1069.3759-.2919v-.0084c0-.1935-.1451-.2885-.3699-.2893h-.4242v.5896h.4182z"/><path d="M47.5229 54.4553l.5226-.6405c.2892.2305.6482.3559 1.0181.3554.1748 0 .2545-.0466.2545-.1281v-.0085c0-.0848-.0907-.134-.403-.1993-.6532-.1392-1.2268-.3343-1.2243-.9715v-.0085c0-.5726.4361-1.018 1.2396-1.0129.5625 0 .9782.1399 1.3142.4165l-.4768.6788c-.2523-.1892-.5578-.2937-.873-.2987-.146 0-.213.0509-.213.1239v.0093c0 .0848.0789.1332.3869.1943.744.1434 1.2429.3691 1.2412.9757v.0084c0 .633-.5091 1.0181-1.2904 1.0181-.5948-.0025-1.1267-.1756-1.4966-.5124zm7.4685-5.8439v-.034c.0127-3.4683 2.6708-6.0508 6.2188-6.0423 1.9267 0 3.4785.6719 4.6977 1.7706l-2.1126 2.6165c-.7364-.649-1.5535-1.0181-2.485-1.0181-1.4601 0-2.524 1.1555-2.5299 2.7327v.0331c-.006 1.6425 1.0978 2.7743 2.6707 2.7777.6423 0 .9961-.0967 1.2854-.2622v-1.1623h-1.9267l.0093-2.4892 5.4425.0127-.0195 5.3772c-1.2243 1.0258-2.9279 1.7359-4.9674 1.7308-3.4955-.0127-6.296-2.4426-6.2833-6.0432zm12.3834-5.8124l5.4901.0127c1.9904.0051 3.257.5218 4.041 1.3371.6719.6991 1.0181 1.5627 1.0181 2.7573v.0331c-.006 1.6968-.8612 2.8693-2.2279 3.5464l2.6028 3.9569-4.287-.011-2.1074-3.3241h-.8026l-.0119 3.319-3.7567-.0085.0415-11.6189zm5.3577 5.5392c.8993 0 1.4423-.4115 1.4491-1.125v-.0339c0-.7466-.5574-1.1131-1.4245-1.1148h-1.6374l-.0085 2.2737h1.6213z"/><path d="M82.3696 42.7515l3.7245.0084 4.6943 11.7123-4.0784-.0101-.5879-1.5611-3.9332-.0093-.5837 1.5585-4.0138-.0093 4.7782-11.6894zm2.8311 7.3922l-1.0181-2.8244-1.0375 2.8193 2.0556.0051zm7.5118-3.9986l-3.3088-.0077.012-3.2867 10.3709.0255-.0119 3.2858-3.3088-.0084-.0305 8.3314-3.7567-.0085.0338-8.3314zm7.9595-3.2672l3.756.0094-.041 11.6172-3.757-.0093.042-11.6173zm4.106 9.8849l2.015-2.468c1.116.8885 2.502 1.3716 3.929 1.3701.673 0 .964-.1807.964-.4954v-.0331c0-.3326-.351-.5159-1.554-.7636-2.519-.537-4.731-1.2887-4.722-3.7449v-.0382c.007-2.2058 1.683-3.9128 4.782-3.9026 2.167.0059 3.771.5404 5.067 1.606l-1.839 2.6173c-.973-.7302-2.152-1.1338-3.368-1.153-.561 0-.819.1969-.82.4794v.0331c0 .3156.303.515 1.49.7508 2.872.554 4.795 1.422 4.786 3.7619v.0331c-.008 2.44-1.956 3.929-4.974 3.9213-2.279-.0076-4.333-.6762-5.756-1.9742z"/></g><g fill="#fff"><path d="M11.2185 61.1949l1.8945.0051c1.9667 0 2.9457 1.0079 2.9406 2.5215v.0144c-.0059 1.5136-1.0181 2.5851-3.0152 2.5809h-1.8385l.0186-5.1219zm1.9175 3.6304c.7568 0 1.2454-.3182 1.248-1.0563v-.0152c0-.7382-.4836-1.0606-1.2404-1.0631h-.2757l-.0076 2.1346h.2757zm3.3791-3.6175l4.2218.0101-.0051 1.4033-2.5953-.0059v.5192l2.418.0059v1.2353l-2.4188-.0059v.5557l2.63.0059-.0051 1.4033-4.2573-.0093.0118-5.1176zm8.2246-.017l1.6408.0042 2.0675 5.1584h-1.796l-.2588-.6881h-1.7333l-.2546.6864h-1.768l2.1024-5.1609zm1.2471 3.2562l-.448-1.2438-.4572 1.2412.9052.0026zm2.6844-3.2104l2.418.0059c.8772 0 1.4346.2299 1.7816.5888.2961.308.4506.6889.448 1.2149v.0145c0 .7457-.3793 1.2641-.9808 1.5619l1.1463 1.7426h-1.8886l-.9281-1.4644h-.3538l-.0052 1.4619h-1.6544l.017-5.1261zm2.3603 2.44c.3954 0 .6363-.1807.638-.4955v-.0144c0-.3292-.246-.4904-.6278-.4912h-.7211v1.0011h.7109zm2.7098-2.4272h1.6544l-.0186 5.1176-1.6544-.0042.0186-5.1134zm2.1125 2.5774v-.0145c.0059-1.5271 1.1623-2.6648 2.6403-2.6614 1.0893 0 1.8223.5523 2.2372 1.3354l-1.3676.8229c-.1824-.3656-.4438-.6227-.896-.6235-.5591 0-.9282.5022-.9332 1.1165v.0144c0 .6651.3775 1.1335.9222 1.1352.4666 0 .7296-.2613.9332-.6414l1.3618.8c-.4242.7636-1.1149 1.3795-2.3451 1.3761-1.3651-.0034-2.5596-1.0732-2.5528-2.6597zm6.8722-2.5927h1.6399l2.0676 5.1592h-1.796l-.2546-.688h-1.7324l-.2545.6863h-1.7682l2.0982-5.1575zm1.2471 3.2554l-.4488-1.2438-.4564 1.2421.9052.0017zm6.2094-3.2377h1.64l2.0684 5.1592-1.7969-.0051-.2545-.6872h-1.7324l-.2546.6864h-1.768l2.098-5.1533zm1.2472 3.2554l-.4488-1.2438-.4564 1.2421.9052.0017zm4.4806-3.2052l2.2279.0051c1.315 0 2.211.6117 2.2059 1.8258v.0144c-.0051 1.2353-.9197 1.8911-2.2559 1.8877h-.5371l-.0051 1.3889h-1.6553l.0196-5.1219zm2.0913 2.5121c.4242 0 .7076-.1959.7093-.5608v-.0152c0-.3725-.2597-.5634-.6983-.5642h-.4522l-.0042 1.1402h.4454zm2.6504.3208l.0102-2.8218h1.6832l-.0102 2.7998c0 .6354.3148.9069.7636.9078s.7636-.2461.7636-.868l.0102-2.8362h1.6832l-.0102 2.7853c-.0059 1.7469-.9917 2.4316-2.4697 2.4282s-2.4298-.6991-2.4239-2.3951zm5.4272-2.8092h1.5484l1.7528 2.2627.0076-2.2585h1.6409l-.0179 5.1176-1.4711-.0042-1.8299-2.3654-.0086 2.3612h-1.6408l.0186-5.1134zm6.7763 1.4635h-1.4567l.0051-1.4474 4.5679.011-.0052 1.4474h-1.4567l-.0127 3.6694h-1.6553l.0136-3.6804zm4.5806-1.4729l1.6408.0042 2.0676 5.1584h-1.7961l-.2596-.6881h-1.7325l-.2545.6872h-1.7681l2.1024-5.1617zm1.2472 3.2562l-.448-1.2438-.4572 1.2412.9052.0026zm6.2087-3.2384h1.6408l2.0676 5.1583-1.7961-.0042-.2596-.6881h-1.7325l-.2545.6872h-1.7681l2.1024-5.1532zm1.2472 3.2562l-.448-1.2438-.4573 1.2413.9053.0025zm2.6817-3.2102l2.4189.006c.8764 0 1.4347.2299 1.7817.5888.2952.3079.4496.6889.4479 1.2149v.0144c0 .7458-.3792 1.2641-.9816 1.5619l1.1462 1.7427h-1.8877l-.9282-1.4644h-.3538l-.0051 1.4618H88.804l.0169-5.1261zm2.3603 2.4401c.3962 0 .6372-.1816.6381-.4955v-.0144c0-.3292-.2453-.4904-.6271-.4913h-.7219v1.0012h.7109zm2.6963-2.4284l4.2216.0102-.005 1.4041-2.5954-.0067v.5192l2.418.0059v1.2353l-2.4188-.0059v.5557l2.6301.0059-.0051 1.4041-4.2574-.0101.012-5.1177zm4.7018.012h1.5497l1.752 2.2627.008-2.2584h1.641l-.019 5.1167h-1.47l-1.83-2.3654-.009 2.3612h-1.6405l.0178-5.1168zm7.2417-.0195h1.64l2.069 5.1583h-1.797l-.255-.6881h-1.732l-.255.6864h-1.768l2.098-5.1566zm1.248 3.2562l-.449-1.2438-.457 1.2412.906.0026zm2.188 1.1376l.887-1.0868c.492.3915 1.102.6042 1.731.6032.297 0 .424-.0789.424-.218v-.0144c0-.146-.155-.2274-.685-.3394-1.109-.2367-2.084-.5684-2.08-1.6502v-.0144c0-.9723.742-1.724 2.107-1.7206.954 0 1.66.2384 2.232.7076l-.81 1.153c-.429-.3222-.948-.5004-1.484-.509-.248 0-.361.0848-.362.2112v.0144c0 .1392.134.2274.657.3309 1.265.2444 2.112.6261 2.108 1.657v.0144c0 1.0749-.862 1.7307-2.191 1.7273-1.003 0-1.907-.2944-2.534-.8662z"/></g><g fill="#4d008c"><path d="M10.4253 47.489c-1.10713-3.2664-1.23275-6.543-.89932-9.811.32841-3.2054 1.30492-6.3105 2.87012-9.1269s3.6865-5.2853 6.235-7.2568c2.1348-1.6453 4.5409-2.9044 7.1097-3.7203 3.7814-1.2115 7.7154-1.4516 11.8311-.6125 3.3173.6787 6.4029 1.9632 9.2044 4.0724 4.3735 3.2858 7.231 7.578 8.686 12.7583.2893 1.0283.509 2.0676.5413 3.224l-1.0232-.817c-1.8028-1.4796-1.2107-1.4423-2.6852.2545-.0144.017-.0272.0356-.0416.0535-.2257.2842-.1697.5311.1374.7915l4.5747 3.8671c.7941.6524 1.3328.5718 1.9225-.1366l3.0907-3.6999c1.3821-1.7232 1.4822-1.0181-.3444-2.6929-.3004-.2749-.4607-.2206-.6787.0407-.6652.8069-1.3575 1.59-2.0617 2.4104-.2239-.1757-.2384-.3453-.2613-.5091-.4151-2.9163-1.3071-5.7445-2.6402-8.3712-2.2653-4.4966-5.58-7.9921-9.8518-10.5517-4.4176-2.6471-9.0712-3.8425-13.9529-3.6838-6.2986.2053-11.7038 2.3467-16.2733 6.2892-1.8055 1.5719-3.3715 3.3991-4.6485 5.4239-2.32716 3.6482-3.94848 7.6357-4.35487 12.1408-.41741 4.6348.42419 9.2179 2.44341 13.6806.82716 1.8033 1.88836 3.4897 3.15606 5.0158l3.2096.0119c-2.3493-2.5258-4.1097-5.5486-5.295-9.0449zm4.746 2.1804c-1.1793-2.2517-1.9963-4.5899-2.132-7.0537-.0849-1.5373-.0264-1.5348 1.4499-1.6714.0456-.0029.091-.0088.1358-.0178.4369-.0942.6591-.3843.6311-.8382-.0288-.4938-.3851-.6363-.7958-.6787-.2086-.0341-.4191-.0562-.6303-.0662-.6227.0051-.8162-.297-.7941-.9053.0771-1.9894.5104-3.9488 1.2794-5.7853 1.3379-3.2417 3.3936-5.9032 6.0423-8.0997 2.9542-2.4477 6.3326-3.9748 10.2887-4.3414 1.2862-.1187 1.2879-.1094 1.4237 1.2235 0 .0237 0 .0475.0068.0712.0848.4403.1629.8629.7466.918.5523.0518.8144-.2359.8857-.7228.0426-.351.0526-.7052.0297-1.058-.0204-.4811.1697-.6558.655-.6117.5429.05 1.0638.2486 1.5992.3241 3.3732.4785 6.453 1.8012 9.2476 4.041 1.1649.9332 2.1448 2.0361 3.1392 3.1391.3911.4327.8569.75 1.3439.3088.4344-.3928.2545-.8281-.0848-1.321-.8739-1.2921-2.0066-2.3424-3.1995-3.2698-4.3812-3.4021-9.1865-5.1753-14.4364-4.8893-5.0574.2765-9.4233 2.1006-13.1716 5.1965-2.7998 2.3119-4.7622 5.2974-6.1035 8.7386-1.3193 3.3851-1.8724 6.9671-1.3523 10.7748.4717 3.4581 1.8164 6.6685 3.766 9.6804.9019 1.3946 1.9814 2.666 3.2112 3.7822l2.7337.0093c-2.4553-1.8275-4.4627-4.1029-5.9152-6.8772z"/><path d="M115.313 33.8949l-58.2005-.2078c-.194-.0017-.3858-.0416-.5644-.1174s-.3405-.1862-.4764-.3246-.2432-.3023-.3157-.4823-.1089-.3724-.107-.5664c-.0002-.3922.1551-.7685.4321-1.0462s.6528-.4342 1.045-.4351l58.2009.2078c.194.0017.386.0416.564.1175s.341.1863.477.3249.243.3025.315.4825.109.3726.107.5667c0 .3919-.155.768-.432 1.0456s-.653.4339-1.045.4348zm-15.4493-6.1612l-44.975-.1603c-.1499-.0015-.2981-.0324-.436-.0912s-.263-.1441-.368-.2511-.1878-.2338-.2437-.3729-.084-.2879-.0824-.4378c-.0002-.303.1198-.5936.3338-.8081s.5044-.3351.8073-.3356l44.975.1604c.1503.0012.2983.032.4363.0906s.263.1439.368.2509.188.2337.244.3728.084.2879.082.4378c0 .303-.12.5936-.334.8081s-.504.3355-.8073.3364zm-4.9716-5.4035l-44.9751-.1604c-.1499-.0013-.298-.0322-.436-.0908s-.2629-.1439-.3679-.2509-.1878-.2337-.2438-.3728-.0839-.2877-.0823-.4376.0291-.2988.0863-.4375.1412-.2648.2472-.3711.2318-.1907.3703-.2483.2872-.0874.4372-.0876l44.9751.1612c.1499.0013.2982.0322.4361.0908s.2631.1439.3682.2509.1879.2336.244.3727.0841.2878.0826.4377c0 .303-.1202.5937-.3343.8081s-.5046.3351-.8076.3356zM124.21 78.2107l-1.966-.2155.322-68.20113 1.966.21633-.322 68.2003z"/></g></g><defs><clipPath id="A"><path fill="#fff" d="M0 0h214.268005371094v89.626899719238H0z"/></clipPath><path id="B" d="M181.084 62.7145l3.708.0085v1.2327l-2.28-.0051v.4556l2.122.0051-.005 1.0851-2.121-.0051v.4879l2.311.0059-.005 1.2327-3.739-.0093.009-4.494z"/><path id="C" d="M195.916 62.7179h1.442l1.816 4.5305h-1.578l-.228-.6041-1.521-.0042-.226.6032h-1.553l1.848-4.5254zm1.095 2.8591l-.394-1.0919-.401 1.0902.795.0017z"/></defs></svg>