<svg xmlns="http://www.w3.org/2000/svg" width="155" height="189" fill="none" xmlns:v="https://vecta.io/nano"><g clip-path="url(#A)"><path d="M29.9973 187.458c-.3781-.023-.7372-.174-1.0177-.429s-.4659-.597-.5252-.971c-.0375-.198-.0339-.401.0104-.598s.1286-.381.2474-.544.2698-.299.4436-.401.3665-.167.5664-.191l109.8698-11.65c3.24-.393 6.225-1.958 8.392-4.399s3.369-5.589 3.377-8.853v-12.834c.03-3.087-1.125-6.069-3.228-8.33s-4.993-3.629-8.075-3.821c-.645-.048-1.293-.048-1.938 0l-30.307 3.241c-.421.035-.839-.089-1.172-.348s-.555-.635-.623-1.052c-.033-.199-.026-.403.022-.6s.136-.381.258-.542.276-.296.452-.396.371-.162.572-.184l30.308-3.241c.796-.064 1.596-.064 2.392 0 3.93.233 7.621 1.966 10.31 4.842s4.17 6.674 4.139 10.611v12.822c-.015 3.998-1.488 7.853-4.144 10.842s-6.312 4.904-10.281 5.388L30.1767 187.458h-.1794z" fill="#e92070"/><g fill="#4d008c"><path d="M70.388 65.9384c.9287.7269 1.6334 1.7012 2.0332 2.8107 6.7028-5.9538 14.8745-10.0087 23.6699-11.7452-1.2141-4.4514-3.7497-8.43-7.272-11.4104-6.0998-5.0553-13.8542-6.957-23.2632-5.7051l-6.8534.909.9808-11.1353 33.8483-4.4971.6698-25.1171484L37.7357 7.53515 32.1382 68.5338l30.7027-4.0785c3.2293-.4306 5.741.0598 7.5471 1.4831zM99.1526 99.655l-.4904 18.132 18.6468-2.464c-3.038 7.599-9.019 11.985-17.9411 13.157-6.9531.925-12.2874-.558-16.0032-4.449s-5.4899-9.019-5.3224-15.382v-.705c-5.7195 4.229-12.4274 6.922-19.4837 7.822.614 9.951 4.1742 18.06 10.6807 24.328 7.4873 7.224 17.2272 10.042 29.2196 8.456 10.8191-1.255 20.7551-6.584 27.7841-14.903 7.248-8.428 11.04-18.695 11.375-30.799l.215-8.3719-38.6804 5.1789z"/></g><g fill="#e92070"><path d="M32.1616 112.919l4.258-.562 2.2964-25.6671-4.2699.5741-2.2845 25.655zm13.9458-27.1978l-5.3583.7057-2.2965 25.6551 5.3584-.705 2.2964-25.6558zm-13.0127 1.7222l-2.5954.3349-2.2845 25.6557 2.5955-.335 2.2844-25.6556zm86.1633-22.1627c-6.142-2.6959-12.926-3.5839-19.5553-2.5595-3.3497.4206-6.6403 1.2232-9.8076 2.3921l-.1914.0717c-6.7369 2.6331-12.7482 6.836-17.5341 12.2596l-.1076.1076c-2.4206 2.8176-5.6143 4.8635-9.1857 5.8846l-.9329.1555-13.8025 1.8539-2.2845 25.7148 12.0443-1.531c3.038-.299 14.9507-2.165 22.725-12.6539l.1435-.2033c1.0765-1.4592 8.3126-10.9319 16.7448-13.0968.61-.1196 1.196-.2272 1.818-.311.4066-.0598.813-.0957 1.196-.1315h1.041c2.631-.1653 5.268.2428 7.726 1.196 2.723 1.0076 5.036 2.8873 6.578 5.3464l16.948-12.4629c-3.174-5.3113-7.911-9.5133-13.563-12.0323z"/></g><g fill="#4d008c"><path d="M2.48814 163.333c-.00371.337-.12551.661-.34413.917s-.52015.426-.85192.482c-.155.012-.310741-.009-.457174-.061s-.28031-.134-.393003-.241-.201696-.237-.261271-.38-.0883958-.298-.0846086-.454c.0032525-.338.1246176-.664.3430696-.922s.52022-.431.852987-.489c.15602-.012.3128.009.46009.062s.28175.136.39463.245.20164.239.26045.384.08638.301.08088.457h0zm5.62101-.598c-.00135.337-.12231.663-.34134.919s-.52192.427-.85472.481c-.15541.013-.31195-.006-.45924-.058s-.28195-.133-.39505-.241-.20207-.238-.26099-.382-.08646-.3-.08077-.456c.00134-.337.1223-.662.34134-.919s.52192-.426.85471-.48c.15541-.014.31195.006.45924.057s.28195.134.39506.241.20207.238.26099.383.08645.299.08077.455h0zm5.62205-.598c-.0013.337-.1223.663-.3413.919s-.5219.427-.8547.48c-.1554.014-.312-.005-.4593-.057s-.2819-.133-.395-.241-.2021-.238-.261-.382-.0865-.3-.0808-.456c.0014-.337.1223-.663.3413-.919s.522-.426.8548-.48c.1554-.014.3119.006.4592.057s.282.134.3951.241.202.238.261.382.0864.3.0807.456h0zm5.6212-.598c-.0013.337-.1223.663-.3413.919s-.522.426-.8548.48c-.155.012-.3107-.009-.4571-.061s-.2803-.134-.393-.241-.2017-.237-.2613-.381-.0884-.298-.0846-.453c.0037-.336.1255-.661.3441-.917s.5202-.426.8519-.482c.1555-.014.312.006.4593.057s.2819.134.395.241.2021.238.261.382.0865.3.0808.456h0zM2.48814 169.05c-.00371.337-.12551.661-.34413.917s-.52015.427-.85192.483c-.155.012-.310741-.009-.457174-.062s-.28031-.134-.393003-.241-.201696-.237-.261271-.38-.0883958-.298-.0846086-.454c.0032525-.337.1246176-.663.3430696-.921s.52022-.431.852987-.49c.15602-.012.3128.009.46009.062s.28175.136.39463.245.20164.239.26045.384.08638.301.08088.457h0zm5.62101-.598c-.00135.338-.12231.663-.34134.92s-.52192.426-.85472.48c-.15541.014-.31195-.006-.45924-.057s-.28195-.134-.39505-.241-.20207-.238-.26099-.383-.08646-.299-.08077-.455c.00134-.337.1223-.663.34134-.919s.52192-.427.85471-.481c.15541-.013.31195.006.45924.058s.28195.133.39506.241.20207.237.26099.382.08645.3.08077.455zm5.62205-.598c-.0013.337-.1223.663-.3413.919s-.5219.426-.8547.48c-.1554.014-.312-.006-.4593-.057s-.2819-.134-.395-.241-.2021-.238-.261-.382-.0865-.3-.0808-.456c.0014-.337.1223-.663.3413-.919s.522-.427.8548-.48c.1554-.014.3119.005.4592.057s.282.134.3951.241.202.238.261.382.0864.3.0807.456zm5.6212-.598c-.0013.337-.1223.663-.3413.919s-.522.426-.8548.48c-.155.012-.3107-.009-.4571-.061s-.2803-.135-.393-.242-.2017-.236-.2613-.38-.0884-.298-.0846-.453c.0037-.337.1255-.661.3441-.917s.5202-.426.8519-.483c.1555-.013.312.006.4593.058s.2819.133.395.241.2021.238.261.382.0865.3.0808.456h0zm-16.86426 7.511c-.00371.337-.12551.661-.34413.917s-.52015.426-.85192.483c-.155.011-.310741-.01-.457174-.062s-.28031-.134-.393003-.241-.201696-.237-.261271-.38-.0883958-.298-.0846086-.454c.0032525-.338.1246176-.664.3430696-.921s.52022-.431.852987-.49c.15602-.012.3128.009.46009.062s.28175.136.39463.245.20164.239.26045.384.08638.301.08088.457h0zm5.62101-.598c-.00135.337-.12231.663-.34134.919s-.52192.427-.85472.481c-.15541.013-.31195-.006-.45924-.058s-.28195-.133-.39505-.241-.20207-.237-.26099-.382-.08646-.3-.08077-.456c.00134-.337.1223-.662.34134-.919s.52192-.426.85471-.48c.15541-.014.31195.006.45924.057s.28195.134.39506.241.20207.238.26099.383.08645.299.08077.455h0zm5.62205-.597c-.0013.337-.1223.662-.3413.919s-.5219.426-.8547.48c-.1554.014-.312-.006-.4593-.057s-.2819-.134-.395-.241-.2021-.238-.261-.383-.0865-.299-.0808-.455c.0014-.337.1223-.663.3413-.919s.522-.427.8548-.481c.1554-.013.3119.006.4592.058s.282.133.3951.241.202.237.261.382.0864.3.0807.456h0zm5.6212-.599c-.0013.338-.1223.663-.3413.92s-.522.426-.8548.48c-.155.012-.3107-.009-.4571-.061s-.2803-.135-.393-.242-.2017-.236-.2613-.38-.0884-.298-.0846-.453c.0037-.337.1255-.661.3441-.917s.5202-.427.8519-.483c.1555-.013.312.006.4593.058s.2819.133.395.241.2021.237.261.382.0865.3.0808.455h0z"/></g><g fill="#e92070"><path d="M25.5956 186.334c-.0043.429-.1624.842-.4455 1.165s-.6724.533-1.0974.593c-.1988.024-.4005.005-.5913-.056s-.366-.163-.5137-.298-.2645-.301-.3421-.486-.1144-.383-.1078-.584c.0048-.431.1646-.845.4501-1.168s.6777-.532 1.1048-.59c.1979-.022.3983-.002.5876.06s.363.164.5093.299.262.3.339.484.1134.381.107.581h0zm-5.0474.681c-.0048.431-.1645.846-.45 1.169s-.6777.532-1.1049.589c-.1978.023-.3982.002-.5875-.06s-.363-.164-.5094-.299-.262-.3-.3389-.483-.1135-.382-.1071-.581c.003-.424.156-.833.4319-1.155s.6567-.535 1.0752-.603c.2015-.03.4072-.015.6024.043s.3751.159.5269.295.272.304.3517.491.1172.39.1097.594h0zm118.3498-19.017L29.0163 179.636c-1.0003.122-2.0152.025-2.9745-.284s-1.8401-.822-2.5816-1.504-1.326-1.518-1.7131-2.448-.5677-1.934-.5291-2.941V159.65c.0211-2.164.8211-4.247 2.2533-5.868s3.4009-2.672 5.545-2.959l109.8817-11.65c1-.12 2.014-.022 2.972.288s1.838.823 2.579 1.505 1.326 1.516 1.714 2.445.569 1.932.533 2.938v12.822c-.026 2.162-.828 4.242-2.259 5.862s-3.397 2.673-5.539 2.965h0z"/></g><g fill="#fff"><path d="M36.3242 174.48l3.2413-20.5 5.0474-.526c4.7842-.515 8.3723.669 7.4753 6.052s-4.3776 7.307-9.1618 7.678l-1.0525 6.71-5.5497.586zm8.504-16.745l-.4067.072-.7535 4.784c.7003-.007 1.3737-.27 1.8936-.739s.8503-1.112.9291-1.808c.2153-1.328-.299-2.428-1.6625-2.237v-.072zm15.9909 14.174l-1.7103-8.217-.0838.072-.3827 3.002-.8612 5.466-5.5497.586 3.2413-20.5 5.3464-.563c4.7842-.514 8.0734.539 7.1763 5.981-.1556 1.174-.6027 2.29-1.3005 3.247s-1.624 1.724-2.6943 2.231l2.7748 8.097-5.9563.598zm-.9449-10.765c.6904-.124 1.3219-.469 1.8004-.982s.7784-1.167.8549-1.864c.299-1.794-.6818-2.392-2.2008-2.201l-.8133 5.059.3588-.012zm19.2328-11.709c5.6215-.598 6.9491 4.784 6.1597 9.772s-3.8871 10.836-9.5086 11.434-6.9251-4.784-6.1357-9.784 3.8512-10.788 9.4846-11.422zm-2.5356 16.039c2.0931-.227 2.8347-4.39 3.05-5.669s.7535-5.43-1.3396-5.203-2.8227 4.377-3.0141 5.657-.7894 5.478 1.3037 5.263v-.048zm12.9533-16.745l5.2746-.55 2.4998 11.877.4904-7.009.8133-5.215 5.3342-.562-3.241 20.5-5.3226.563-2.2485-11.399-.0598.06-.5383 5.729-.9568 5.98-5.3224.562 3.2771-20.536zm16.5413 18.419l2.392-15.489-3.038.311.789-4.999 11.758-1.196-.79 4.999-3.169.335-2.393 15.549-5.549.49zm21.433-22.761c5.633-.586 6.961 4.785 6.172 9.784s-3.888 10.836-9.509 11.422-6.925-4.784-6.136-9.771 3.851-10.837 9.473-11.435zm-2.524 16.039c2.093-.215 2.835-4.377 3.05-5.657s.754-5.43-1.339-5.215-2.823 4.39-3.014 5.67-.79 5.43 1.303 5.202z"/></g></g><defs><clipPath id="A"><path fill="#fff" d="M0 0h154.529998779297v188.785003662109H0z"/></clipPath></defs></svg>