<svg xmlns="http://www.w3.org/2000/svg" width="171" height="20" fill="none" xmlns:v="https://vecta.io/nano"><path d="M140.342 10a9.27 9.27 0 0 1-9.263 9.263c-5.102 0-9.263-4.137-9.263-9.263a9.27 9.27 0 0 1 9.263-9.263c5.101 0 9.263 4.162 9.263 9.263z" fill="#0076f4"/><path d="M133.124 5.839h1.175V3.864c-.211-.023-.893-.094-1.716-.094-1.716 0-2.868 1.035-2.868 2.916v1.623h-1.928v2.209h1.928v5.666h2.304v-5.666h1.928l.282-2.209h-2.21V6.896c0-.611.165-1.057 1.105-1.057z" fill="#fff"/><path d="M170.867 10c0 5.102-4.137 9.263-9.263 9.263-5.101 0-9.262-4.137-9.262-9.263a9.27 9.27 0 0 1 9.262-9.263A9.27 9.27 0 0 1 170.867 10z" fill="#00a8f2"/><path d="M165.836 8.284c-.07 3.621-2.374 6.136-5.877 6.277-1.434.071-2.469-.399-3.432-.94 1.033.165 2.397-.234 3.103-.87-1.035-.07-1.669-.634-1.999-1.504.33.07.636 0 .87 0-.963-.306-1.599-.87-1.669-2.116.235.165.565.235.869.235-.705-.399-1.198-1.905-.634-2.845 1.035 1.105 2.304 2.046 4.373 2.211-.564-2.211 2.469-3.385 3.667-1.881.564-.07.965-.306 1.364-.471-.165.541-.47.87-.87 1.176.4-.07.799-.165 1.105-.306-.07.4-.471.729-.87 1.035z" fill="#fff"/><path d="M109.816 10a9.27 9.27 0 0 1-9.263 9.263c-5.101 0-9.263-4.137-9.263-9.263a9.27 9.27 0 0 1 9.263-9.263A9.27 9.27 0 0 1 109.816 10z" fill="#fdf700"/><path d="M95.757 12.422c.329-.047.635-.165.917-.352.235-.141.447-.33.635-.564.329-.376.494-.753.517-.799v-.024c.094-.165.094-.306.047-.423-.094-.236-.4-.33-.635-.4l-.047-.023c-.047 0-.071-.024-.094-.048-.165-.07-.259-.117-.329-.188-.094-.094-.118-.165-.094-.235s.071-.141.165-.188c.118-.07.259-.094.353-.048.305.141.541.189.705.094.047-.024.07-.07.07-.117 0-.071-.023-.141-.023-.235v-.024c-.047-.658-.094-1.48.117-1.951.165-.329.353-.611.588-.846.212-.188.423-.352.705-.447.47-.211.894-.235 1.105-.235h.188c.212 0 .635.024 1.105.235.259.118.494.259.706.447.235.235.446.493.587.846.212.471.165 1.293.118 1.929v.047c0 .047-.024.094-.024.141v.07c0 .047.024.094.071.117s.117.048.188.048h.023c.141 0 .282-.048.47-.118.071-.023.118-.023.165-.023.071 0 .118.023.188.047.141.047.235.165.235.258 0 .048-.023.094-.094.165s-.188.141-.352.211c-.024.024-.071.024-.094.024l-.048.024c-.211.07-.517.164-.634.399-.047.117-.047.259.047.447v.024c.117.258.752 1.504 2.069 1.716.047.024.094.047.094.117v.048c-.047.093-.118.164-.282.234-.212.094-.518.189-.941.235a.33.33 0 0 0-.094.071c-.023.047-.047.117-.07.235l-.024.07c-.023.047-.023.117-.047.165-.023.07-.07.093-.141.093-.047 0-.094 0-.212-.023-.141-.024-.329-.07-.54-.07-.141 0-.259 0-.4.047-.258.047-.517.211-.776.376-.352.235-.729.517-1.316.517h-.071-.023-.024c-.588 0-.964-.282-1.34-.517-.235-.165-.47-.33-.752-.376-.118-.024-.259-.047-.4-.047-.235 0-.4.047-.541.07h-.024c-.07.023-.141.023-.212.023s-.118-.023-.164-.093l-.094-.212-.023-.048-.07-.235c-.023-.047-.047-.071-.094-.071-.423-.07-.752-.164-.964-.234-.141-.071-.235-.141-.282-.212-.023-.024-.023-.048-.023-.048v-.047c.165-.024.188-.047.235-.071z" fill="#fff" stroke="#201712" stroke-width=".222"/><path d="M70.145 19.027a9.15 9.15 0 0 0 9.145-9.146c0-5.051-4.094-9.144-9.145-9.144S61 4.831 61 9.881a9.15 9.15 0 0 0 9.145 9.146z" fill="url(#B)"/><g fill="#fff"><path d="M67.771 4.662h4.725c1.622 0 2.915 1.294 2.915 2.893v4.678c0 1.575-1.317 2.868-2.915 2.868h-4.725c-1.599-.023-2.915-1.293-2.915-2.892V7.531c0-1.575 1.317-2.869 2.915-2.869zm4.725 9.522c1.081 0 1.975-.87 1.975-1.951V7.555c0-1.083-.893-1.953-1.975-1.953h-4.725c-1.082 0-1.975.87-1.975 1.953v4.678c0 1.081.893 1.951 1.975 1.951h4.725zm-5.078-4.303c0-1.48 1.222-2.68 2.727-2.68a2.72 2.72 0 0 1 2.727 2.68c0 1.482-1.222 2.68-2.727 2.68s-2.727-1.198-2.727-2.68zm.94 0c0 .964.799 1.764 1.787 1.764s1.787-.799 1.787-1.764a1.78 1.78 0 0 0-1.787-1.762c-.988 0-1.787.799-1.787 1.762z" fill-rule="evenodd"/><path d="M72.967 6.402c-.188 0-.353.071-.494.189-.118.117-.212.306-.212.47 0 .189.07.352.212.471.118.117.306.188.494.188a.76.76 0 0 0 .494-.188c.118-.118.212-.306.212-.471a.59.59 0 0 0-.212-.47c-.141-.118-.306-.189-.494-.189z"/></g><mask id="A" mask-type="alpha" maskUnits="userSpaceOnUse" x="30" y="1" width="19" height="18"><circle cx="39.199" cy="10" r="9" fill="#c4c4c4"/></mask><g mask="url(#A)"><path d="M48.199 1h-18v18h18V1z" fill="url(#C)"/><path d="M44.394 6.298l-1.611 8.111s-.222.556-.833.306l-3.722-2.861-1.361-.639-2.278-.778s-.361-.111-.389-.389.389-.417.389-.417l9.056-3.528s.75-.333.75.194z" fill="#fff"/><path d="M37.95 14.326s-.111 0-.25-.444l-.833-2.667 5.444-3.472s.306-.194.306 0c0 0 .056.028-.111.194s-4.278 3.861-4.278 3.861" fill="#cadfec"/><path d="M39.672 12.937L38.2 14.271s-.111.083-.25.028l.278-2.472" fill="#aacbe1"/></g><g fill-rule="evenodd"><path d="M4.174 17.054l.337.187c1.388.863 3 1.388 4.688 1.388 4.912 0 9-4.087 9-9.075S14.111.629 9.161.629.199 4.604.199 9.554a9.09 9.09 0 0 0 1.387 4.838l.225.337-.862 3.15 3.225-.825z" fill="#00a655"/><path d="M6.274 4.529l-.713-.038c-.225 0-.45.075-.6.225-.337.3-.9.863-1.05 1.613-.262 1.125.15 2.475 1.125 3.825s2.85 3.525 6.15 4.462c1.05.3 1.875.112 2.55-.3a2.21 2.21 0 0 0 .975-1.425l.113-.525a.38.38 0 0 0-.188-.412l-2.362-1.087c-.15-.075-.338-.038-.45.112l-.937 1.2c-.075.074-.188.112-.3.074-.637-.224-2.775-1.125-3.938-3.374-.037-.113-.037-.225.038-.3l.9-1.012c.075-.113.112-.262.075-.375L6.573 4.754c-.037-.112-.149-.225-.3-.225z" fill="#fefefe"/></g><defs><radialGradient id="B" cx="0" cy="0" r="1" gradientUnits="userSpaceOnUse" gradientTransform="translate(66.3082 18.9918) scale(18.4589 18.4587)"><stop stop-color="#f9d173"/><stop offset=".246" stop-color="#ec9f55"/><stop offset=".379" stop-color="#ea5c3c"/><stop offset=".7" stop-color="#bc3082"/><stop offset=".972" stop-color="#6068ab"/><stop offset=".985" stop-color="#5c6bad"/></radialGradient><linearGradient id="C" x1="39.204" y1="1.009" x2="39.204" y2="18.948" gradientUnits="userSpaceOnUse"><stop stop-color="#00bae7"/><stop offset="1" stop-color="#00a3dc"/></linearGradient></defs></svg>